SplineFontDB: 1.0
FontName: FreeMonoBoldOblique
FullName: Free Monospaced Bold Oblique
FamilyName: FreeMono
Weight: Bold
Copyright: Copyleft 2002, 2003, 2005 Free Software Foundation.
Version: $Revision: 1.22 $
ItalicAngle: -12
UnderlinePosition: -100
UnderlineWidth: 50
Ascent: 800
Descent: 200
HheadAscent: -311
HheadDescent: 166
NeedsXUIDChange: 1
FSType: 0
PfmFamily: 49
TTFWeight: 700
TTFWidth: 5
LineGap: 90
VLineGap: 0
Panose: 2 7 6 9 2 2 5 9 4 4
OS2TypoAscent: 0
OS2TypoAOffset: 1
OS2TypoDescent: 0
OS2TypoDOffset: 1
OS2TypoLinegap: 0
OS2WinAscent: -311
OS2WinAOffset: 1
OS2WinDescent: -166
OS2WinDOffset: 1
HheadAOffset: 1
HheadDOffset: 1
OS2Vendor: 'PfEd'
ScriptLang: 2
 1 latn 1 dflt 
 1 DFLT 1 dflt 
LangName: 1027 "" "" "Negreta cursiva" "" "Free Mono Negreta cursiva" "" "" "" "" "" "" "" "" "" "http://www.gnu.org/copyleft/gpl.html" "" "" "" "" "Zel de grum: quetxup, whisky, caf+AOgA, bon vi; ja!" 
LangName: 1029 "" "" "tu+AQ0A-n+AOkA kurz+AO0A-va" "" "Free Mono tu+AQ0A-n+AOkA kurz+AO0A-va" "" "" "" "" "" "" "" "" "" "http://www.gnu.org/copyleft/gpl.html" 
LangName: 1030 "" "" "fed kursiv" "" "Free Mono fed kursiv" "" "" "" "" "" "" "" "" "" "http://www.gnu.org/copyleft/gpl.html" 
LangName: 1031 "" "" "Fett Kursiv" "" "Free Mono Fett Kursiv" "" "" "" "" "" "" "" "" "" "http://www.gnu.org/copyleft/gpl.html" "" "" "" "" "Zw+APYA-lf Boxk+AOQA-mpfer jagen Victor quer +APwA-ber den gro+AN8A-en Sylter Deich." 
LangName: 1032 "" "" "+A4gDvQPEA78DvQOx +A6ADuwOsA7MDuQOx" "" "Free Mono +A4gDvQPEA78DvQOx +A6ADuwOsA7MDuQOx" "" "" "" "" "" "" "" "" "" "http://www.gnu.org/copyleft/gpl.html" 
LangName: 1033 "" "" "" "" "" "" "" "" "" "" "" "" "" "The use of this font is granted subject to GNU General Public License." "http://www.gnu.org/copyleft/gpl.html" "" "" "" "" "The quick brown fox jumps over the lazy dog." 

StartChar: exclam
Encoding: 33 33 1
Width: 600
Flags: W
HStem: -15 132<288 333> 618 20G<406.5 454.5>
Fore
490 525 m 2
 398 228 l 2
 388 197 366 179 338 179 c 0
 313 179 298 194 298 219 c 0
 298 221 298 225 299 228 c 1
 333 525 l 2
 342 599 378 638 435 638 c 0
 474 638 501 613 501 577 c 0
 501 564 499 553 490 525 c 2
305 -15 m 2
 288 -15 l 2
 256 -15 234 7 234 38 c 0
 234 78 274 117 316 117 c 2
 333 117 l 2
 365 117 387 95 387 65 c 0
 387 24 348 -15 305 -15 c 2
EndSplineSet
EndChar
StartChar: quotedbl
Encoding: 34 34 2
Width: 600
Flags: W
HStem: 582 20G<264 392 464 592>
Fore
264 602 m 1
 392 602 l 1
 306 348 l 2
 298 323 287 312 267 312 c 0
 253 312 243 322 243 335 c 0
 243 337 244 342 244 347 c 2
 264 602 l 1
464 602 m 1
 592 602 l 1
 507 348 l 2
 498 322 487 312 467 312 c 0
 453 312 443 322 443 335 c 0
 443 336 444 342 444 347 c 2
 464 602 l 1
EndSplineSet
EndChar
StartChar: numbersign
Encoding: 35 35 3
Width: 600
Flags: W
HStem: 139 99<146 184 284 383 481 512.5> 344 100<209.5 243 342 442 541 576>
Fore
165 384 m 0
 165 406 176 444 243 444 c 2
 270 444 l 1
 317 612 l 2
 328 654 349 675 382 675 c 0
 404 675 422 658 422 638 c 0
 422 630 421 624 416 605 c 2
 370 444 l 1
 442 444 l 1
 489 612 l 2
 493 628 504 675 554 675 c 0
 576 675 594 658 594 635 c 0
 594 630 594 630 587 605 c 2
 541 444 l 1
 566 444 l 2
 597 444 623 440 623 404 c 0
 623 379 607 344 545 344 c 2
 513 344 l 1
 483 238 l 1
 502 238 l 2
 535 238 560 233 560 199 c 0
 560 174 544 139 481 139 c 2
 455 139 l 1
 408 -29 l 2
 399 -58 382 -92 342 -92 c 0
 320 -92 303 -75 303 -54 c 0
 303 -46 303 -46 310 -22 c 2
 356 139 l 1
 284 139 l 1
 236 -29 l 2
 224 -69 205 -92 172 -92 c 0
 150 -92 132 -75 132 -54 c 0
 132 -46 133 -39 138 -22 c 2
 184 139 l 1
 158 139 l 2
 117 139 101 150 101 179 c 0
 101 200 113 238 179 238 c 2
 212 238 l 1
 242 344 l 1
 222 344 l 2
 189 344 165 349 165 384 c 0
414 344 m 1
 342 344 l 1
 312 238 l 1
 383 238 l 1
 414 344 l 1
EndSplineSet
EndChar
StartChar: dollar
Encoding: 36 36 4
Width: 600
Flags: W
VStem: 196 106<370.5 448> 458 106<184.5 270.5>
Fore
487 646 m 0
 487 637 480 605 477 592 c 1
 488 590 492 590 500 588 c 2
 510 585 l 2
 522 580 527 577 541 574 c 1
 553 579 560 581 570 581 c 0
 593 581 610 565 610 544 c 0
 610 537 609 527 606 515 c 2
 599 483 l 2
 596 469 587 417 535 417 c 0
 507 417 492 432 492 460 c 0
 492 478 455 495 415 495 c 0
 350 495 302 465 302 424 c 0
 302 402 323 386 366 377 c 2
 428 363 l 2
 525 342 564 306 564 235 c 0
 564 134 481 50 357 27 c 1
 339 -56 l 2
 336 -68 327 -123 276 -123 c 0
 253 -123 236 -107 236 -86 c 0
 236 -79 237 -69 240 -56 c 2
 258 27 l 1
 218 36 212 38 184 52 c 1
 165 38 155 34 141 34 c 0
 117 34 100 50 100 72 c 0
 100 78 101 85 104 101 c 2
 117 162 l 2
 130 224 167 229 182 229 c 0
 223 229 221 198 222 180 c 0
 224 149 271 124 328 124 c 0
 399 124 458 164 458 214 c 0
 458 240 437 255 389 265 c 2
 319 280 l 2
 237 297 196 338 196 403 c 0
 196 493 275 575 378 592 c 1
 384 618 l 2
 387 634 397 684 448 684 c 0
 470 684 487 668 487 646 c 0
EndSplineSet
EndChar
StartChar: percent
Encoding: 37 37 5
Width: 600
Flags: W
HStem: -15 65<332 409> 199 65<381 458.5> 338 65<267 344> 552 65<316 393.5>
VStem: 188 66<417 492> 253 67<64 139> 407 66<462.5 539> 472 66<109.5 186>
Fore
360 617 m 0xfa
 427 617 473 572 473 506 c 0
 473 419 389 338 299 338 c 0
 235 338 188 385 188 449 c 0
 188 535 272 617 360 617 c 0xfa
346 552 m 0
 299 552 254 508 254 463 c 0
 254 428 279 403 314 403 c 0
 362 403 407 447 407 493 c 0
 407 527 382 552 346 552 c 0
562 331 m 2
 174 213 l 2
 166 210 158 209 153 209 c 0
 140 209 131 220 131 235 c 0
 131 253 142 264 168 272 c 2
 555 390 l 2
 568 394 570 394 576 394 c 0
 590 394 599 383 599 368 c 0
 599 350 588 338 562 331 c 2
425 264 m 0
 492 264 538 219 538 153 c 0
 538 66 454 -15 364 -15 c 0
 300 -15 253 32 253 96 c 0xf5
 253 182 337 264 425 264 c 0
411 199 m 0
 365 199 320 155 320 109 c 0
 320 75 345 50 379 50 c 0
 427 50 472 93 472 139 c 0
 472 175 447 199 411 199 c 0
EndSplineSet
EndChar
StartChar: ampersand
Encoding: 38 38 6
Width: 600
Flags: W
HStem: -14 100<207.5 287.5> 0 100<442 473> 450 100<360.5 418>
VStem: 102 102<69 148> 219 102<364.5 417>
Fore
520 60 m 0x78
 520 35 504 0 442 0 c 2
 381 0 l 1x78
 373 15 l 1
 339 -6 307 -14 255 -14 c 0xb8
 160 -14 102 32 102 106 c 0
 102 186 152 260 236 303 c 1
 223 336 219 355 219 374 c 0
 219 460 315 550 406 550 c 0
 430 550 449 545 473 533 c 1
 485 538 495 540 503 540 c 0
 523 540 541 521 541 501 c 0
 541 473 528 458 488 438 c 2
 441 416 l 1
 419 442 405 450 385 450 c 0
 353 450 321 421 321 392 c 0
 321 384 329 362 338 343 c 2
 407 198 l 1
 448 280 l 1
 500 280 l 2
 534 280 557 275 557 241 c 0
 557 210 531 182 502 180 c 1
 483 140 472 121 455 100 c 1
 463 100 l 2
 494 100 520 96 520 60 c 0x78
333 100 m 1
 275 220 l 1
 231 201 204 167 204 129 c 0
 204 100 228 86 275 86 c 0xb8
 300 86 312 89 333 100 c 1
EndSplineSet
EndChar
StartChar: quotesingle
Encoding: 39 39 7
Width: 600
Flags: W
HStem: 582 20G<364 492>
Fore
364 602 m 1
 492 602 l 1
 407 348 l 2
 398 322 387 312 367 312 c 0
 353 312 343 322 343 335 c 0
 343 337 344 342 344 347 c 2
 364 602 l 1
EndSplineSet
EndChar
StartChar: parenleft
Encoding: 40 40 8
Width: 600
Flags: W
HStem: 612 20G<558 584>
VStem: 304 112<70.5 208>
Fore
416 140 m 0
 416 1 467 -51 467 -92 c 0
 467 -124 437 -153 405 -153 c 0
 389 -153 377 -147 370 -134 c 0
 333 -72 304 44 304 131 c 0
 304 269 356 398 471 547 c 0
 524 615 544 632 572 632 c 0
 596 632 613 616 613 593 c 0
 613 578 608 567 593 549 c 0
 470 401 416 276 416 140 c 0
EndSplineSet
EndChar
StartChar: parenright
Encoding: 41 41 9
Width: 600
Flags: W
HStem: 612 20G<285.5 310>
VStem: 291 112<271 409.5>
Fore
291 340 m 0
 291 479 240 531 240 571 c 0
 240 603 269 632 302 632 c 0
 318 632 330 626 337 613 c 0
 374 551 403 435 403 348 c 0
 403 210 353 84 236 -68 c 0
 184 -135 163 -153 135 -153 c 0
 111 -153 94 -137 94 -114 c 0
 94 -99 99 -88 114 -70 c 0
 239 81 291 202 291 340 c 0
EndSplineSet
EndChar
StartChar: asterisk
Encoding: 42 42 10
Width: 600
Flags: W
HStem: 602 20G<415.5 443.5>
Fore
298 372 m 1
 218 400 l 2
 188 410 178 420 178 441 c 0
 178 472 207 502 238 502 c 0
 246 502 249 501 269 495 c 2
 349 467 l 1
 368 556 l 2
 378 600 399 622 432 622 c 0
 455 622 472 606 472 584 c 0
 472 578 471 569 468 556 c 2
 449 467 l 1
 541 495 l 2
 563 501 566 502 576 502 c 0
 597 502 614 484 614 462 c 0
 614 432 595 413 552 400 c 2
 460 372 l 1
 497 301 l 2
 506 283 508 276 508 267 c 0
 508 238 477 208 446 208 c 0
 426 208 417 214 403 242 c 2
 367 314 l 1
 299 242 l 2
 273 214 263 208 243 208 c 0
 219 208 202 225 202 248 c 0
 202 265 208 276 231 301 c 2
 298 372 l 1
EndSplineSet
EndChar
StartChar: plus
Encoding: 43 43 11
Width: 600
Flags: W
HStem: 0 21G<289.5 327> 230 100<158 321 399 580.5>
Fore
619 290 m 0
 619 266 603 230 541 230 c 2
 399 230 l 1
 365 66 l 2
 362 53 353 0 301 0 c 0
 278 0 261 16 261 37 c 0
 261 44 263 57 265 66 c 2
 299 230 l 1
 158 230 l 2
 117 230 101 241 101 270 c 0
 101 293 113 330 179 330 c 2
 321 330 l 1
 355 494 l 2
 365 538 386 560 420 560 c 0
 443 560 460 544 460 522 c 0
 460 515 459 513 455 494 c 2
 421 330 l 1
 562 330 l 2
 599 330 619 325 619 290 c 0
EndSplineSet
EndChar
StartChar: comma
Encoding: 44 44 12
Width: 600
Flags: W
Fore
246 134 m 1
 379 134 l 1
 181 -134 l 2
 169 -150 156 -158 144 -158 c 0
 130 -158 118 -148 118 -136 c 0
 118 -129 119 -125 126 -111 c 2
 246 134 l 1
EndSplineSet
KernsSLIFO: 628 -170 1 0 631 -142 1 0 17 -133 1 0
EndChar
StartChar: hyphen
Encoding: 45 45 13
Width: 600
Flags: W
HStem: 229 100<158 578.5>
Fore
619 290 m 0
 619 265 603 229 541 229 c 2
 158 229 l 2
 117 229 101 240 101 269 c 0
 101 294 117 329 179 329 c 2
 562 329 l 2
 595 329 619 324 619 290 c 0
EndSplineSet
KernsSLIFO: 57 -84 1 0 55 -1 1 0 54 -41 1 0 52 -93 1 0 132 -21 1 0 131 -21 1 0 128 -21 1 0 133 -17 1 0 33 -21 1 0
EndChar
StartChar: period
Encoding: 46 46 14
Width: 600
Flags: W
HStem: -15 132<288 333>
Fore
305 -15 m 2
 288 -15 l 2
 256 -15 234 7 234 38 c 0
 234 78 274 117 316 117 c 2
 333 117 l 2
 365 117 387 95 387 65 c 0
 387 24 347 -15 305 -15 c 2
EndSplineSet
KernsSLIFO: 628 -165 1 0 631 -137 1 0 17 -118 1 0
EndChar
StartChar: slash
Encoding: 47 47 15
Width: 600
Flags: W
Fore
636 610 m 2
 171 -69 l 2
 148 -103 134 -113 110 -113 c 0
 87 -113 69 -96 69 -74 c 0
 69 -61 75 -49 90 -27 c 2
 555 651 l 2
 578 685 592 695 616 695 c 0
 639 695 656 678 656 656 c 0
 656 643 652 634 636 610 c 2
EndSplineSet
EndChar
StartChar: zero
Encoding: 48 48 16
Width: 600
Flags: W
HStem: -15 100<243 353> 538 100<378.5 489>
VStem: 130 101<117 205.5> 501 101<417.5 506>
Fore
593 359 m 2
 573 264 l 2
 533 73 408 -15 296 -15 c 0
 190 -15 130 55 130 179 c 0
 130 207 133 236 139 264 c 2
 159 359 l 2
 199 550 323 638 436 638 c 0
 542 638 602 568 602 444 c 0
 602 416 599 387 593 359 c 2
260 366 m 2
 238 257 l 2
 233 237 231 216 231 195 c 0
 231 126 263 85 318 85 c 0
 388 85 449 153 471 257 c 2
 494 366 l 2
 499 386 501 407 501 428 c 0
 501 498 469 538 414 538 c 0
 343 538 281 470 260 366 c 2
EndSplineSet
KernsSLIFO: 23 -79 1 0 17 -81 1 0 20 -65 1 0
EndChar
StartChar: one
Encoding: 49 49 17
Width: 600
Flags: W
HStem: 0 100<129.5 472>
Fore
93 40 m 0
 93 66 109 100 171 100 c 2
 272 100 l 1
 358 509 l 1
 267 486 l 2
 246 481 243 480 233 480 c 0
 212 480 197 496 197 520 c 0
 197 554 215 572 262 583 c 2
 486 638 l 1
 371 100 l 1
 472 100 l 2
 506 100 529 95 529 61 c 0
 529 37 513 0 451 0 c 2
 150 0 l 2
 109 0 93 12 93 40 c 0
EndSplineSet
KernsSLIFO: 16 -95 1 0 18 -53 1 0 19 -62 1 0 22 -107 1 0 23 -146 1 0 14 -119 1 0 17 -68 1 0 25 -80 1 0 20 -95 1 0 21 -63 1 0 24 -83 1 0 12 -104 1 0
EndChar
StartChar: two
Encoding: 50 50 18
Width: 600
Flags: W
HStem: 0 100<54 508> 538 100<334.5 478>
VStem: 500 102<422 529.5>
Fore
173 460 m 0
 173 496 255 638 426 638 c 0
 530 638 602 575 602 484 c 0
 602 360 481 284 352 189 c 2
 228 100 l 1
 430 100 l 1
 440 136 460 154 491 154 c 0
 514 154 531 138 531 116 c 0
 531 109 531 105 527 88 c 2
 508 0 l 1
 54 0 l 1
 76 105 l 1
 350 301 l 2
 486 399 500 422 500 465 c 0
 500 507 459 538 403 538 c 0
 266 538 287 422 214 422 c 0
 192 422 173 439 173 460 c 0
EndSplineSet
KernsSLIFO: 23 -78 1 0 17 -73 1 0 20 -75 1 0
EndChar
StartChar: three
Encoding: 51 51 19
Width: 600
Flags: W
HStem: -15 100<212 364> 287 96<337 398> 538 100<348.5 490.5>
VStem: 469 102<177.5 236.5> 507 102<453 538.5>
Fore
286 85 m 0xf0
 442 85 469 154 469 201 c 0xf0
 469 235 446 282 337 287 c 0
 308 289 294 301 294 324 c 0
 294 355 324 383 357 383 c 2
 398 383 l 2
 454 383 507 429 507 477 c 0
 507 515 470 538 410 538 c 0
 287 538 302 477 246 477 c 0
 224 477 206 494 206 516 c 0
 206 578 320 638 438 638 c 0
 543 638 609 582 609 495 c 0xe8
 609 430 569 376 494 336 c 0
 493 336 490 335 487 333 c 1
 544 302 571 262 571 211 c 0
 571 163 539 99 494 58 c 0
 438 6 372 -15 268 -15 c 0
 156 -15 80 15 80 58 c 0
 80 91 109 120 142 120 c 0
 175 120 159 85 286 85 c 0xf0
EndSplineSet
KernsSLIFO: 23 -74 1 0 17 -79 1 0 20 -58 1 0
EndChar
StartChar: four
Encoding: 52 52 20
Width: 600
Flags: W
HStem: 0 100<288.5 441 468 485.5> 138 100<248 397 476 515> 602 20G<448 579>
Fore
252 40 m 0
 252 64 268 100 330 100 c 2
 368 100 l 1
 376 138 l 1
 104 138 l 1
 122 221 l 1
 448 622 l 1
 579 622 l 1
 497 238 l 1
 533 238 549 226 549 198 c 0
 549 178 535 138 476 138 c 1
 468 100 l 1
 503 100 520 87 520 60 c 0
 520 37 505 0 441 0 c 2
 309 0 l 2
 268 0 252 12 252 40 c 0
397 238 m 1
 449 480 l 1
 248 238 l 1
 397 238 l 1
EndSplineSet
KernsSLIFO: 23 -100 1 0 17 -72 1 0 20 -68 1 0
EndChar
StartChar: five
Encoding: 53 53 21
Width: 600
Flags: W
HStem: -15 100<219.5 398.5> 324 100<352.5 460.5> 522 100<252 570>
VStem: 476 102<205 306>
Fore
610 583 m 0
 610 557 594 522 532 522 c 2
 330 522 l 1
 306 407 l 1
 345 418 379 424 410 424 c 0
 511 424 578 357 578 255 c 0
 578 164 523 -15 274 -15 c 0
 165 -15 83 22 83 72 c 0
 83 104 113 133 145 133 c 0
 183 133 169 85 295 85 c 0
 449 85 476 174 476 236 c 0
 476 290 441 324 387 324 c 0
 318 324 252 282 229 282 c 0
 207 282 189 299 189 320 c 2
 189 322 l 2
 189 327 190 332 191 338 c 2
 252 622 l 1
 553 622 l 2
 587 622 610 617 610 583 c 0
EndSplineSet
KernsSLIFO: 23 -80 1 0 17 -80 1 0 20 -58 1 0
EndChar
StartChar: six
Encoding: 54 54 22
Width: 600
Flags: W
HStem: -15 100<270 432.5> 294 100<373 471.5> 535 103<489 590.5>
VStem: 154 107<115 304> 478 103<201.5 282.5>
Fore
600 522 m 0
 576 522 564 535 543 535 c 0
 435 535 327 446 276 324 c 1
 335 374 377 394 428 394 c 0
 515 394 581 327 581 238 c 0
 581 184 537 -15 328 -15 c 0
 212 -15 154 50 154 180 c 0
 154 428 321 551 398 594 c 0
 452 624 502 638 559 638 c 0
 622 638 663 616 663 583 c 0
 663 552 632 522 600 522 c 0
401 294 m 0
 345 294 261 232 261 194 c 0
 261 107 304 85 352 85 c 0
 459 85 478 189 478 214 c 0
 478 260 445 294 401 294 c 0
EndSplineSet
KernsSLIFO: 23 -55 1 0 17 -60 1 0 20 -54 1 0
EndChar
StartChar: seven
Encoding: 55 55 23
Width: 600
Flags: W
HStem: -1 21G<284 308.5> 522 100<207 640>
Fore
513 522 m 1
 285 522 l 1
 275 486 255 468 224 468 c 0
 201 468 184 484 184 506 c 0
 184 512 185 521 188 534 c 2
 207 622 l 1
 640 622 l 1
 619 523 l 1
 359 48 l 2
 339 12 322 -1 295 -1 c 0
 273 -1 254 17 254 37 c 0
 254 48 257 57 270 81 c 2
 513 522 l 1
EndSplineSet
KernsSLIFO: 18 -70 1 0 19 -78 1 0 22 -98 1 0 23 -69 1 0 14 -179 1 0 17 -72 1 0 20 -105 1 0 21 -87 1 0 24 -79 1 0 12 -160 1 0 26 -162 1 0
EndChar
StartChar: eight
Encoding: 56 56 24
Width: 600
Flags: W
HStem: -15 100<239 356> 263 101<320 411.5> 538 100<360 486>
VStem: 114 104<84.5 186> 185 100<407.5 472> 456 100<159 222> 505 103<438 532.5>
Fore
185 429 m 0xe8
 185 515 285 638 435 638 c 0
 537 638 608 576 608 489 c 0xea
 608 421 569 367 487 319 c 1
 534 286 556 246 556 198 c 0
 556 154 533 101 499 64 c 0
 454 16 375 -15 295 -15 c 0
 183 -15 114 40 114 129 c 0xf4
 114 205 161 271 248 319 c 1
 204 353 185 386 185 429 c 0xe8
413 538 m 0
 341 538 285 492 285 433 c 0
 285 392 321 364 376 364 c 0
 447 364 505 410 505 466 c 0
 505 511 470 538 413 538 c 0
357 263 m 0
 283 263 218 214 218 158 c 0
 218 113 257 85 318 85 c 0
 394 85 456 131 456 187 c 0xf4
 456 231 414 263 357 263 c 0
EndSplineSet
KernsSLIFO: 23 -75 1 0 17 -80 1 0 20 -63 1 0
EndChar
StartChar: nine
Encoding: 57 57 25
Width: 600
Flags: W
HStem: -15 103<188 286.5> 229 100<306.5 406> 538 100<344 508>
VStem: 197 103<340.5 420.5> 517 107<319 508>
Fore
178 101 m 0
 203 101 213 88 235 88 c 0
 338 88 450 174 502 299 c 1
 442 248 401 229 350 229 c 0
 263 229 197 296 197 385 c 0
 197 437 238 638 450 638 c 0
 566 638 624 573 624 443 c 0
 624 195 457 72 380 29 c 0
 326 -1 276 -15 219 -15 c 0
 157 -15 115 7 115 40 c 0
 115 71 146 101 178 101 c 0
377 329 m 0
 435 329 517 395 517 428 c 0
 517 516 476 538 426 538 c 0
 319 538 300 433 300 408 c 0
 300 363 333 329 377 329 c 0
EndSplineSet
KernsSLIFO: 23 -68 1 0 17 -76 1 0 20 -59 1 0
EndChar
StartChar: colon
Encoding: 58 58 26
Width: 600
Flags: W
HStem: -15 132<288 333> 304 133<356 401>
Fore
305 -15 m 2
 288 -15 l 2
 256 -15 234 7 234 38 c 0
 234 78 274 117 316 117 c 2
 333 117 l 2
 365 117 387 95 387 65 c 0
 387 24 348 -15 305 -15 c 2
373 304 m 2
 356 304 l 2
 324 304 302 326 302 357 c 0
 302 398 342 437 384 437 c 2
 401 437 l 2
 433 437 455 415 455 384 c 0
 455 343 415 304 373 304 c 2
EndSplineSet
EndChar
StartChar: semicolon
Encoding: 59 59 27
Width: 600
Flags: W
HStem: 417 20G<343 388.5>
Fore
247 134 m 1
 379 134 l 1
 181 -134 l 2
 169 -150 156 -158 144 -158 c 0
 130 -158 118 -148 118 -136 c 0
 118 -129 119 -125 126 -111 c 2
 247 134 l 1
368 437 m 0
 409 437 431 418 431 384 c 0
 431 339 391 304 340 304 c 0
 301 304 278 323 278 357 c 0
 278 401 318 437 368 437 c 0
EndSplineSet
EndChar
StartChar: less
Encoding: 60 60 28
Width: 600
Flags: W
Fore
609 501 m 0
 616 501 642 493 642 463 c 0
 642 442 629 425 600 412 c 2
 311 279 l 1
 543 143 l 2
 561 132 567 124 567 109 c 0
 567 86 541 54 514 54 c 0
 506 54 496 57 486 63 c 2
 102 280 l 1
 577 492 l 2
 590 498 601 501 609 501 c 0
EndSplineSet
EndChar
StartChar: equal
Encoding: 61 61 29
Width: 600
Flags: W
HStem: 138 100<117.5 542> 322 100<156.5 581>
Fore
120 362 m 0
 120 385 132 422 198 422 c 2
 581 422 l 2
 618 422 638 417 638 382 c 0
 638 358 622 322 560 322 c 2
 177 322 l 2
 136 322 120 333 120 362 c 0
81 178 m 0
 81 201 93 238 159 238 c 2
 542 238 l 2
 579 238 599 233 599 198 c 0
 599 173 583 138 521 138 c 2
 138 138 l 2
 97 138 81 149 81 178 c 0
EndSplineSet
EndChar
StartChar: greater
Encoding: 62 62 30
Width: 600
Flags: W
Fore
109 53 m 0
 102 53 76 61 76 91 c 0
 76 113 89 129 118 142 c 2
 407 275 l 1
 175 412 l 2
 157 422 151 430 151 445 c 0
 151 474 183 500 204 500 c 0
 212 500 222 497 232 491 c 2
 616 274 l 1
 141 62 l 2
 128 56 116 53 109 53 c 0
EndSplineSet
EndChar
StartChar: question
Encoding: 63 63 31
Width: 600
Flags: W
HStem: -15 132<290 336> 498 100<396 489.5>
VStem: 506 102<387 496>
Fore
608 450 m 0
 608 324 509 271 401 228 c 1
 389 192 368 174 339 174 c 0
 317 174 299 191 299 211 c 0
 299 219 300 221 304 240 c 2
 315 296 l 1
 466 349 506 377 506 428 c 0
 506 472 473 498 415 498 c 0
 377 498 340 490 304 474 c 1
 301 460 l 2
 298 448 289 394 237 394 c 0
 215 394 197 410 197 431 c 0
 197 437 198 447 201 460 c 2
 218 539 l 1
 327 586 370 598 436 598 c 0
 543 598 608 542 608 450 c 0
308 -15 m 2
 290 -15 l 2
 258 -15 236 7 236 38 c 0
 236 78 276 117 318 117 c 2
 336 117 l 2
 367 117 389 95 389 65 c 0
 389 24 350 -15 308 -15 c 2
EndSplineSet
EndChar
StartChar: at
Encoding: 64 64 32
Width: 600
Flags: W
HStem: -152 78<196.5 339.5> 72 81<356 416> 541 79<367.5 478.5>
VStem: 98 81<16 90.5> 262 81<159 247.5> 501 81<447 518>
Fore
534 122 m 0
 534 103 524 72 469 72 c 2
 396 72 l 2
 316 72 262 122 262 196 c 0
 262 299 364 389 492 398 c 1
 496 417 501 436 501 458 c 0
 501 509 469 541 417 541 c 0
 333 541 249 445 222 317 c 2
 189 161 l 2
 182 130 179 103 179 78 c 0
 179 -4 204 -74 289 -74 c 0
 390 -74 404 -25 434 -25 c 0
 453 -25 466 -38 466 -57 c 0
 466 -107 373 -152 269 -152 c 0
 124 -152 98 -27 98 59 c 0
 98 90 101 122 108 154 c 2
 144 323 l 2
 181 495 302 620 433 620 c 0
 524 620 582 563 582 473 c 0
 582 459 580 444 577 429 c 2
 517 148 l 1
 530 142 534 135 534 122 c 0
440 155 m 1
 474 316 l 1
 400 309 343 264 343 211 c 0
 343 177 372 153 413 153 c 0
 419 153 426 153 440 155 c 1
EndSplineSet
EndChar
StartChar: A
Encoding: 65 65 33
Width: 600
Flags: W
HStem: 0 100<36.5 68 46 209 396 555 575 591> 158 100<212 450> 483 100<228.5 304>
Fore
360 40 m 0
 360 66 376 100 438 100 c 2
 461 100 l 1
 450 158 l 1
 212 158 l 1
 176 100 l 1
 199 100 l 2
 230 100 256 96 256 60 c 0
 256 36 240 0 178 0 c 2
 46 0 l 2
 5 0 -11 11 -11 40 c 0
 -11 66 5 100 68 100 c 1
 304 483 l 1
 241 483 l 2
 200 483 184 494 184 523 c 0
 184 545 195 583 262 583 c 2
 478 583 l 1
 575 100 l 1
 607 100 633 96 633 60 c 0
 633 35 617 0 555 0 c 2
 416 0 l 2
 376 0 360 11 360 40 c 0
430 258 m 1
 392 450 l 1
 273 258 l 1
 430 258 l 1
EndSplineSet
KernsSLIFO: 89 -41 0 0 87 -15 0 0 86 -41 0 0 85 -18 0 0 84 -25 0 0 628 -116 0 0 631 -89 0 0 81 -10 0 0 14 -67 0 0 79 -11 0 0 13 -23 0 0 638 -44 0 0 106 -44 0 0 71 -5 0 0 69 -5 0 0 68 -4 0 0 12 -52 0 0 166 -15 0 0 67 -12 0 0 66 39 0 0 65 8 0 0 57 -34 0 0 55 -21 0 0 54 -63 0 0 152 -33 0 0 155 -33 0 0 154 -33 0 0 153 -33 0 0 53 -33 0 0 52 -35 0 0 49 -25 0 0 149 -26 0 0 47 -26 0 0 39 -20 0 0 134 -30 0 0 35 -24 0 0
EndChar
StartChar: B
Encoding: 66 66 34
Width: 600
Flags: W
HStem: 0 100<58.5 427> 242 100<245 380> 483 100<172 457>
VStem: 504 104<144.5 214> 518 102<405.5 474>
Fore
22 40 m 0xf0
 22 65 38 100 100 100 c 2
 115 100 l 1
 196 483 l 1
 181 483 l 2
 140 483 125 494 125 523 c 0
 125 549 141 583 203 583 c 2
 455 583 l 2
 587 583 620 500 620 448 c 0xe8
 620 391 590 345 529 305 c 1
 584 275 608 239 608 189 c 0
 608 147 585 97 549 63 c 0
 505 21 446 0 374 0 c 2
 79 0 l 2
 38 0 22 12 22 40 c 0xf0
266 342 m 1
 379 342 l 2
 458 342 518 380 518 431 c 0
 518 464 485 483 429 483 c 2
 296 483 l 1
 266 342 l 1
215 100 m 1
 390 100 l 2
 464 100 504 123 504 166 c 0xf0
 504 213 456 242 380 242 c 2
 245 242 l 1
 215 100 l 1
EndSplineSet
KernsSLIFO: 57 -50 0 0 55 -10 0 0 54 -29 0 0 151 -12 0 0 145 -14 0 0 149 -14 0 0 147 -14 0 0 146 -14 0 0 273 7 0 0 47 -14 0 0 130 -2 0 0 132 -2 0 0 131 -2 0 0 129 -2 0 0 128 -2 0 0 133 -3 0 0 33 -2 0 0
EndChar
StartChar: C
Encoding: 67 67 35
Width: 600
Flags: W
HStem: -14 100<250 417.5> 497 100<315.5 457>
VStem: 80 102<132 240>
Fore
538 404 m 2
 539 427 l 2
 539 464 481 497 415 497 c 0
 216 497 182 266 182 214 c 0
 182 135 245 86 347 86 c 0
 488 86 504 159 547 159 c 0
 570 159 588 141 588 118 c 0
 588 68 482 -14 324 -14 c 0
 176 -14 80 69 80 195 c 0
 80 213 82 231 86 249 c 2
 100 315 l 2
 134 475 277 597 432 597 c 0
 482 597 516 590 576 559 c 1
 593 576 606 583 623 583 c 0
 646 583 663 567 663 545 c 0
 663 538 663 534 659 517 c 2
 641 433 l 2
 638 420 628 367 577 367 c 0
 554 367 538 382 538 404 c 2
EndSplineSet
KernsSLIFO: 149 -19 0 0 146 -19 0 0 47 -19 0 0 43 -13 0 0 40 -18 0 0 132 2 0 0 131 2 0 0 128 2 0 0 133 2 0 0 33 2 0 0
EndChar
StartChar: D
Encoding: 68 68 36
Width: 600
Flags: W
HStem: 0 100<59.5 387> 483 100<159.5 440>
VStem: 520 102<268 433>
Fore
23 40 m 0
 23 60 38 100 96 100 c 1
 177 483 l 1
 142 483 126 496 126 523 c 0
 126 546 138 583 204 583 c 2
 417 583 l 2
 539 583 622 497 622 369 c 0
 622 167 489 0 285 0 c 2
 80 0 l 2
 39 0 23 12 23 40 c 0
520 350 m 0
 520 406 493 483 387 483 c 2
 277 483 l 1
 196 100 l 1
 306 100 l 2
 347 100 472 105 506 261 c 2
 516 307 l 2
 519 321 520 335 520 350 c 0
EndSplineSet
KernsSLIFO: 57 -61 0 0 56 -40 0 0 55 -16 0 0 54 -40 0 0 52 -36 0 0 42 -38 0 0 130 -32 0 0 132 -32 0 0 127 -32 0 0 131 -32 0 0 129 -32 0 0 128 -32 0 0 33 -32 0 0
EndChar
StartChar: E
Encoding: 69 69 37
Width: 600
Flags: W
HStem: 0 100<60 550> 243 99<246 352> 483 100<170.5 652>
Fore
352 342 m 1
 354 358 365 416 417 416 c 0
 440 416 457 400 457 378 c 0
 457 370 457 369 453 349 c 2
 428 236 l 2
 425 222 416 170 365 170 c 0
 342 170 325 186 325 207 c 0
 325 213 328 233 331 243 c 1
 246 243 l 1
 216 100 l 1
 471 100 l 1
 483 152 l 2
 486 167 496 219 546 219 c 0
 569 219 587 203 587 182 c 0
 587 174 587 170 583 152 c 2
 550 0 l 1
 80 0 l 2
 40 0 23 12 23 40 c 0
 23 66 38 100 101 100 c 2
 116 100 l 1
 197 483 l 1
 182 483 l 2
 141 483 125 494 125 523 c 0
 125 546 137 583 204 583 c 2
 652 583 l 1
 620 433 l 2
 617 418 608 366 556 366 c 0
 534 366 516 382 516 404 c 0
 516 426 526 462 531 483 c 1
 297 483 l 1
 267 342 l 1
 352 342 l 1
EndSplineSet
EndChar
StartChar: F
Encoding: 70 70 38
Width: 600
Flags: W
HStem: 0 100<70 116 80 325> 243 99<246 351> 483 100<170.5 674>
Fore
351 342 m 1
 356 361 364 415 417 415 c 0
 440 415 457 399 457 377 c 0
 457 369 456 368 452 349 c 2
 428 236 l 2
 425 221 415 169 364 169 c 0
 342 169 325 185 325 206 c 0
 325 214 328 233 331 243 c 1
 246 243 l 1
 216 100 l 1
 315 100 l 2
 348 100 372 95 372 61 c 0
 372 37 356 0 294 0 c 2
 80 0 l 2
 39 0 23 12 23 40 c 0
 23 64 39 100 101 100 c 2
 116 100 l 1
 197 483 l 1
 182 483 l 2
 141 483 125 494 125 523 c 0
 125 546 137 583 204 583 c 2
 674 583 l 1
 642 432 l 2
 639 419 630 366 578 366 c 0
 556 366 538 382 538 403 c 0
 538 427 548 460 553 483 c 1
 297 483 l 1
 267 342 l 1
 351 342 l 1
EndSplineSet
KernsSLIFO: 85 -6 0 0 82 -37 0 0 14 -191 0 0 183 -55 0 0 274 -20 0 0 181 -55 0 0 178 -55 0 0 79 -55 0 0 74 -58 0 0 73 -50 0 0 13 -61 0 0 168 -51 0 0 69 -51 0 0 12 -172 0 0 164 -44 0 0 165 -22 0 0 163 -44 0 0 160 -45 0 0 65 -44 0 0 149 -32 0 0 47 -32 0 0 42 -83 0 0 130 -47 0 0 132 -47 0 0 127 -47 0 0 131 -47 0 0 129 -47 0 0 128 -47 0 0 33 -47 0 0
EndChar
StartChar: G
Encoding: 71 71 39
Width: 600
Flags: W
HStem: -14 100<277.5 367> 180 100<377 488> 497 100<354 471>
VStem: 79 102<100 220>
Fore
585 280 m 2
 618 280 642 275 642 241 c 0
 642 212 621 189 588 180 c 1
 560 48 l 1
 460 0 407 -14 327 -14 c 0
 228 -14 79 16 79 184 c 0
 79 205 82 225 86 246 c 2
 101 317 l 2
 131 460 264 597 444 597 c 0
 498 597 544 587 583 565 c 1
 599 589 611 597 630 597 c 0
 652 597 667 582 667 560 c 0
 667 552 667 550 663 531 c 2
 646 453 l 2
 643 441 634 387 582 387 c 0
 546 387 546 411 544 440 c 0
 542 475 496 497 423 497 c 0
 313 497 223 425 201 317 c 0
 193 280 181 241 181 199 c 0
 181 127 239 86 342 86 c 0
 391 86 431 94 474 111 c 1
 488 180 l 1
 389 180 l 2
 348 180 332 191 332 220 c 0
 332 243 344 280 410 280 c 2
 585 280 l 2
EndSplineSet
KernsSLIFO: 57 -20 0 0 55 5 0 0 54 1 0 0 52 -30 0 0
EndChar
StartChar: H
Encoding: 72 72 40
Width: 600
Flags: W
HStem: 0 100<68 209 79 116 88 240 373.5 515 530 536> 241 100<246 481> 483 100<297 349 485 518>
Fore
337 40 m 0
 337 64 353 100 415 100 c 2
 430 100 l 1
 460 241 l 1
 246 241 l 1
 216 100 l 1
 230 100 l 2
 262 100 287 96 287 60 c 0
 287 36 271 0 209 0 c 2
 88 0 l 2
 48 0 32 11 32 40 c 0
 32 65 48 100 110 100 c 2
 116 100 l 1
 197 483 l 1
 169 485 155 498 155 523 c 0
 155 546 167 583 233 583 c 2
 333 583 l 2
 365 583 390 579 390 544 c 0
 390 518 374 483 312 483 c 2
 297 483 l 1
 267 341 l 1
 481 341 l 1
 511 483 l 1
 496 483 l 2
 463 483 440 488 440 523 c 0
 440 546 452 583 518 583 c 2
 618 583 l 2
 650 583 675 579 675 544 c 0
 675 511 649 486 611 483 c 1
 530 100 l 1
 536 100 l 2
 569 100 592 95 592 60 c 0
 592 36 577 0 515 0 c 2
 394 0 l 2
 353 0 337 11 337 40 c 0
EndSplineSet
EndChar
StartChar: I
Encoding: 73 73 41
Width: 600
Flags: W
HStem: 0 100<140 272 150 482> 483 100<252 353 274 592>
Fore
632 544 m 0
 632 518 616 483 554 483 c 2
 453 483 l 1
 372 100 l 1
 472 100 l 2
 504 100 529 96 529 61 c 0
 529 36 513 0 451 0 c 2
 150 0 l 2
 109 0 93 11 93 40 c 0
 93 66 109 100 171 100 c 2
 272 100 l 1
 353 483 l 1
 252 483 l 2
 211 483 196 494 196 523 c 0
 196 549 212 583 274 583 c 2
 575 583 l 2
 609 583 632 578 632 544 c 0
EndSplineSet
EndChar
StartChar: J
Encoding: 74 74 42
Width: 600
Flags: W
HStem: -14 100<237 313.5> 483 100<373 492 394 685.5>
Fore
727 543 m 0
 727 518 711 483 649 483 c 2
 592 483 l 1
 529 187 l 2
 499 45 361 -14 266 -14 c 0
 208 -14 146 6 64 51 c 1
 98 213 l 2
 101 229 113 280 163 280 c 0
 186 280 203 264 203 243 c 0
 203 235 203 232 199 213 c 2
 178 117 l 1
 223 95 255 86 288 86 c 0
 324 86 363 100 391 122 c 0
 417 143 421 152 431 198 c 0
 492 483 l 1
 373 483 l 2
 332 483 316 494 316 523 c 0
 316 546 328 583 394 583 c 2
 670 583 l 2
 701 583 727 580 727 543 c 0
EndSplineSet
KernsSLIFO: 132 -15 0 0 131 -15 0 0 133 -24 0 0 33 -15 0 0
EndChar
StartChar: K
Encoding: 75 75 43
Width: 600
Flags: W
HStem: 0 100<69 115 79 259 525 566.5> 483 100<170 367.5 613 647.5>
Fore
614 61 m 0
 614 36 598 0 535 0 c 2
 426 0 l 1
 409 143 365 240 308 259 c 1
 238 208 l 1
 215 100 l 1
 250 100 l 2
 283 100 306 95 306 60 c 0
 306 37 290 0 228 0 c 2
 79 0 l 2
 38 0 22 12 22 40 c 0
 22 66 38 100 100 100 c 2
 115 100 l 1
 196 483 l 1
 181 483 l 2
 140 483 125 494 125 523 c 0
 125 546 137 583 203 583 c 2
 352 583 l 2
 383 583 409 580 409 543 c 0
 409 518 393 483 331 483 c 2
 296 483 l 1
 265 334 l 1
 475 487 l 1
 459 493 452 503 452 520 c 0
 452 548 468 583 530 583 c 2
 631 583 l 2
 664 583 687 578 687 544 c 0
 687 521 672 483 613 483 c 1
 404 330 l 1
 459 298 503 215 525 100 c 1
 557 100 l 2
 591 100 614 94 614 61 c 0
EndSplineSet
KernsSLIFO: 89 -56 0 0 187 -30 0 0 85 -30 0 0 181 -20 0 0 178 -20 0 0 79 -20 0 0 13 -50 0 0 69 -14 0 0 164 -1 0 0 165 23 0 0 163 -1 0 0 65 -1 0 0 52 -20 0 0 51 -17 0 0 149 -31 0 0 146 -31 0 0 273 -9 0 0 47 -31 0 0 39 -30 0 0 35 -32 0 0
EndChar
StartChar: L
Encoding: 76 76 44
Width: 600
Flags: W
HStem: 0 100<78.5 571> 483 100<202 258 223 451.5>
Fore
493 543 m 0
 493 518 477 483 415 483 c 2
 358 483 l 1
 277 100 l 1
 492 100 l 1
 512 192 l 2
 515 208 525 259 576 259 c 0
 599 259 616 243 616 221 c 0
 616 215 615 207 612 192 c 2
 571 0 l 1
 99 0 l 2
 58 0 42 12 42 40 c 0
 42 66 58 100 120 100 c 2
 177 100 l 1
 258 483 l 1
 202 483 l 2
 161 483 145 494 145 523 c 0
 145 545 156 583 223 583 c 2
 436 583 l 2
 467 583 493 580 493 543 c 0
EndSplineSet
KernsSLIFO: 89 -36 0 0 187 -14 0 0 85 -13 0 0 628 -107 0 0 631 -82 0 0 13 5 0 0 57 -59 0 0 55 -23 0 0 54 -61 0 0 155 -31 0 0 53 -31 0 0 52 -60 0 0 51 -32 0 0 148 -16 0 0 145 -16 0 0 149 -16 0 0 147 -16 0 0 146 -16 0 0 47 -16 0 0 39 -19 0 0 134 -19 0 0 35 -19 0 0 132 9 0 0 131 9 0 0 128 9 0 0 133 9 0 0 33 9 0 0
EndChar
StartChar: M
Encoding: 77 77 45
Width: 600
Flags: W
HStem: 0 100<34 63 47 207 406.5 556 583 600.5> 563 20G<180 288 562 671>
Fore
370 40 m 0
 370 66 386 100 448 100 c 2
 483 100 l 1
 544 389 l 1
 380 138 l 1
 289 138 l 1
 224 389 l 1
 163 100 l 1
 198 100 l 2
 231 100 254 95 254 61 c 0
 254 37 238 0 176 0 c 2
 47 0 l 2
 6 0 -10 11 -10 40 c 0
 -10 61 5 100 63 100 c 1
 144 483 l 1
 115 486 102 498 102 523 c 0
 102 546 114 583 180 583 c 2
 288 583 l 1
 363 286 l 1
 562 583 l 1
 671 583 l 2
 703 583 728 579 728 544 c 0
 728 530 719 488 664 483 c 1
 583 100 l 1
 618 100 634 88 634 61 c 0
 634 36 618 0 556 0 c 2
 427 0 l 2
 386 0 370 11 370 40 c 0
EndSplineSet
EndChar
StartChar: N
Encoding: 78 78 46
Width: 600
Flags: W
HStem: 0 100<64.5 94 78 238> 483 100<151 182 488 649 498 533 519 664.5>
Fore
706 543 m 0
 706 523 691 483 633 483 c 1
 530 0 l 1
 432 0 l 1
 256 394 l 1
 194 100 l 1
 229 100 l 2
 262 100 285 95 285 61 c 0
 285 37 269 0 207 0 c 2
 78 0 l 2
 37 0 21 11 21 40 c 0
 21 60 35 100 94 100 c 1
 175 483 l 1
 160 483 l 2
 119 483 104 494 104 523 c 0
 104 548 120 583 182 583 c 2
 296 583 l 1
 471 191 l 1
 533 483 l 1
 498 483 l 2
 457 483 442 494 442 523 c 0
 442 549 457 583 519 583 c 2
 649 583 l 2
 680 583 706 580 706 543 c 0
EndSplineSet
KernsSLIFO: 187 -12 0 0 85 -12 0 0 14 -98 0 0 183 -6 0 0 181 -12 0 0 178 -12 0 0 79 -12 0 0 168 -7 0 0 69 -7 0 0 12 -79 0 0 164 -14 0 0 165 14 0 0 163 -14 0 0 160 -15 0 0 65 -14 0 0 149 -10 0 0 146 -10 0 0 47 -10 0 0 39 -12 0 0 134 -10 0 0 35 -13 0 0 132 -10 0 0 131 -10 0 0 128 -10 0 0 133 -11 0 0 33 -10 0 0
EndChar
StartChar: O
Encoding: 79 79 47
Width: 600
Flags: W
HStem: -14 100<233.5 375.5> 497 100<347.5 490>
VStem: 75 103<153 331.5> 546 103<252 432>
Fore
75 220 m 0
 75 443 277 597 426 597 c 0
 554 597 649 498 649 366 c 0
 649 138 448 -14 297 -14 c 0
 170 -14 75 86 75 220 c 0
405 497 m 0
 290 497 178 371 178 243 c 0
 178 153 237 86 317 86 c 0
 434 86 546 211 546 342 c 0
 546 431 486 497 405 497 c 0
EndSplineSet
KernsSLIFO: 57 -51 0 0 56 -28 0 0 55 -4 0 0 54 -32 0 0 52 -23 0 0 132 -21 0 0 131 -21 0 0 128 -21 0 0 133 -20 0 0 33 -21 0 0
EndChar
StartChar: P
Encoding: 80 80 48
Width: 600
Flags: W
HStem: 0 100<70 116 80 324> 200 100<237 415> 483 100<170 436 182 197 203 492>
VStem: 509 108<380.5 478>
Fore
125 523 m 0
 125 546 137 583 203 583 c 2
 436 583 l 2
 548 583 617 525 617 431 c 0
 617 384 596 331 558 289 c 0
 502 225 440 200 335 200 c 2
 237 200 l 1
 216 100 l 1
 314 100 l 2
 348 100 371 95 371 61 c 0
 371 37 355 0 293 0 c 2
 80 0 l 2
 39 0 23 12 23 40 c 0
 23 65 39 100 101 100 c 2
 116 100 l 1
 197 483 l 1
 182 483 l 2
 140 483 125 494 125 523 c 0
297 483 m 1
 258 300 l 1
 376 300 l 2
 454 300 509 347 509 414 c 0
 509 457 473 483 415 483 c 2
 297 483 l 1
EndSplineSet
KernsSLIFO: 14 -183 0 0 183 -46 0 0 274 -18 0 0 181 -47 0 0 178 -47 0 0 79 -47 0 0 13 -39 0 0 168 -43 0 0 69 -43 0 0 12 -164 0 0 164 -54 0 0 165 -31 0 0 163 -54 0 0 160 -54 0 0 65 -54 0 0 42 -80 0 0 132 -65 0 0 131 -65 0 0 128 -65 0 0 133 -63 0 0 33 -65 0 0
EndChar
StartChar: Q
Encoding: 81 81 49
Width: 600
Flags: W
HStem: -145 100<387.5 453> -117 92<265 338.5> -7 92<277 375.5> 497 100<336.5 491>
VStem: 75 102<150 316.5> 546 103<276 430>
Fore
200 7 m 1x7c
 163 31 75 80 75 220 c 0
 75 413 246 597 427 597 c 0
 555 597 649 497 649 363 c 0
 649 243 586 130 476 53 c 0
 416 10 360 -7 286 -7 c 0
 284 -7 277 -7 269 -6 c 1
 261 -30 l 1
 286 -26 298 -25 312 -25 c 0x7c
 365 -25 408 -45 434 -45 c 0
 472 -45 493 -13 524 -13 c 0
 548 -13 565 -29 565 -52 c 0
 565 -105 468 -145 413 -145 c 0xbc
 362 -145 346 -117 295 -117 c 0
 235 -117 162 -143 134 -143 c 0
 113 -143 96 -125 96 -104 c 0
 96 -83 103 -71 125 -53 c 2
 200 7 l 1x7c
405 497 m 0
 290 497 177 371 177 242 c 0
 177 152 237 85 317 85 c 0
 434 85 546 210 546 342 c 0
 546 431 486 497 405 497 c 0
EndSplineSet
EndChar
StartChar: R
Encoding: 82 82 50
Width: 600
Flags: W
HStem: 0 100<70 116 80 260 553 584> 222 100<242 384.5> 483 100<171 437.5>
VStem: 504 108<393 483>
Fore
631 60 m 0
 631 37 615 0 553 0 c 2
 475 0 l 1
 444 98 377 207 338 222 c 1
 242 222 l 1
 216 100 l 1
 251 100 l 2
 284 100 307 94 307 60 c 0
 307 37 291 0 229 0 c 2
 80 0 l 2
 39 0 23 11 23 40 c 0
 23 64 39 100 101 100 c 2
 116 100 l 1
 197 483 l 1
 182 483 l 2
 141 483 126 494 126 523 c 0
 126 546 138 583 204 583 c 2
 427 583 l 2
 542 583 612 528 612 438 c 0
 612 362 564 301 469 254 c 1
 506 214 534 166 561 100 c 1
 574 100 l 2
 616 100 631 90 631 60 c 0
263 322 m 1
 339 322 l 2
 430 322 504 366 504 420 c 0
 504 458 466 483 409 483 c 2
 297 483 l 1
 263 322 l 1
EndSplineSet
KernsSLIFO: 89 -22 0 0 187 -9 0 0 185 -9 0 0 85 -9 0 0 274 24 0 0 181 -9 0 0 178 -9 0 0 79 -9 0 0 13 -30 0 0 168 -4 0 0 69 -4 0 0 164 7 0 0 165 32 0 0 163 7 0 0 160 6 0 0 65 7 0 0 57 -35 0 0 55 -10 0 0 54 -34 0 0 155 -21 0 0 53 -20 0 0 52 -36 0 0 149 -18 0 0 146 -18 0 0 273 3 0 0 47 -18 0 0 39 -18 0 0 134 -18 0 0 35 -19 0 0
EndChar
StartChar: S
Encoding: 83 83 51
Width: 600
Flags: W
HStem: -14 100<279 383.5> 497 100<354.5 450.5>
VStem: 167 106<358.5 443> 470 106<138 288>
Fore
273 411 m 0
 273 306 576 377 576 199 c 0
 576 77 461 -14 306 -14 c 0
 252 -14 202 -1 158 25 c 1
 137 6 128 1 112 1 c 0
 89 1 72 17 72 38 c 0
 72 44 73 55 76 67 c 2
 90 133 l 2
 100 178 120 199 155 199 c 0
 190 199 192 180 194 151 c 0
 197 115 254 86 319 86 c 0
 402 86 470 125 470 173 c 0
 470 250 310 225 223 281 c 0
 189 304 167 344 167 385 c 0
 167 501 284 597 425 597 c 0
 476 597 518 586 548 564 c 1
 564 589 575 597 594 597 c 0
 618 597 634 582 634 561 c 0
 634 554 634 549 630 531 c 2
 611 443 l 2
 608 428 595 376 547 376 c 0
 508 376 509 400 508 430 c 0
 508 470 466 497 404 497 c 0
 334 497 273 457 273 411 c 0
EndSplineSet
KernsSLIFO: 84 -20 0 0 57 -37 0 0 55 -15 0 0 54 -16 0 0 52 -47 0 0 132 -16 0 0 131 -16 0 0 128 -16 0 0 133 -16 0 0 33 -16 0 0
EndChar
StartChar: T
Encoding: 84 84 52
Width: 600
Flags: W
HStem: 0 100<164 436> 483 100<166 682>
Fore
128 40 m 0
 128 66 144 100 206 100 c 2
 270 100 l 1
 352 483 l 1
 245 483 l 1
 225 390 l 2
 222 378 213 324 161 324 c 0
 139 324 121 341 121 361 c 0
 121 368 122 378 125 390 c 2
 166 583 l 1
 682 583 l 1
 641 390 l 2
 638 376 629 324 577 324 c 0
 554 324 537 340 537 361 c 0
 537 368 538 377 541 390 c 2
 561 483 l 1
 452 483 l 1
 370 100 l 1
 436 100 l 2
 469 100 493 95 493 61 c 0
 493 37 477 0 415 0 c 2
 184 0 l 2
 144 0 128 12 128 40 c 0
EndSplineSet
KernsSLIFO: 89 -4 0 0 87 5 0 0 86 6 0 0 85 -1 0 0 27 -106 0 0 83 -43 0 0 82 -33 0 0 14 -154 0 0 183 -36 0 0 79 -36 0 0 74 -53 0 0 73 -46 0 0 13 -96 0 0 638 -81 0 0 106 -81 0 0 71 -28 0 0 69 -31 0 0 12 -136 0 0 26 -119 0 0 67 -42 0 0 165 -17 0 0 65 -39 0 0 57 -17 0 0 55 -2 0 0 54 4 0 0 51 -49 0 0 148 -22 0 0 151 -23 0 0 145 -22 0 0 149 -22 0 0 147 -22 0 0 146 -22 0 0 47 -22 0 0 42 -72 0 0 39 -27 0 0 35 -27 0 0 130 -35 0 0 132 -35 0 0 127 -35 0 0 131 -35 0 0 129 -35 0 0 128 -35 0 0 133 -35 0 0 33 -35 0 0
EndChar
StartChar: U
Encoding: 85 85 53
Width: 600
Flags: W
HStem: -14 100<243.5 362.5> 483 100<156 346.5 486 648 497 532 519 664>
VStem: 110 101<108.5 179>
Fore
648 583 m 2
 680 583 705 579 705 544 c 0
 705 510 679 483 632 483 c 1
 573 205 l 2
 547 81 427 -14 298 -14 c 0
 189 -14 110 59 110 158 c 0
 110 173 111 188 115 205 c 2
 174 483 l 1
 138 483 123 495 123 523 c 0
 123 546 135 583 201 583 c 2
 331 583 l 2
 362 583 387 580 387 544 c 0
 387 518 372 483 309 483 c 2
 274 483 l 1
 213 196 l 2
 212 189 211 182 211 176 c 0
 211 124 257 86 319 86 c 0
 390 86 458 135 471 196 c 2
 532 483 l 1
 497 483 l 2
 456 483 441 494 441 523 c 0
 441 546 453 583 519 583 c 2
 648 583 l 2
EndSplineSet
KernsSLIFO: 82 -36 0 0 14 -118 0 0 80 -3 0 0 78 -10 0 0 77 14 0 0 12 -98 0 0 130 -23 0 0 132 -23 0 0 131 -23 0 0 129 -23 0 0 128 -23 0 0 133 -22 0 0 33 -23 0 0
EndChar
StartChar: V
Encoding: 86 86 54
Width: 600
Flags: W
HStem: 0 21G<249 347> 483 100<137 149 169 322.5 513.5 689>
Fore
358 543 m 0
 358 518 342 483 280 483 c 2
 261 483 l 1
 333 144 l 1
 550 483 l 1
 525 483 l 2
 492 483 469 488 469 523 c 0
 469 545 480 583 547 583 c 2
 678 583 l 2
 709 583 735 580 735 543 c 0
 735 519 723 483 655 483 c 1
 347 0 l 1
 249 0 l 1
 149 483 l 1
 137 483 l 2
 106 485 91 497 91 523 c 0
 91 546 103 583 169 583 c 2
 302 583 l 2
 343 583 358 572 358 543 c 0
EndSplineSet
KernsSLIFO: 89 -22 0 0 85 -21 0 0 27 -127 0 0 82 -51 0 0 14 -169 0 0 183 -51 0 0 79 -56 0 0 73 -64 0 0 13 -45 0 0 638 -83 0 0 106 -83 0 0 71 -50 0 0 69 -51 0 0 12 -150 0 0 26 -139 0 0 165 -30 0 0 65 -59 0 0 52 3 0 0 51 -35 0 0 148 -32 0 0 151 -32 0 0 145 -32 0 0 149 -32 0 0 147 -32 0 0 146 -32 0 0 47 -32 0 0 39 -34 0 0 35 -34 0 0 130 -12 0 0 132 -12 0 0 127 -12 0 0 131 -12 0 0 129 -12 0 0 128 -12 0 0 133 -21 0 0 33 -12 0 0
EndChar
StartChar: W
Encoding: 87 87 55
Width: 600
Flags: W
HStem: 0 21G<98 209 394 504> 417 20G<345 448> 483 100<180 327.5 504.5 570>
Fore
668 583 m 2
 700 583 725 579 725 544 c 0
 725 513 702 489 667 483 c 1
 504 0 l 1
 394 0 l 1
 359 277 l 1
 209 0 l 1
 98 0 l 1
 139 483 l 1
 114 486 102 498 102 519 c 0
 102 544 114 583 180 583 c 2
 312 583 l 2
 343 583 369 580 369 543 c 0
 369 518 353 483 290 483 c 2
 242 483 l 1
 221 211 l 1
 345 437 l 1
 448 437 l 1
 476 211 l 1
 570 483 l 1
 516 483 l 2
 475 483 460 494 460 523 c 0
 460 545 471 583 538 583 c 2
 668 583 l 2
EndSplineSet
KernsSLIFO: 89 -6 0 0 85 -3 0 0 27 -86 0 0 82 -28 0 0 14 -105 0 0 183 -6 0 0 79 -11 0 0 73 -40 0 0 13 -3 0 0 638 -38 0 0 106 -38 0 0 71 -5 0 0 69 -6 0 0 12 -86 0 0 26 -103 0 0 165 15 0 0 65 -14 0 0 52 -1 0 0 51 -21 0 0 148 -7 0 0 151 -3 0 0 145 -7 0 0 149 -7 0 0 147 -7 0 0 146 -7 0 0 47 -7 0 0 39 -8 0 0 35 -9 0 0 130 -15 0 0 132 -15 0 0 127 -15 0 0 131 -15 0 0 129 -15 0 0 128 -15 0 0 133 -14 0 0 33 -15 0 0
EndChar
StartChar: X
Encoding: 88 88 56
Width: 600
Flags: W
HStem: 0 100<55.5 89 523 568.5> 483 100<623 651>
Fore
635 583 m 2
 667 583 692 579 692 544 c 0
 692 509 663 484 623 483 c 1
 427 297 l 1
 552 100 l 1
 585 100 601 87 601 60 c 0
 601 36 585 0 523 0 c 2
 413 0 l 2
 372 0 356 11 356 40 c 0
 356 52 362 95 423 100 c 1
 347 220 l 1
 219 100 l 1
 249 99 264 86 264 60 c 0
 264 35 248 0 186 0 c 2
 76 0 l 2
 35 0 19 11 19 40 c 0
 19 75 48 100 89 100 c 1
 298 298 l 1
 179 483 l 1
 146 484 131 497 131 523 c 0
 131 546 143 583 209 583 c 2
 300 583 l 2
 334 583 357 578 357 544 c 0
 357 517 342 500 308 484 c 1
 379 375 l 1
 495 484 l 1
 472 497 467 504 467 523 c 0
 467 548 482 583 545 583 c 2
 635 583 l 2
EndSplineSet
KernsSLIFO: 89 -49 0 0 85 -36 0 0 79 -26 0 0 13 -55 0 0 69 -20 0 0 65 -7 0 0 49 -30 0 0 149 -31 0 0 47 -31 0 0 35 -33 0 0
EndChar
StartChar: Y
Encoding: 89 89 57
Width: 600
Flags: W
HStem: 0 100<174.5 272 185 447> 483 100<180.5 212 617 654.5>
Fore
694 544 m 0
 694 522 679 483 620 483 c 2
 617 483 l 1
 402 245 l 1
 372 100 l 1
 437 100 l 2
 470 100 494 95 494 61 c 0
 494 37 478 0 416 0 c 2
 185 0 l 2
 144 0 128 12 128 40 c 0
 128 66 143 100 206 100 c 2
 272 100 l 1
 302 245 l 1
 188 483 l 1
 182 483 l 2
 151 483 134 497 134 523 c 0
 134 548 149 583 212 583 c 2
 302 583 l 2
 335 583 358 578 358 544 c 0
 358 517 341 496 308 483 c 1
 374 348 l 1
 497 483 l 1
 475 492 467 503 467 523 c 0
 467 549 483 583 545 583 c 2
 638 583 l 2
 671 583 694 578 694 544 c 0
EndSplineSet
KernsSLIFO: 86 -38 0 0 85 -48 0 0 27 -139 0 0 14 -141 0 0 80 -34 0 0 183 -56 0 0 79 -68 0 0 73 -63 0 0 13 -87 0 0 638 -99 0 0 106 -99 0 0 71 -62 0 0 69 -63 0 0 12 -123 0 0 26 -157 0 0 165 -36 0 0 65 -61 0 0 52 -17 0 0 51 -55 0 0 148 -52 0 0 151 -50 0 0 145 -52 0 0 149 -52 0 0 147 -52 0 0 146 -52 0 0 47 -52 0 0 39 -54 0 0 35 -54 0 0 130 -32 0 0 132 -32 0 0 127 -32 0 0 131 -32 0 0 129 -32 0 0 128 -32 0 0 133 -35 0 0 33 -32 0 0
EndChar
StartChar: Z
Encoding: 90 90 58
Width: 600
Flags: W
HStem: 0 100<73 527> 483 100<220 628>
Fore
222 100 m 1
 448 100 l 1
 464 172 l 2
 467 187 477 238 528 238 c 0
 551 238 568 222 568 200 c 0
 568 192 568 191 564 172 c 2
 527 0 l 1
 73 0 l 1
 94 100 l 1
 477 483 l 1
 299 483 l 1
 284 413 l 2
 281 400 271 347 219 347 c 0
 197 347 179 364 179 384 c 0
 179 392 180 394 184 413 c 2
 220 583 l 1
 628 583 l 1
 607 486 l 1
 222 100 l 1
EndSplineSet
KernsSLIFO: 89 -55 0 0 86 -47 0 0
EndChar
StartChar: bracketleft
Encoding: 91 91 59
Width: 600
Flags: W
HStem: -148 100<340 409> 527 100<384 558.5>
Fore
598 588 m 0
 598 563 582 527 520 527 c 2
 462 527 l 1
 340 -48 l 1
 399 -48 l 2
 432 -48 456 -53 456 -87 c 0
 456 -112 440 -148 378 -148 c 2
 219 -148 l 1
 384 627 l 1
 542 627 l 2
 575 627 598 622 598 588 c 0
EndSplineSet
EndChar
StartChar: backslash
Encoding: 92 92 60
Width: 600
Flags: W
Fore
322 651 m 0
 499 -27 l 2
 502 -38 504 -48 504 -54 c 0
 504 -84 474 -113 443 -113 c 0
 418 -113 409 -103 400 -69 c 0
 224 610 l 1
 220 623 219 630 219 636 c 0
 219 666 249 695 280 695 c 0
 304 695 313 685 322 651 c 0
EndSplineSet
EndChar
StartChar: bracketright
Encoding: 93 93 61
Width: 600
Flags: W
HStem: -148 100<143.5 318> 527 100<293 362>
Fore
104 -109 m 0
 104 -84 120 -48 182 -48 c 2
 240 -48 l 1
 362 527 l 1
 303 527 l 2
 270 527 246 532 246 566 c 0
 246 591 262 627 324 627 c 2
 483 627 l 1
 318 -148 l 1
 160 -148 l 2
 127 -148 104 -143 104 -109 c 0
EndSplineSet
EndChar
StartChar: asciicircum
Encoding: 94 94 62
Width: 600
Flags: W
Fore
404 494 m 1
 257 356 l 2
 229 330 221 325 202 325 c 0
 178 325 161 342 161 365 c 0
 161 384 168 395 193 419 c 2
 438 652 l 1
 584 419 l 2
 595 402 598 395 598 384 c 0
 598 355 567 325 536 325 c 0
 517 325 510 330 494 355 c 2
 404 494 l 1
EndSplineSet
EndChar
StartChar: underscore
Encoding: 95 95 63
Width: 600
Flags: W
HStem: -125 50<-61 564>
Fore
564 -75 m 1
 564 -125 l 1
 -61 -125 l 1
 -61 -75 l 1
 564 -75 l 1
EndSplineSet
EndChar
StartChar: grave
Encoding: 96 96 64
Width: 600
Flags: W
Fore
338 680 m 2
 448 569 l 1
 459 559 464 549 464 540 c 0
 464 517 441 496 418 496 c 0
 409 496 402 500 390 512 c 2
 280 624 l 1
 269 634 264 644 264 652 c 0
 264 675 286 696 310 696 c 0
 320 696 326 693 338 680 c 2
EndSplineSet
EndChar
StartChar: a
Encoding: 97 97 65
Width: 600
Flags: W
HStem: -16 100<174.5 268.5> 0 100<505 536> 196 92<233.5 362> 350 100<334 441>
VStem: 65 109<65 134> 453 104<304 372>
Fore
583 61 m 0x7c
 583 35 567 0 505 0 c 2
 388 0 l 1x7c
 393 23 l 1
 340 -2 278 -16 219 -16 c 0xbc
 130 -16 65 32 65 98 c 0
 65 136 121 288 346 288 c 0
 378 288 408 285 447 278 c 1
 450 290 453 297 453 311 c 0
 453 338 426 350 369 350 c 0
 299 350 241 327 207 327 c 0
 185 327 169 343 169 366 c 0
 169 434 305 450 389 450 c 0
 493 450 557 407 557 337 c 0
 557 324 556 314 553 302 c 2
 510 100 l 1
 527 100 l 2
 560 100 583 95 583 61 c 0x7c
320 196 m 0
 236 196 174 150 174 118 c 0
 174 99 203 84 241 84 c 0xbc
 296 84 355 101 418 135 c 1
 428 185 l 1
 390 192 354 196 320 196 c 0
EndSplineSet
KernsSLIFO: 89 -36 0 0 87 -13 0 0 86 -25 0 0 628 -79 0 0 74 -85 0 0
EndChar
StartChar: b
Encoding: 98 98 66
Width: 600
Flags: W
HStem: -14 100<292 441> 0 100<38 96> 351 100<325 500> 524 100<158 191>
VStem: 520 103<227 306>
Fore
113 564 m 0x78
 113 586 125 624 191 624 c 2
 307 624 l 1
 259 401 l 1
 309 435 360 451 418 451 c 0
 582 451 623 343 623 269 c 0
 623 198 561 -14 321 -14 c 0xb8
 263 -14 226 -1 182 35 c 1
 174 0 l 1
 58 0 l 2
 18 0 2 11 2 40 c 0
 2 65 18 100 80 100 c 2
 96 100 l 1
 186 524 l 1
 170 524 l 2
 128 524 113 535 113 564 c 0x78
343 86 m 0
 483 86 520 210 520 244 c 0
 520 309 477 351 395 351 c 0
 255 351 218 228 218 193 c 0
 218 126 264 86 343 86 c 0
EndSplineSet
KernsSLIFO: 89 -15 0 0 87 3 0 0 86 -4 0 0
EndChar
StartChar: c
Encoding: 99 99 67
Width: 600
Flags: W
HStem: -16 100<222 431> 350 100<281.5 435>
VStem: 93 102<121.5 196>
Fore
93 156 m 0
 93 226 156 450 407 450 c 0
 463 450 509 440 544 420 c 1
 554 441 567 450 588 450 c 0
 612 450 626 436 626 412 c 0
 626 405 625 400 622 384 c 2
 606 307 l 2
 602 292 590 241 541 241 c 0
 506 241 501 262 501 289 c 0
 501 338 436 350 385 350 c 0
 226 350 195 214 195 178 c 0
 195 115 245 84 348 84 c 0
 499 84 503 140 545 140 c 0
 568 140 585 123 585 99 c 0
 585 76 545 -16 317 -16 c 0
 127 -16 93 87 93 156 c 0
EndSplineSet
KernsSLIFO: 75 3 0 0 72 8 0 0
EndChar
StartChar: d
Encoding: 100 100 68
Width: 600
Flags: W
HStem: -14 100<196.5 372.5> 0 100<547 578> 351 100<284.5 408> 525 99<515 548>
VStem: 74 103<131.5 210>
Fore
470 565 m 0xb8
 470 586 482 624 548 624 c 2
 664 624 l 1
 553 100 l 1
 569 100 l 2
 600 100 625 96 625 60 c 0
 625 35 609 0 547 0 c 2
 431 0 l 1x78
 439 35 l 1
 379 -1 336 -14 278 -14 c 0
 115 -14 74 95 74 168 c 0
 74 236 105 308 156 360 c 0
 217 422 288 451 378 451 c 0
 437 451 481 435 517 401 c 1
 543 525 l 1
 527 525 l 2
 486 525 470 535 470 565 c 0xb8
481 244 m 0
 481 284 462 351 354 351 c 0
 215 351 177 227 177 193 c 0
 177 126 224 86 302 86 c 0xb8
 443 86 481 208 481 244 c 0
EndSplineSet
EndChar
StartChar: e
Encoding: 101 101 69
Width: 600
Flags: W
HStem: -16 100<226 368.5> 172 88<178 587> 350 100<304 452>
Fore
325 84 m 0
 412 84 489 117 528 117 c 0
 551 117 566 101 566 79 c 0
 566 57 554 39 533 28 c 0
 490 5 374 -16 294 -16 c 0
 158 -16 74 55 74 169 c 0
 74 318 221 450 387 450 c 0
 517 450 600 375 600 259 c 0
 600 228 592 199 587 172 c 1
 178 172 l 1
 189 112 237 84 325 84 c 0
200 260 m 1
 495 260 l 1
 490 314 439 350 367 350 c 0
 293 350 228 315 200 260 c 1
EndSplineSet
KernsSLIFO: 89 -25 0 0 88 3 0 0 87 -4 0 0 86 -14 0 0 84 -16 0 0 628 -64 0 0
EndChar
StartChar: f
Encoding: 102 102 70
Width: 600
Flags: W
HStem: 0 100<131 220 140 469> 337 100<224 291 370 558> 523 100<465 587.5>
Fore
599 397 m 0
 599 373 583 337 521 337 c 2
 370 337 l 1
 320 100 l 1
 459 100 l 2
 492 100 516 95 516 61 c 0
 516 37 500 0 438 0 c 2
 140 0 l 2
 100 0 84 12 84 40 c 0
 84 66 100 100 162 100 c 2
 220 100 l 1
 270 337 l 1
 224 337 l 2
 182 337 166 348 166 377 c 0
 166 401 178 437 245 437 c 2
 291 437 l 1
 299 474 l 2
 319 566 405 623 525 623 c 0
 650 623 691 602 691 570 c 0
 691 539 662 509 632 509 c 0
 608 509 566 523 494 523 c 0
 437 523 405 507 399 474 c 2
 392 437 l 1
 542 437 l 2
 574 437 599 434 599 397 c 0
EndSplineSet
KernsSLIFO: 84 -10 0 0 83 -46 0 0 628 -78 0 0 183 -34 0 0 274 -17 0 0 181 -48 0 0 178 -51 0 0 79 -51 0 0 76 -30 0 0 74 -63 0 0 73 -40 0 0 70 -46 0 0 168 -46 0 0 69 -46 0 0 164 -38 0 0 165 -13 0 0 163 -38 0 0 160 -38 0 0 65 -38 0 0
EndChar
StartChar: g
Encoding: 103 103 71
Width: 600
Flags: W
HStem: -205 100<142.5 293> -14 100<208 333> 337 100<581 634.5> 351 100<288 391.5>
VStem: 73 103<114 243>
Fore
106 -165 m 0xe8
 106 -140 121 -105 184 -105 c 2
 293 -105 l 2
 350 -105 394 -72 405 -20 c 2
 417 35 l 1
 363 1 317 -14 265 -14 c 0
 151 -14 73 60 73 168 c 0
 73 318 211 451 365 451 c 0xd8
 418 451 463 434 495 401 c 1
 502 437 l 1
 619 437 l 2
 650 437 675 433 675 397 c 0
 675 372 659 337 597 337 c 2
 581 337 l 1
 505 -20 l 2
 483 -126 384 -205 274 -205 c 2
 163 -205 l 2
 122 -205 106 -194 106 -165 c 0xe8
345 351 m 0
 259 351 176 274 176 193 c 0
 176 130 223 86 289 86 c 0
 377 86 459 163 459 244 c 0
 459 307 412 351 345 351 c 0
EndSplineSet
KernsSLIFO: 82 -5 0 0 181 -6 0 0 178 -6 0 0 76 -38 0 0 168 -1 0 0 69 -1 0 0 164 -7 0 0 165 21 0 0 163 -7 0 0 65 -7 0 0
EndChar
StartChar: h
Encoding: 104 104 72
Width: 600
Flags: W
HStem: 0 100<80 117 89 232.5 382.5 515 393.5 431 403 546> 350 100<372 472> 524 100<179 212>
VStem: 471 103<298 363>
Fore
134 564 m 0
 134 586 146 624 212 624 c 2
 328 624 l 1
 278 389 l 1
 327 430 376 450 428 450 c 0
 516 450 574 401 574 325 c 0
 574 312 573 298 570 284 c 2
 530 100 l 1
 536 100 l 2
 567 100 593 97 593 60 c 0
 593 36 577 0 515 0 c 2
 403 0 l 2
 362 0 346 11 346 40 c 0
 346 65 362 100 425 100 c 2
 431 100 l 1
 467 271 l 2
 470 283 471 294 471 302 c 0
 471 331 442 350 396 350 c 0
 348 350 324 339 256 283 c 1
 217 100 l 1
 223 100 l 2
 256 100 280 94 280 60 c 0
 280 34 264 0 201 0 c 2
 89 0 l 2
 49 0 33 11 33 40 c 0
 33 64 49 100 111 100 c 2
 117 100 l 1
 207 524 l 1
 191 524 l 2
 149 524 134 535 134 564 c 0
EndSplineSet
KernsSLIFO: 89 -29 0 0 628 -71 0 0
EndChar
StartChar: i
Encoding: 105 105 73
Width: 600
Flags: W
HStem: 0 100<119 272 129 504> 337 100<223 322> 603 20G<351 469>
Fore
186 377 m 0
 186 400 198 437 265 437 c 2
 443 437 l 1
 372 100 l 1
 493 100 l 2
 524 100 550 96 550 60 c 0
 550 38 536 0 472 0 c 2
 129 0 l 2
 88 0 72 11 72 40 c 0
 72 66 88 100 150 100 c 2
 272 100 l 1
 322 337 l 1
 244 337 l 2
 202 337 186 348 186 377 c 0
469 623 m 1
 446 518 l 1
 328 518 l 1
 351 623 l 1
 469 623 l 1
EndSplineSet
KernsSLIFO: 74 -145 0 0 52 -64 0 0
EndChar
StartChar: j
Encoding: 106 106 74
Width: 600
Flags: W
HStem: -205 100<119.5 271> 337 100<258 581> 603 20G<443 563>
Fore
83 -165 m 0
 83 -140 99 -105 161 -105 c 2
 271 -105 l 2
 329 -105 373 -72 384 -20 c 2
 460 337 l 1
 258 337 l 2
 217 337 201 348 201 377 c 0
 201 402 217 437 279 437 c 2
 581 437 l 1
 484 -20 l 2
 462 -125 362 -205 253 -205 c 2
 140 -205 l 2
 99 -205 83 -194 83 -165 c 0
563 623 m 1
 540 518 l 1
 421 518 l 1
 443 623 l 1
 563 623 l 1
EndSplineSet
EndChar
StartChar: k
Encoding: 107 107 75
Width: 600
Flags: W
HStem: 0 100<78 136 492 535> 337 100<501 569.5> 524 100<198 231>
Fore
582 60 m 0
 582 36 566 0 504 0 c 2
 386 0 l 2
 345 0 329 11 329 40 c 0
 329 57 336 71 354 87 c 1
 270 178 l 1
 249 164 l 1
 215 0 l 1
 98 0 l 2
 58 0 42 11 42 40 c 0
 42 65 58 100 120 100 c 2
 136 100 l 1
 226 524 l 1
 210 524 l 2
 169 524 153 534 153 563 c 0
 153 587 165 624 231 624 c 2
 347 624 l 1
 275 287 l 1
 367 350 l 1
 361 361 359 366 359 376 c 0
 359 403 375 437 437 437 c 2
 549 437 l 2
 590 437 606 426 606 398 c 0
 606 373 590 337 528 337 c 2
 501 337 l 1
 362 241 l 1
 492 100 l 1
 525 100 l 2
 557 100 582 96 582 60 c 0
EndSplineSet
KernsSLIFO: 187 -7 0 0 85 -7 0 0 83 -13 0 0 14 -80 0 0 181 -22 0 0 178 -22 0 0 79 -22 0 0 13 -53 0 0 71 -16 0 0 168 -17 0 0 69 -17 0 0 12 -67 0 0 164 -5 0 0 165 20 0 0 163 -5 0 0 160 -5 0 0 65 -5 0 0
EndChar
StartChar: l
Encoding: 108 108 76
Width: 600
Flags: W
HStem: 0 100<119 272 129 504> 524 100<267.5 362>
Fore
226 564 m 0
 226 590 241 624 305 624 c 2
 483 624 l 1
 372 100 l 1
 493 100 l 2
 524 100 550 96 550 60 c 0
 550 38 536 0 472 0 c 2
 129 0 l 2
 88 0 72 11 72 40 c 0
 72 66 88 100 150 100 c 2
 272 100 l 1
 362 524 l 1
 283 524 l 2
 252 524 226 529 226 564 c 0
EndSplineSet
KernsSLIFO: 89 -78 0 0 86 -77 0 0
EndChar
StartChar: m
Encoding: 109 109 77
Width: 600
Flags: W
HStem: 0 100<42 63 48 180 346 390.5 557 601> 337 100<96 141> 350 100<279 341.5 489.5 558.5>
Fore
62 377 m 0xc0
 62 401 78 437 141 437 c 2
 234 437 l 1xc0
 229 413 l 1
 270 441 292 450 322 450 c 0
 361 450 391 434 413 401 c 1
 452 435 487 450 527 450 c 0
 590 450 634 409 634 350 c 0
 634 337 633 330 631 319 c 2
 584 100 l 1
 618 100 635 87 635 60 c 0
 635 36 619 0 557 0 c 2
 463 0 l 1
 529 311 l 2
 531 318 531 324 531 330 c 0
 530 343 521 350 503 350 c 0
 476 350 459 341 417 305 c 1
 374 100 l 1
 407 100 424 87 424 60 c 0
 424 36 408 0 346 0 c 2
 252 0 l 1
 318 311 l 2
 320 318 321 326 321 329 c 0
 321 343 311 350 293 350 c 0xa0
 265 350 243 339 206 305 c 1
 163 100 l 1
 197 100 214 87 214 60 c 0
 214 36 198 0 136 0 c 2
 48 0 l 2
 7 0 -9 11 -9 40 c 0
 -9 75 21 100 63 100 c 1
 113 337 l 1
 79 337 62 350 62 377 c 0xc0
EndSplineSet
KernsSLIFO: 89 2 0 0 87 22 0 0 86 13 0 0 80 31 0 0
EndChar
StartChar: n
Encoding: 110 110 78
Width: 600
Flags: W
HStem: 0 100<69 201 80 117 89 232 403 432 416 548.5> 337 100<149.5 194> 350 100<371 472>
VStem: 472 103<297.5 364.5>
Fore
115 377 m 0xd0
 115 402 131 437 194 437 c 2
 288 437 l 1xd0
 278 389 l 1
 336 435 373 450 428 450 c 0
 516 450 575 401 575 328 c 0
 575 312 573 298 570 282 c 2
 531 100 l 1
 566 100 583 87 583 60 c 0
 583 36 567 0 505 0 c 2
 416 0 l 2
 375 0 359 11 359 40 c 0
 359 60 374 100 432 100 c 1
 469 278 l 2
 471 287 472 294 472 301 c 0
 472 333 444 350 394 350 c 0xb0
 348 350 313 333 255 282 c 1
 217 100 l 1
 223 100 l 2
 256 100 279 94 279 60 c 0
 279 36 263 0 201 0 c 2
 89 0 l 2
 49 0 33 11 33 40 c 0
 33 65 49 100 111 100 c 2
 117 100 l 1
 167 337 l 1
 132 337 115 350 115 377 c 0xd0
EndSplineSet
KernsSLIFO: 89 -28 0 0 87 -6 0 0 86 -17 0 0 628 -69 0 0 80 2 0 0 52 -47 0 0
EndChar
StartChar: o
Encoding: 111 111 79
Width: 600
Flags: W
HStem: -16 100<233 378.5> 350 100<299.5 461>
VStem: 84 102<117 234.5> 507 102<187.5 316>
Fore
84 174 m 0
 84 286 200 450 399 450 c 0
 523 450 609 372 609 260 c 0
 609 115 460 -16 297 -16 c 0
 169 -16 84 60 84 174 c 0
376 350 m 0
 274 350 186 277 186 192 c 0
 186 129 241 84 318 84 c 0
 419 84 507 158 507 242 c 0
 507 305 452 350 376 350 c 0
EndSplineSet
KernsSLIFO: 89 -21 0 0 88 -10 0 0 87 -3 0 0 86 -10 0 0 84 -16 0 0 628 -61 0 0 52 -39 0 0
EndChar
StartChar: p
Encoding: 112 112 80
Width: 600
Flags: W
HStem: -205 100<5 52 14 219> 10 100<296 416.5> 337 100<120 151> 350 100<324 484>
VStem: 522 101<198 324>
Fore
73 377 m 0xe8
 73 402 89 437 151 437 c 2
 267 437 l 1xe8
 257 392 l 1
 315 434 361 450 423 450 c 0xd8
 545 450 623 379 623 269 c 0
 623 127 490 10 329 10 c 0
 272 10 231 27 188 66 c 1
 152 -105 l 1
 210 -105 l 2
 243 -105 266 -110 266 -144 c 0
 266 -170 250 -205 188 -205 c 2
 14 -205 l 2
 -26 -205 -42 -194 -42 -165 c 0
 -42 -140 -26 -105 36 -105 c 2
 52 -105 l 1
 146 337 l 1
 129 337 l 2
 88 337 73 348 73 377 c 0xe8
346 110 m 0
 487 110 522 218 522 252 c 0
 522 312 473 350 398 350 c 0xd8
 250 350 221 237 221 208 c 0
 221 170 246 110 346 110 c 0
EndSplineSet
KernsSLIFO: 89 -12 0 0 84 -7 0 0
EndChar
StartChar: q
Encoding: 113 113 81
Width: 600
Flags: W
HStem: -205 100<312.5 503 508 524> 10 100<217.5 375> 337 100<602 656.5> 350 100<254.5 404>
VStem: 75 104<127.5 225>
Fore
272 -166 m 0xe8
 272 -140 288 -105 350 -105 c 2
 408 -105 l 1
 444 66 l 1
 384 26 336 10 277 10 c 0
 158 10 75 78 75 177 c 0
 75 242 136 450 373 450 c 0xd8
 435 450 474 434 514 392 c 1
 523 437 l 1
 640 437 l 2
 673 437 696 432 696 397 c 0
 696 372 680 337 618 337 c 2
 602 337 l 1
 508 -105 l 1
 524 -105 l 2
 557 -105 581 -110 581 -145 c 0
 581 -169 565 -205 503 -205 c 2
 329 -205 l 2
 296 -205 272 -200 272 -166 c 0xe8
305 110 m 0
 445 110 482 218 482 249 c 0
 482 313 435 350 356 350 c 0
 214 350 179 242 179 208 c 0
 179 148 228 110 305 110 c 0
EndSplineSet
KernsSLIFO: 85 37 0 0
EndChar
StartChar: r
Encoding: 114 114 82
Width: 600
Flags: W
HStem: 0 100<110 200 120 450> 338 99<205 250> 350 99<501.5 567.5>
Fore
159 377 m 0xc0
 159 400 174 437 236 437 c 2
 371 437 l 1xc0
 358 373 l 1
 455 434 492 449 541 449 c 0
 594 449 650 410 650 375 c 0
 650 345 619 314 588 314 c 0
 557 314 550 350 517 350 c 0xa0
 486 350 438 323 331 248 c 1
 300 100 l 1
 439 100 l 2
 470 100 496 96 496 60 c 0
 496 38 482 0 418 0 c 2
 120 0 l 2
 80 0 64 11 64 40 c 0
 64 65 79 100 141 100 c 2
 200 100 l 1
 250 338 l 1
 215 338 l 2
 175 338 159 349 159 377 c 0xc0
EndSplineSet
KernsSLIFO: 90 -24 0 0 89 10 0 0 88 2 0 0 87 21 0 0 86 22 0 0 85 15 0 0 84 15 0 0 27 -88 0 0 83 -25 0 0 82 -17 0 0 628 -45 0 0 81 -8 0 0 14 -126 0 0 80 25 0 0 183 -16 0 0 177 -16 0 0 274 15 0 0 181 -16 0 0 179 -16 0 0 178 -16 0 0 79 -16 0 0 78 5 0 0 77 31 0 0 76 -50 0 0 75 -33 0 0 74 -38 0 0 73 -30 0 0 13 -48 0 0 72 -23 0 0 71 -9 0 0 70 -20 0 0 167 -11 0 0 169 -11 0 0 168 -11 0 0 69 -11 0 0 68 -13 0 0 12 -112 0 0 26 -100 0 0 166 -18 0 0 67 -23 0 0 164 -22 0 0 159 -22 0 0 163 -22 0 0 161 -22 0 0 160 -22 0 0 65 -22 0 0
EndChar
StartChar: s
Encoding: 115 115 83
Width: 600
Flags: W
HStem: -16 100<272 373> 281 169<487 566> 350 100<327 441>
VStem: 156 113<256.5 334> 444 112<103.5 168.5>
Fore
516 281 m 0xd8
 458 281 506 350 376 350 c 0
 321 350 269 331 269 312 c 0
 269 270 427 288 507 239 c 0
 538 219 556 187 556 150 c 0
 556 57 445 -16 301 -16 c 0
 243 -16 195 -6 159 13 c 1
 145 4 137 1 124 1 c 0
 100 1 83 16 83 39 c 0
 83 45 84 52 87 67 c 2
 94 100 l 2
 104 146 124 167 159 167 c 0
 185 167 198 153 201 123 c 1
 224 97 264 84 318 84 c 0
 386 84 444 106 444 131 c 0
 444 162 393 172 328 179 c 0
 206 192 156 224 156 289 c 0
 156 379 260 450 394 450 c 0xb8
 442 450 482 442 517 424 c 1
 530 444 539 450 555 450 c 0
 577 450 592 436 592 414 c 0
 592 407 591 398 588 384 c 2
 580 347 l 2
 577 332 567 281 516 281 c 0xd8
EndSplineSet
KernsSLIFO: 84 -14 0 0 628 -62 0 0
EndChar
StartChar: t
Encoding: 116 116 84
Width: 600
Flags: W
HStem: -16 100<261.5 375> 337 100<138.5 186 286 503.5> 571 20G<264.5 301.5>
VStem: 137 104<49 120>
Fore
545 397 m 0
 545 373 529 337 467 337 c 2
 286 337 l 1
 244 141 l 2
 242 132 241 123 241 117 c 0
 241 95 267 84 318 84 c 0
 432 84 474 129 508 129 c 0
 531 129 547 113 547 89 c 0
 547 10 345 -16 291 -16 c 0
 232 -16 137 6 137 92 c 0
 137 104 138 112 140 122 c 2
 186 337 l 1
 151 337 l 2
 110 337 94 348 94 377 c 0
 94 399 105 437 172 437 c 2
 207 437 l 1
 226 525 l 2
 229 541 239 591 290 591 c 0
 313 591 330 575 330 553 c 0
 330 545 330 544 326 525 c 2
 307 437 l 1
 488 437 l 2
 519 437 545 434 545 397 c 0
EndSplineSet
KernsSLIFO: 27 -107 0 0 628 -102 0 0 181 -36 0 0 178 -36 0 0 79 -36 0 0 72 -8 0 0 168 -30 0 0 69 -30 0 0 26 -121 0 0 164 -21 0 0 165 4 0 0 163 -21 0 0 160 -21 0 0 65 -21 0 0 51 -40 0 0
EndChar
StartChar: u
Encoding: 117 117 85
Width: 600
Flags: W
HStem: -13 100<226 326> 0 100<504 548.5> 338 99<140.5 172 437 482>
VStem: 123 103<73 140>
Fore
390 377 m 0xb0
 390 403 406 437 468 437 c 2
 603 437 l 1
 531 100 l 1
 566 100 583 87 583 61 c 0
 583 36 567 0 504 0 c 2
 410 0 l 1x70
 420 48 l 1
 360 1 326 -13 270 -13 c 0
 182 -13 123 36 123 110 c 0
 123 127 125 140 128 156 c 2
 166 338 l 1
 150 338 l 2
 110 338 94 349 94 378 c 0
 94 403 109 437 172 437 c 2
 288 437 l 1
 229 159 l 2
 227 151 226 144 226 136 c 0
 226 105 253 87 301 87 c 0
 351 87 380 101 443 155 c 1
 482 338 l 1
 447 338 l 2
 406 338 390 349 390 377 c 0xb0
EndSplineSet
KernsSLIFO: 628 -58 0 0
EndChar
StartChar: v
Encoding: 118 118 86
Width: 600
Flags: W
HStem: 0 21G<247 350> 337 100<138 151 159 307.5 461 636>
Fore
347 397 m 0
 347 373 332 337 270 337 c 2
 264 337 l 1
 327 122 l 1
 481 337 l 1
 471 337 l 2
 430 337 414 348 414 377 c 0
 414 402 430 437 492 437 c 2
 626 437 l 2
 659 437 683 432 683 398 c 0
 683 372 667 337 605 337 c 2
 589 337 l 1
 350 0 l 1
 247 0 l 1
 151 337 l 1
 138 337 l 2
 97 337 81 348 81 377 c 0
 81 402 97 437 159 437 c 2
 291 437 l 2
 324 437 347 432 347 397 c 0
EndSplineSet
KernsSLIFO: 27 -74 0 0 83 -15 0 0 14 -159 0 0 183 -10 0 0 177 -11 0 0 181 -11 0 0 178 -11 0 0 79 -11 0 0 76 -79 0 0 13 -28 0 0 71 -2 0 0 167 -6 0 0 169 -6 0 0 168 -6 0 0 69 -6 0 0 12 -139 0 0 26 -86 0 0 67 -17 0 0 162 -7 0 0 164 -7 0 0 159 -7 0 0 165 15 0 0 163 -7 0 0 161 -7 0 0 160 -7 0 0 65 -7 0 0
EndChar
StartChar: w
Encoding: 119 119 87
Width: 600
Flags: W
HStem: 0 21G<140 234 373 465> 338 99<233 268.5 504 535>
Fore
627 437 m 2
 658 437 684 434 684 397 c 0
 684 385 675 343 620 338 c 1
 465 0 l 1
 373 0 l 1
 340 181 l 1
 234 0 l 1
 140 0 l 1
 127 338 l 1
 97 339 82 352 82 377 c 0
 82 402 97 437 160 437 c 2
 252 437 l 2
 285 437 308 432 308 398 c 0
 308 372 293 338 233 338 c 1
 239 185 l 1
 332 343 l 1
 421 343 l 1
 448 185 l 1
 521 338 l 1
 514 338 l 2
 481 338 457 343 457 377 c 0
 457 402 473 437 535 437 c 2
 627 437 l 2
EndSplineSet
KernsSLIFO: 27 -74 0 0 83 -13 0 0 14 -112 0 0 177 -4 0 0 181 -4 0 0 178 -4 0 0 79 -4 0 0 76 -51 0 0 13 -1 0 0 71 2 0 0 12 -93 0 0 26 -86 0 0 67 -8 0 0 162 -6 0 0 164 -6 0 0 159 -6 0 0 165 22 0 0 163 -6 0 0 161 -6 0 0 160 -7 0 0 65 -6 0 0
EndChar
StartChar: x
Encoding: 120 120 88
Width: 600
Flags: W
HStem: 0 21G<87 197 400 512> 417 20G<198 291 492 584>
Fore
584 437 m 2
 617 437 641 432 641 398 c 0
 641 365 615 341 576 337 c 1
 421 227 l 1
 545 100 l 1
 575 99 590 86 590 60 c 0
 590 36 574 0 512 0 c 2
 400 0 l 2
 359 0 343 11 343 40 c 0
 343 67 364 92 395 100 c 1
 333 161 l 1
 246 100 l 1
 269 89 276 81 276 62 c 0
 276 35 260 0 197 0 c 2
 87 0 l 2
 46 0 30 11 30 40 c 0
 30 52 40 95 96 100 c 1
 268 228 l 1
 163 337 l 1
 134 340 120 353 120 377 c 0
 120 402 136 437 198 437 c 2
 291 437 l 2
 324 437 347 432 347 397 c 0
 347 377 333 355 310 342 c 1
 361 293 l 1
 432 343 l 1
 419 354 414 363 414 376 c 0
 414 401 430 437 492 437 c 2
 584 437 l 2
EndSplineSet
KernsSLIFO: 81 -9 0 0 79 -12 0 0 168 -7 0 0 69 -7 0 0 67 -16 0 0 65 -1 0 0
EndChar
StartChar: y
Encoding: 121 121 89
Width: 600
Flags: W
HStem: -205 100<23.5 289> 337 100<255 286.5 482 513>
Fore
-13 -165 m 0
 -13 -141 3 -105 65 -105 c 2
 165 -105 l 1
 243 3 l 1
 142 337 l 1
 115 341 102 353 102 377 c 0
 102 402 118 437 180 437 c 2
 270 437 l 2
 303 437 326 432 326 398 c 0
 326 362 297 338 255 337 c 1
 323 114 l 1
 489 337 l 1
 484 337 l 2
 452 337 435 351 435 377 c 0
 435 402 451 437 513 437 c 2
 605 437 l 2
 636 437 662 434 662 397 c 0
 662 365 636 341 599 337 c 1
 274 -105 l 1
 279 -105 l 2
 312 -105 336 -110 336 -144 c 0
 336 -169 320 -205 258 -205 c 2
 44 -205 l 2
 3 -205 -13 -194 -13 -165 c 0
EndSplineSet
KernsSLIFO: 27 -84 0 0 83 -24 0 0 14 -158 0 0 183 -19 0 0 177 -20 0 0 181 -20 0 0 178 -20 0 0 79 -20 0 0 76 -79 0 0 13 -23 0 0 71 -11 0 0 167 -14 0 0 169 -14 0 0 168 -14 0 0 69 -14 0 0 12 -137 0 0 26 -96 0 0 67 -25 0 0 162 -17 0 0 164 -17 0 0 159 -17 0 0 165 4 0 0 163 -17 0 0 161 -17 0 0 160 -18 0 0 65 -17 0 0
EndChar
StartChar: z
Encoding: 122 122 90
Width: 600
Flags: W
HStem: 0 100<85 519> 337 100<190 599>
Fore
269 337 m 1
 265 321 258 262 203 262 c 0
 180 262 163 278 163 299 c 0
 163 305 165 319 167 328 c 2
 190 437 l 5
 599 437 l 1
 582 356 l 1
 265 100 l 1
 441 100 l 1
 451 135 472 154 502 154 c 0
 525 154 542 138 542 117 c 0
 542 110 541 103 538 88 c 2
 519 0 l 1
 85 0 l 1
 103 83 l 1
 417 337 l 1
 269 337 l 1
EndSplineSet
EndChar
StartChar: braceleft
Encoding: 123 123 91
Width: 600
Flags: W
HStem: 603 20G<475.5 525>
Fore
283 169 m 0
 283 198 217 178 217 227 c 0
 217 262 240 286 278 290 c 0
 304 293 312 300 318 328 c 2
 353 492 l 2
 368 563 440 623 511 623 c 0
 539 623 556 608 556 583 c 0
 556 552 529 522 495 522 c 0
 468 522 457 513 451 485 c 2
 418 328 l 2
 408 284 398 266 370 240 c 1
 381 222 386 209 386 194 c 0
 386 184 383 164 378 142 c 2
 345 -15 l 2
 344 -21 343 -27 343 -30 c 0
 343 -68 413 -34 413 -91 c 0
 413 -126 383 -153 345 -153 c 0
 286 -153 241 -108 241 -48 c 0
 241 -39 242 -31 244 -22 c 2
 280 151 l 2
 282 158 283 165 283 169 c 0
EndSplineSet
EndChar
StartChar: bar
Encoding: 124 124 92
Width: 600
Flags: W
HStem: 602 20G<408 443.5>
Fore
468 556 m 2
 331 -87 l 2
 319 -147 282 -153 267 -153 c 0
 244 -153 227 -137 227 -116 c 0
 227 -109 228 -100 231 -87 c 2
 368 556 l 2
 371 571 384 622 432 622 c 0
 455 622 472 606 472 584 c 0
 472 578 471 570 468 556 c 2
EndSplineSet
EndChar
StartChar: braceright
Encoding: 125 125 93
Width: 600
Flags: W
HStem: 603 20G<336 384.5>
Fore
417 301 m 0
 417 272 483 292 483 243 c 0
 483 208 460 184 422 180 c 0
 396 177 388 169 382 142 c 2
 347 -22 l 2
 332 -93 260 -153 189 -153 c 0
 161 -153 144 -138 144 -113 c 0
 144 -82 171 -52 205 -52 c 0
 232 -52 243 -43 249 -15 c 2
 282 142 l 2
 292 186 302 204 330 230 c 1
 319 248 314 261 314 276 c 0
 314 286 317 306 322 328 c 2
 355 485 l 2
 356 491 357 497 357 500 c 0
 357 538 287 503 287 562 c 0
 287 596 317 623 355 623 c 0
 414 623 459 578 459 518 c 0
 459 509 458 501 456 492 c 2
 420 319 l 2
 418 312 417 305 417 301 c 0
EndSplineSet
EndChar
StartChar: asciitilde
Encoding: 126 126 94
Width: 600
Flags: W
HStem: 179 105<387.5 465> 281 104<257 339>
Fore
449 284 m 0x80
 481 284 519 364 565 364 c 0
 588 364 606 347 606 324 c 0
 606 305 596 288 571 262 c 0
 506 197 474 179 428 179 c 0x80
 347 179 301 281 271 281 c 0
 244 281 196 201 156 201 c 0
 133 201 114 219 114 240 c 0
 114 289 219 385 295 385 c 0x40
 383 385 414 284 449 284 c 0x80
EndSplineSet
EndChar
StartChar: cent
Encoding: 162 162 97
Width: 600
Flags: W
VStem: 144 102<224 325.5>
Fore
351 197 m 0
 425 197 469 245 501 245 c 0
 523 245 541 227 541 204 c 0
 541 158 472 116 372 99 c 1
 356 22 l 2
 342 -39 306 -44 291 -44 c 0
 269 -44 251 -27 251 -7 c 0
 251 1 251 2 255 22 c 0
 273 103 l 1
 191 124 144 183 144 265 c 0
 144 380 237 489 361 517 c 1
 376 571 372 661 442 661 c 0
 465 661 482 645 482 623 c 0
 482 616 481 614 477 594 c 0
 463 527 l 1
 493 523 514 515 531 503 c 1
 540 506 546 507 552 507 c 0
 576 507 593 491 593 469 c 0
 593 449 577 370 561 354 c 0
 549 341 531 333 516 333 c 0
 477 333 478 360 477 384 c 0
 476 414 456 427 410 427 c 0
 322 427 246 363 246 288 c 0
 246 235 290 197 351 197 c 0
EndSplineSet
EndChar
StartChar: sterling
Encoding: 163 163 98
Width: 600
Flags: W
HStem: 0 100<100.5 471> 243 100<133 219 319 403.5> 444 21G<480.5 516.5> 498 100<365.5 461>
VStem: 212 103<378.5 444.5>
Fore
444 303 m 0
 444 279 428 243 366 243 c 2
 320 243 l 1
 309 180 297 148 267 100 c 1
 471 100 l 1
 482 130 501 146 530 146 c 0
 554 146 571 131 571 108 c 0
 571 45 521 0 442 0 c 2
 121 0 l 2
 80 0 64 11 64 40 c 0
 64 72 84 94 126 100 c 0
 170 106 204 156 219 243 c 1
 150 243 l 2
 116 243 93 248 93 283 c 0
 93 306 105 343 172 343 c 2
 216 343 l 1
 213 361 212 372 212 385 c 0
 212 504 306 598 425 598 c 0
 497 598 563 553 563 505 c 0
 563 474 532 444 501 444 c 0
 460 444 470 498 404 498 c 0
 351 498 315 462 315 409 c 0
 315 399 317 363 319 343 c 1
 387 343 l 2
 420 343 444 338 444 303 c 0
EndSplineSet
EndChar
StartChar: currency
Encoding: 164 164 99
Width: 600
Flags: W
HStem: 97 100<302.5 371> 388 100<352 421.5>
VStem: 459 102<283.5 335>
Fore
213 388 m 1
 199 406 171 438 171 461 c 0
 171 489 204 519 234 519 c 0
 251 519 257 515 275 493 c 2
 301 462 l 1
 342 481 368 488 403 488 c 0
 440 488 462 482 495 461 c 1
 532 491 l 2
 559 513 568 517 585 517 c 0
 609 517 626 500 626 476 c 0
 626 456 618 444 589 420 c 2
 551 388 l 1
 558 363 561 341 561 326 c 0
 561 286 543 240 510 196 c 1
 535 162 l 2
 549 144 553 136 553 124 c 0
 553 95 520 64 488 64 c 0
 472 64 465 69 448 90 c 2
 421 122 l 1
 380 103 355 97 320 97 c 0
 285 97 262 103 229 123 c 1
 190 91 l 2
 162 68 155 64 137 64 c 0
 114 64 96 81 96 105 c 0
 96 125 104 137 133 162 c 2
 173 196 l 1
 166 221 163 243 163 258 c 0
 163 297 181 344 213 388 c 1
382 388 m 0
 322 388 266 332 266 273 c 0
 266 230 298 197 341 197 c 0
 401 197 459 254 459 313 c 0
 459 357 427 388 382 388 c 0
EndSplineSet
EndChar
StartChar: yen
Encoding: 165 165 100
Width: 600
Flags: W
HStem: 0 100<192 272 204 428> 135 56<182 291 379 488> 225 56<192 298 398 507> 480 100<180 211 616 655>
Fore
303 580 m 2
 335 580 360 577 360 541 c 0
 360 513 338 487 310 481 c 1
 375 348 l 1
 498 481 l 1
 477 487 467 500 467 520 c 0
 467 546 483 580 545 580 c 2
 636 580 l 2
 674 580 693 574 693 540 c 0
 693 518 678 480 618 480 c 2
 616 480 l 1
 435 281 l 1
 507 281 l 2
 526 281 533 275 533 259 c 0
 533 239 517 225 495 225 c 2
 398 225 l 1
 391 191 l 1
 488 191 l 2
 507 191 514 185 514 170 c 0
 514 149 499 135 476 135 c 2
 379 135 l 1
 372 100 l 1
 418 100 l 2
 450 100 475 98 475 61 c 0
 475 37 459 0 397 0 c 2
 204 0 l 2
 163 0 147 11 147 40 c 0
 147 63 159 100 225 100 c 2
 272 100 l 1
 279 135 l 1
 182 135 l 2
 163 135 156 141 156 157 c 0
 156 177 171 191 194 191 c 2
 291 191 l 1
 298 225 l 1
 201 225 l 2
 183 225 176 231 176 247 c 0
 176 267 191 281 213 281 c 2
 285 281 l 1
 189 480 l 1
 181 480 l 2
 150 480 133 494 133 520 c 0
 133 546 149 580 211 580 c 2
 303 580 l 2
EndSplineSet
EndChar
StartChar: brokenbar
Encoding: 166 166 101
Width: 600
Flags: W
HStem: 602 20G<408 443.5>
Fore
468 556 m 2
 425 353 l 2
 422 340 413 287 361 287 c 0
 338 287 321 303 321 324 c 0
 321 330 323 344 325 353 c 2
 368 556 l 2
 371 571 384 622 432 622 c 0
 455 622 472 606 472 584 c 0
 472 578 471 570 468 556 c 2
374 116 m 2
 331 -87 l 2
 328 -99 319 -153 267 -153 c 0
 244 -153 227 -137 227 -116 c 0
 227 -109 228 -100 231 -87 c 0
 274 116 l 2
 278 131 290 182 339 182 c 0
 361 182 378 166 378 145 c 0
 378 138 376 125 374 116 c 2
EndSplineSet
EndChar
StartChar: section
Encoding: 167 167 102
Width: 600
Flags: W
HStem: -170 88<45 351.5> 493 90<356.5 643>
VStem: 93 100<237 295.5> 222 88<413 448.5> 376 89<-36.5 3.5> 494 100<116 179>
Fore
222 415 m 0
 222 479 295 583 418 583 c 2
 643 583 l 1
 616 456 l 2
 608 418 591 401 560 401 c 0
 541 401 525 415 525 432 c 0
 525 452 532 475 536 493 c 1
 392 493 l 2
 350 493 310 464 310 433 c 0
 310 410 340 379 397 342 c 2
 478 291 l 2
 569 233 594 204 594 154 c 0
 594 85 542 27 464 10 c 1
 465 7 465 4 465 3 c 0
 465 -36 427 -170 276 -170 c 2
 45 -170 l 1
 72 -43 l 2
 80 -6 98 12 128 12 c 0
 149 12 164 -2 164 -20 c 0
 164 -33 155 -66 152 -82 c 1
 297 -82 l 2
 337 -82 376 -52 376 -21 c 0
 376 2 345 34 291 69 c 2
 198 130 l 2
 123 178 93 215 93 259 c 0
 93 325 144 382 223 402 c 1
 222 408 222 411 222 415 c 0
261 326 m 1
 247 326 l 1
 217 325 193 307 193 284 c 0
 193 260 213 237 262 205 c 2
 352 147 l 1
 398 114 412 103 425 88 c 1
 443 88 l 1
 472 89 494 106 494 126 c 0
 494 150 466 181 417 214 c 2
 329 271 l 2
 300 290 291 297 261 326 c 1
EndSplineSet
EndChar
StartChar: dieresis
Encoding: 168 168 103
Width: 600
Flags: W
HStem: 534 120<295.5 349.5 503.5 557.5>
Fore
335 654 m 0
 364 654 384 634 384 606 c 0
 384 569 348 534 309 534 c 0
 282 534 261 555 261 582 c 0
 261 618 298 654 335 654 c 0
543 654 m 0
 572 654 592 634 592 606 c 0
 592 569 556 534 517 534 c 0
 490 534 469 555 469 582 c 0
 469 618 506 654 543 654 c 0
EndSplineSet
EndChar
StartChar: copyright
Encoding: 169 169 104
Width: 600
Flags: W
HStem: -15 73<222.5 392> 118 71<286 385.5> 395 71<328 404.5> 525 73<330.5 500>
VStem: 48 75<158 324> 189 73<202 266.5> 600 75<259.5 425>
Fore
344 189 m 0
 427 189 413 229 452 229 c 0
 469 229 481 217 481 200 c 0
 481 159 404 118 327 118 c 0
 245 118 189 166 189 238 c 0
 189 264 196 284 200 305 c 0
 219 397 301 466 390 466 c 0
 419 466 439 461 465 447 c 1
 472 460 483 466 497 466 c 0
 513 466 524 455 524 441 c 0
 524 435 522 428 521 422 c 0
 513 386 509 324 465 324 c 0
 444 324 437 334 437 363 c 0
 437 380 409 395 377 395 c 0
 279 395 262 281 262 252 c 0
 264 211 293 189 344 189 c 0
429 598 m 0
 571 598 675 495 675 355 c 0
 675 164 491 -15 293 -15 c 0
 152 -15 48 88 48 228 c 0
 48 420 232 598 429 598 c 0
412 525 m 0
 263 525 123 389 123 243 c 0
 123 136 202 58 310 58 c 0
 460 58 600 194 600 340 c 0
 600 447 521 525 412 525 c 0
EndSplineSet
EndChar
StartChar: ordfeminine
Encoding: 170 170 105
Width: 600
Flags: W
HStem: 182 77<215 502.5> 273 79<273 342.5> 284 78<500 518> 417 70<315.5 406> 517 78<382.5 457>
VStem: 195 93<330.5 382> 459 80<492 540>
Fore
266 532 m 0xde
 266 582 358 595 420 595 c 0
 494 595 539 565 539 515 c 0
 539 504 539 499 537 490 c 2
 509 362 l 1
 516 362 l 2
 548 362 559 354 559 331 c 0
 559 303 536 284 500 284 c 2
 415 284 l 1xbe
 417 295 l 1
 374 279 343 273 305 273 c 0
 241 273 195 307 195 354 c 0
 195 386 235 487 396 487 c 0
 416 487 429 486 457 482 c 1
 458 486 459 490 459 494 c 0
 459 511 443 517 406 517 c 0
 359 517 314 501 296 501 c 0
 279 501 266 514 266 532 c 0xde
436 383 m 1
 442 410 l 1
 410 416 396 417 377 417 c 0
 332 417 288 394 288 370 c 0
 288 360 305 352 326 352 c 0xde
 359 352 404 365 436 383 c 1
531 229 m 0
 531 209 520 182 471 182 c 2
 215 182 l 2
 179 182 170 186 170 204 c 0
 170 246 184 259 232 259 c 2
 486 259 l 2
 519 259 531 251 531 229 c 0
EndSplineSet
EndChar
StartChar: guillemotleft
Encoding: 171 171 106
Width: 600
Flags: W
Fore
222 218 m 1
 343 77 l 1
 350 70 354 60 354 55 c 0
 354 38 334 20 314 20 c 0
 305 20 301 22 289 33 c 2
 80 218 l 1
 367 402 l 2
 384 413 389 415 398 415 c 0
 414 415 425 405 425 391 c 0
 425 380 419 370 403 358 c 2
 222 218 l 1
451 218 m 1
 572 77 l 2
 579 69 583 61 583 54 c 0
 583 38 563 20 543 20 c 0
 534 20 530 22 518 33 c 2
 309 218 l 1
 596 402 l 2
 613 413 618 415 627 415 c 0
 643 415 654 405 654 391 c 0
 654 380 648 370 632 358 c 2
 451 218 l 1
EndSplineSet
EndChar
StartChar: logicalnot
Encoding: 172 172 107
Width: 600
Flags: W
HStem: 345 100<161.5 560>
Fore
125 385 m 0
 125 407 136 445 203 445 c 2
 560 445 l 1
 504 181 l 2
 501 168 492 115 440 115 c 0
 417 115 400 131 400 152 c 0
 400 159 402 170 404 181 c 0
 439 345 l 1
 182 345 l 2
 141 345 125 356 125 385 c 0
EndSplineSet
EndChar
StartChar: registered
Encoding: 174 174 109
Width: 600
Flags: W
HStem: -15 73<222.5 392> 126 71<223.5 239 225 323> 387 71<351 422> 525 73<330.5 500.5>
VStem: 48 75<158 324> 390 92<126 178> 424 72<348.5 399.5> 600 75<259 425>
Fore
321 246 m 1xfd
 311 197 l 1
 335 197 346 188 346 169 c 0
 346 144 324 126 294 126 c 2
 225 126 l 2
 200 126 187 135 187 154 c 0
 187 179 208 197 239 197 c 1
 279 387 l 1
 254 388 243 396 243 416 c 0
 243 441 264 458 296 458 c 2
 389 458 l 2
 455 458 496 426 496 373 c 0xfb
 496 329 464 287 415 266 c 1
 434 244 439 235 453 197 c 1
 473 195 482 187 482 169 c 0
 482 144 461 126 430 126 c 2
 390 126 l 1
 388 175 362 233 336 246 c 1
 321 246 l 1xfd
336 316 m 1
 362 316 l 2
 395 316 424 337 424 360 c 0
 424 377 406 387 376 387 c 2
 351 387 l 1
 336 316 l 1
429 598 m 0
 572 598 675 495 675 355 c 0
 675 163 491 -15 293 -15 c 0
 152 -15 48 88 48 228 c 0
 48 420 232 598 429 598 c 0
413 525 m 0
 263 525 123 389 123 243 c 0
 123 136 202 58 310 58 c 0
 460 58 600 194 600 340 c 0
 600 447 521 525 413 525 c 0
EndSplineSet
EndChar
StartChar: macron
Encoding: 175 175 110
Width: 600
Flags: W
HStem: 546 80<277.5 555>
Fore
311 626 m 2
 555 626 l 2
 588 626 600 617 600 593 c 0
 600 566 574 546 538 546 c 2
 294 546 l 2
 261 546 249 554 249 579 c 0
 249 607 274 626 311 626 c 2
EndSplineSet
EndChar
StartChar: degree
Encoding: 176 176 111
Width: 600
Flags: W
HStem: 243 61<309.5 406> 535 61<371.5 468.5>
VStem: 210 62<342.5 438.5> 506 62<401.5 497>
Fore
428 596 m 0
 509 596 568 537 568 457 c 0
 568 346 462 243 350 243 c 0
 269 243 210 302 210 383 c 0
 210 494 315 596 428 596 c 0
414 535 m 0
 341 535 272 468 272 396 c 0
 272 343 310 304 363 304 c 0
 437 304 506 372 506 444 c 0
 506 497 467 535 414 535 c 0
EndSplineSet
EndChar
StartChar: plusminus
Encoding: 177 177 112
Width: 600
Flags: W
HStem: 0 100<88.5 513> 330 100<179 342 420 601.5> 604 20G<416 444.5>
Fore
640 390 m 0
 640 366 624 330 562 330 c 2
 420 330 l 1
 399 230 l 2
 396 218 387 164 335 164 c 0
 312 164 295 180 295 201 c 0
 295 210 295 211 299 230 c 2
 321 330 l 1
 179 330 l 2
 138 330 122 341 122 370 c 0
 122 393 134 430 200 430 c 2
 342 430 l 1
 369 558 l 1
 378 602 399 624 433 624 c 0
 456 624 473 608 473 586 c 0
 473 579 472 574 469 558 c 0
 442 430 l 1
 583 430 l 2
 620 430 640 425 640 390 c 0
52 40 m 0
 52 63 64 100 130 100 c 2
 513 100 l 2
 550 100 570 95 570 60 c 0
 570 36 554 0 492 0 c 2
 109 0 l 2
 68 0 52 11 52 40 c 0
EndSplineSet
EndChar
StartChar: twosuperior
Encoding: 178 178 113
Width: 600
Flags: W
HStem: 247 99<459.5 482> 247 67<202 430> 570 67<375.5 462>
VStem: 470 68<510 570>
Fore
274 526 m 0x70
 274 548 328 637 430 637 c 0
 494 637 538 598 538 542 c 0
 538 478 513 451 321 314 c 1
 430 314 l 1x70
 437 335 450 346 469 346 c 0
 484 346 496 335 496 321 c 0
 496 317 495 309 494 303 c 0
 482 247 l 1xb0
 202 247 l 1
 217 315 l 1
 452 481 470 497 470 529 c 0
 470 553 447 570 415 570 c 0
 336 570 347 500 301 500 c 0
 286 500 274 511 274 526 c 0x70
EndSplineSet
EndChar
StartChar: threesuperior
Encoding: 179 179 114
Width: 600
Flags: W
HStem: 238 67<300 390.5> 570 67<383.5 470>
VStem: 451 68<336.5 402.5> 475 68<516 575.5>
Fore
259 326 m 0xe0
 280 326 271 305 347 305 c 0
 413 305 451 327 451 367 c 0xe0
 451 438 346 397 346 444 c 0
 346 465 366 484 389 484 c 2
 413 484 l 2
 445 484 475 510 475 536 c 0
 475 557 454 570 420 570 c 0
 347 570 358 533 321 533 c 0
 306 533 294 545 294 559 c 0
 294 599 364 637 438 637 c 0
 502 637 543 603 543 548 c 0xd0
 543 484 489 464 473 448 c 1
 503 431 519 404 519 374 c 0
 519 299 446 238 335 238 c 0
 265 238 218 257 218 285 c 0
 218 306 238 326 259 326 c 0xe0
EndSplineSet
EndChar
StartChar: acute
Encoding: 180 180 115
Width: 600
Flags: W
Fore
585 624 m 2
 427 512 l 2
 409 499 402 496 392 496 c 0
 374 496 362 508 362 526 c 0
 362 541 372 554 393 569 c 2
 551 680 l 2
 569 693 575 696 586 696 c 0
 604 696 616 684 616 667 c 0
 616 652 607 639 585 624 c 2
EndSplineSet
EndChar
StartChar: mu
Encoding: 181 181 116
Width: 600
Flags: W
HStem: -16 100<239 298.5> 0 100<504 549> 338 99<437 482>
Fore
583 61 m 0x60
 583 37 567 0 504 0 c 2
 410 0 l 1x60
 415 23 l 1
 354 -4 301 -16 249 -16 c 0
 229 -16 212 -13 193 -7 c 1
 176 -87 l 2
 164 -147 126 -153 112 -153 c 0
 89 -153 72 -137 72 -116 c 0
 72 -109 73 -100 76 -87 c 0
 166 338 l 1
 150 338 l 2
 110 338 94 349 94 377 c 0
 94 406 125 438 153 438 c 0
 156 438 l 2
 171 437 l 1
 288 437 l 1
 225 144 l 2
 223 134 222 125 222 120 c 0
 222 98 243 84 276 84 c 0xa0
 321 84 368 100 439 138 c 1
 482 338 l 1
 447 338 l 2
 406 338 390 349 390 377 c 0
 390 403 406 437 468 437 c 2
 603 437 l 1
 531 100 l 1
 567 100 583 88 583 61 c 0x60
EndSplineSet
EndChar
StartChar: paragraph
Encoding: 182 182 117
Width: 600
Flags: W
HStem: -174 78<137.5 291 447 493.5> 505 78<429 642.5>
VStem: 123 114<295 410>
Fore
672 552 m 0
 672 531 660 505 610 505 c 2
 575 505 l 1
 447 -96 l 1
 484 -96 l 2
 517 -96 529 -104 529 -127 c 0
 529 -144 520 -174 467 -174 c 2
 374 -174 l 2
 353 -174 345 -165 341 -140 c 1
 323 -169 315 -174 291 -174 c 2
 154 -174 l 2
 121 -174 108 -165 108 -143 c 0
 108 -123 120 -96 171 -96 c 2
 249 -96 l 1
 309 185 l 1
 197 197 123 256 123 334 c 0
 123 486 263 583 429 583 c 2
 626 583 l 2
 659 583 672 574 672 552 c 0
326 266 m 1
 376 500 l 1
 310 488 257 449 248 405 c 2
 239 361 l 2
 238 356 237 351 237 347 c 0
 237 308 269 279 326 266 c 1
499 505 m 1
 455 505 l 1
 327 -96 l 1
 339 -102 343 -108 344 -124 c 1
 352 -109 359 -102 371 -96 c 1
 499 505 l 1
EndSplineSet
EndChar
StartChar: periodcentered
Encoding: 183 183 118
Width: 600
Flags: W
HStem: 214 132<337 382>
Fore
354 214 m 2
 337 214 l 2
 305 214 283 236 283 267 c 0
 283 307 323 346 365 346 c 2
 382 346 l 2
 414 346 436 324 436 294 c 0
 436 253 396 214 354 214 c 2
EndSplineSet
EndChar
StartChar: cedilla
Encoding: 184 184 119
Width: 600
Flags: W
HStem: -229 70<233.5 287> -100 100<260 278>
VStem: 309 72<-141.5 -88>
Fore
187 -131 m 0
 203 -131 229 -159 267 -159 c 0
 293 -159 309 -147 309 -128 c 0
 309 -110 293 -100 263 -100 c 0
 257 -100 252 -100 240 -102 c 1
 262 0 l 1
 332 0 l 1
 323 -41 l 1
 365 -50 381 -68 381 -108 c 0
 381 -175 323 -229 251 -229 c 0
 216 -229 143 -211 143 -174 c 0
 143 -152 164 -131 187 -131 c 0
EndSplineSet
EndChar
StartChar: onesuperior
Encoding: 185 185 120
Width: 600
Flags: W
HStem: 247 67<260 333 261 458.5>
Fore
469 638 m 1
 400 314 l 1
 457 314 l 2
 484 314 494 307 494 288 c 0
 494 263 474 247 443 247 c 2
 261 247 l 2
 236 247 224 255 224 274 c 0
 224 299 244 314 276 314 c 2
 333 314 l 1
 383 551 l 1
 333 539 l 2
 321 536 317 535 311 535 c 0
 297 535 287 546 287 562 c 0
 287 584 300 596 330 604 c 2
 469 638 l 1
EndSplineSet
EndChar
StartChar: ordmasculine
Encoding: 186 186 121
Width: 600
Flags: W
HStem: 182 77<212 500> 273 78<318.5 413.5> 517 78<374.5 467.5>
VStem: 219 81<363 449> 485 81<413 501.5>
Fore
427 595 m 0
 508 595 566 540 566 463 c 0
 566 363 468 273 359 273 c 0
 278 273 219 326 219 400 c 0
 219 498 322 595 427 595 c 0
411 517 m 0
 356 517 300 466 300 416 c 0
 300 380 334 351 375 351 c 0
 431 351 485 397 485 445 c 0
 485 487 454 517 411 517 c 0
528 229 m 0
 528 208 516 182 467 182 c 2
 212 182 l 2
 181 182 168 191 168 213 c 0
 168 233 180 259 229 259 c 2
 484 259 l 2
 516 259 528 251 528 229 c 0
EndSplineSet
EndChar
StartChar: guillemotright
Encoding: 187 187 122
Width: 600
Flags: W
Fore
476 217 m 1
 355 358 l 1
 348 365 344 375 344 380 c 0
 344 397 364 415 384 415 c 0
 393 415 397 413 409 402 c 2
 617 217 l 1
 331 33 l 2
 314 22 309 20 300 20 c 0
 284 20 273 30 273 44 c 0
 273 55 279 65 295 77 c 2
 476 217 l 1
246 217 m 1
 125 358 l 2
 118 366 114 374 114 381 c 0
 114 397 134 415 154 415 c 0
 163 415 167 413 179 402 c 2
 387 217 l 1
 101 33 l 2
 84 22 79 20 70 20 c 0
 54 20 43 30 43 44 c 0
 43 55 49 65 65 77 c 2
 246 217 l 1
EndSplineSet
KernsSLIFO: 57 -96 1 0 55 -35 1 0 54 -80 1 0 52 -81 1 0 132 -42 1 0 131 -42 1 0 128 -42 1 0 133 -39 1 0 33 -42 1 0
EndChar
StartChar: onequarter
Encoding: 188 188 123
Width: 600
Flags: W
HStem: 0 67<493.5 539> 83 67<478 557> 247 67<61 134 62 259> 567 20G<567.5 582.5>
Fore
270 638 m 1
 201 314 l 1
 258 314 l 2
 285 314 295 307 295 288 c 0
 295 263 274 247 244 247 c 2
 62 247 l 2
 37 247 25 255 25 274 c 0
 25 299 45 314 77 314 c 2
 134 314 l 1
 184 551 l 1
 134 539 l 2
 122 536 118 535 112 535 c 0
 98 535 88 546 88 562 c 0
 88 584 101 597 131 604 c 2
 270 638 l 1
586 528 m 2
 229 77 l 2
 214 58 204 51 189 51 c 0
 173 51 162 62 162 78 c 0
 162 88 165 93 178 110 c 2
 535 561 l 2
 551 581 560 587 575 587 c 0
 590 587 602 575 602 560 c 0
 602 552 597 542 586 528 c 2
673 380 m 1
 624 150 l 1
 645 149 655 141 655 124 c 0
 655 101 637 85 610 83 c 1
 606 67 l 1
 627 66 637 57 637 40 c 0
 637 16 616 0 585 0 c 2
 506 0 l 2
 481 0 470 8 470 27 c 0
 470 52 489 67 520 67 c 2
 539 67 l 1
 543 83 l 1
 380 83 l 1
 391 138 l 1
 589 380 l 1
 673 380 l 1
557 150 m 1
 584 279 l 1
 478 150 l 1
 557 150 l 1
EndSplineSet
EndChar
StartChar: onehalf
Encoding: 189 189 124
Width: 600
Flags: W
HStem: 0 99<606.5 629> 0 67<349 577> 247 67<61 134 62 259> 323 67<522.5 609> 567 20G<567.5 582.5>
VStem: 617 68<263 323>
Fore
270 638 m 1x3c
 201 314 l 1
 258 314 l 2
 285 314 295 307 295 288 c 0
 295 263 274 247 244 247 c 2
 62 247 l 2
 37 247 25 255 25 274 c 0
 25 299 45 314 77 314 c 2
 134 314 l 1
 184 551 l 1
 134 539 l 2
 122 536 118 535 112 535 c 0
 98 535 88 546 88 562 c 0
 88 584 101 597 131 604 c 2
 270 638 l 1x3c
585 528 m 2
 229 77 l 2
 214 58 203 51 189 51 c 0
 173 51 162 62 162 78 c 0
 162 87 165 94 178 110 c 2
 535 561 l 1
 550 581 560 587 575 587 c 0
 590 587 602 575 602 560 c 0
 602 551 598 544 585 528 c 2
421 279 m 0
 421 303 475 390 577 390 c 0
 641 390 685 351 685 295 c 0
 685 231 659 203 468 67 c 1
 577 67 l 1x7c
 584 88 597 99 616 99 c 0
 631 99 643 88 643 74 c 0
 643 70 642 62 641 56 c 0
 629 0 l 1xbc
 349 0 l 1x7c
 363 68 l 1
 599 234 617 250 617 282 c 0
 617 306 594 323 562 323 c 0
 483 323 494 253 448 253 c 0
 433 253 421 264 421 279 c 0
EndSplineSet
EndChar
StartChar: threequarters
Encoding: 190 190 125
Width: 600
Flags: W
HStem: 0 67<493.5 540> 83 67<477 557> 238 67<100 192> 570 67<183.5 270>
VStem: 251 68<337 402.5> 275 68<516 575.5>
Fore
59 326 m 0xf8
 82 326 69 305 147 305 c 0
 213 305 251 327 251 367 c 0xf8
 251 438 146 397 146 444 c 0
 146 465 166 484 189 484 c 2
 213 484 l 2
 245 484 275 510 275 536 c 0
 275 557 254 570 220 570 c 0
 147 570 158 533 121 533 c 0
 106 533 94 545 94 559 c 0
 94 599 164 637 238 637 c 0
 302 637 343 603 343 548 c 0xf4
 343 484 289 464 273 448 c 1
 303 431 319 404 319 374 c 0
 319 300 249 238 135 238 c 0
 65 238 18 257 18 285 c 0
 18 306 38 326 59 326 c 0xf8
585 528 m 2
 229 77 l 2
 214 58 203 51 188 51 c 0
 173 51 161 62 161 78 c 0
 161 88 164 93 178 110 c 2
 534 561 l 2
 550 581 559 587 574 587 c 0
 589 587 601 575 601 560 c 0
 601 552 596 541 585 528 c 2
673 380 m 1
 624 150 l 1
 645 149 655 141 655 124 c 0
 655 101 637 85 610 83 c 1
 607 67 l 1
 627 66 637 57 637 40 c 0
 637 16 616 0 585 0 c 2
 506 0 l 2
 481 0 469 8 469 27 c 0
 469 52 489 67 520 67 c 2
 540 67 l 1
 543 83 l 1
 379 83 l 1
 391 138 l 1
 589 380 l 1
 673 380 l 1
557 150 m 1
 585 279 l 1
 477 150 l 1
 557 150 l 1
EndSplineSet
EndChar
StartChar: AE
Encoding: 198 198 133
Width: 600
Flags: W
HStem: 0 100<26.5 75 251 614> 483 100<246 717>
Fore
-10 40 m 0
 -10 66 5 100 68 100 c 2
 75 100 l 1
 271 483 l 1
 257 483 l 2
 216 483 201 494 201 523 c 0
 201 546 213 583 279 583 c 2
 717 583 l 1
 682 418 l 2
 679 404 669 352 617 352 c 0
 596 352 578 369 578 389 c 0
 578 396 579 405 582 418 c 2
 596 483 l 1
 470 483 l 1
 440 342 l 1
 459 342 l 1
 469 377 491 397 521 397 c 0
 543 397 561 380 561 360 c 0
 561 352 560 351 556 331 c 0
 540 253 l 2
 537 240 528 187 476 187 c 0
 453 187 436 204 436 225 c 0
 436 229 436 233 438 243 c 1
 419 243 l 1
 389 100 l 1
 535 100 l 1
 540 123 l 2
 554 184 590 189 604 189 c 0
 628 189 645 173 645 151 c 0
 645 143 644 142 640 123 c 0
 614 0 l 1
 266 0 l 2
 236 0 219 14 219 41 c 0
 219 72 247 100 280 100 c 2
 289 100 l 1
 301 158 l 1
 208 158 l 1
 178 100 l 1
 200 97 211 85 211 65 c 0
 211 27 182 0 141 0 c 2
 47 0 l 2
 6 0 -10 12 -10 40 c 0
322 259 m 1
 367 471 l 1
 258 259 l 1
 322 259 l 1
EndSplineSet
EndChar
StartChar: Ccedilla
Encoding: 199 199 134
Width: 600
Flags: W
HStem: -229 70<229.5 293> 497 100<315.5 457>
VStem: 80 102<139 240> 314 72<-141.5 -89>
Fore
347 86 m 0
 488 86 504 159 547 159 c 0
 570 159 588 141 588 118 c 0
 588 95 530 -2 334 -14 c 1
 328 -42 l 1
 370 -50 386 -69 386 -109 c 0
 386 -174 328 -229 258 -229 c 0
 201 -229 148 -203 148 -174 c 0
 148 -152 169 -131 192 -131 c 0
 208 -131 234 -159 272 -159 c 0
 298 -159 314 -147 314 -128 c 0
 314 -111 298 -100 273 -100 c 0
 267 -100 263 -100 246 -102 c 1
 265 -9 l 1
 150 14 80 83 80 195 c 0
 80 213 82 231 86 249 c 2
 100 315 l 2
 134 475 277 597 432 597 c 0
 482 597 516 590 576 559 c 1
 593 576 606 583 623 583 c 0
 646 583 663 567 663 545 c 0
 663 538 663 534 659 517 c 0
 641 433 l 2
 637 418 625 367 577 367 c 0
 554 367 538 382 538 404 c 2
 538 406 l 1
 539 425 l 1
 539 427 l 2
 539 464 482 497 415 497 c 0
 216 497 182 266 182 214 c 0
 182 135 245 86 347 86 c 0
EndSplineSet
KernsSLIFO: 33 -5 0 0
EndChar
StartChar: Eth
Encoding: 208 208 143
Width: 600
Flags: W
HStem: 0 100<59.5 387> 243 100<109 140 226 338> 483 100<159.5 440>
VStem: 520 102<268 433>
Fore
23 40 m 0
 23 60 38 100 96 100 c 1
 126 243 l 1
 119 243 l 2
 78 243 62 254 62 283 c 0
 62 308 78 343 140 343 c 2
 147 343 l 1
 177 483 l 1
 142 483 126 496 126 523 c 0
 126 546 138 583 204 583 c 2
 417 583 l 2
 539 583 622 497 622 369 c 0
 622 167 489 0 285 0 c 2
 80 0 l 2
 39 0 23 12 23 40 c 0
378 304 m 0
 378 278 362 243 300 243 c 2
 226 243 l 1
 196 100 l 1
 306 100 l 2
 347 100 472 105 506 261 c 2
 516 307 l 2
 519 321 520 335 520 350 c 0
 520 406 493 483 387 483 c 2
 277 483 l 1
 247 343 l 1
 321 343 l 2
 355 343 378 338 378 304 c 0
EndSplineSet
EndChar
StartChar: multiply
Encoding: 215 215 150
Width: 600
Flags: W
Fore
344 209 m 1
 219 106 l 2
 194 85 183 80 167 80 c 0
 143 80 126 97 126 120 c 0
 126 141 134 153 163 177 c 2
 288 280 l 1
 207 383 l 2
 192 401 189 408 189 421 c 0
 189 450 221 480 252 480 c 0
 267 480 277 474 293 454 c 2
 374 351 l 1
 499 454 l 2
 525 475 534 480 551 480 c 0
 575 480 592 463 592 440 c 0
 592 420 583 407 555 383 c 2
 430 280 l 1
 511 177 l 2
 525 159 529 151 529 139 c 0
 529 110 497 80 466 80 c 0
 450 80 441 85 425 106 c 2
 344 209 l 1
EndSplineSet
EndChar
StartChar: Oslash
Encoding: 216 216 151
Width: 600
Flags: W
HStem: -14 100<273 377> 497 100<337 453.5> 618 20G<669 689>
VStem: 75 103<195.5 316.5> 546 103<251.5 387>
Fore
649 365 m 0
 649 138 448 -14 298 -14 c 0
 248 -14 203 0 165 28 c 1
 97 -40 l 2
 72 -65 63 -70 44 -70 c 0
 21 -70 4 -54 4 -33 c 0
 4 -16 10 -5 35 19 c 2
 108 92 l 1
 85 132 75 171 75 220 c 0
 75 413 247 597 427 597 c 0
 480 597 525 581 566 549 c 1
 624 607 l 2
 649 632 660 638 678 638 c 0
 700 638 717 622 717 600 c 0
 717 582 712 572 687 548 c 0
 621 483 l 1
 640 449 649 409 649 365 c 0
538 400 m 1
 244 107 l 1
 267 93 292 86 319 86 c 0
 435 86 546 212 546 342 c 0
 546 364 544 380 538 400 c 1
190 174 m 1
 487 471 l 1
 463 488 436 497 405 497 c 0
 290 497 178 371 178 243 c 0
 178 217 182 197 190 174 c 1
EndSplineSet
KernsSLIFO: 33 -13 0 0
EndChar
StartChar: Thorn
Encoding: 222 222 157
Width: 600
Flags: W
HStem: 0 100<70 116 80 324.5> 140 100<224 428.5> 343 100<267 398> 483 100<173 427>
VStem: 484 104<281.5 339.5>
Fore
588 321 m 0
 588 249 535 140 322 140 c 2
 224 140 l 1
 216 100 l 1
 314 100 l 2
 348 100 372 95 372 61 c 0
 372 36 356 0 293 0 c 2
 80 0 l 2
 39 0 23 12 23 40 c 0
 23 65 39 100 101 100 c 2
 116 100 l 1
 197 483 l 1
 182 483 l 2
 149 483 126 488 126 523 c 0
 126 547 142 583 204 583 c 2
 417 583 l 2
 458 583 474 572 474 543 c 0
 474 519 458 483 396 483 c 2
 297 483 l 1
 289 443 l 1
 387 443 l 2
 461 443 503 435 535 415 c 0
 568 394 588 358 588 321 c 0
246 240 m 1
 376 240 l 2
 448 240 484 261 484 302 c 0
 484 331 459 343 398 343 c 2
 267 343 l 1
 246 240 l 1
EndSplineSet
EndChar
StartChar: germandbls
Encoding: 223 223 158
Width: 600
Flags: W
HStem: -16 172<319 449.5> 0 100<58 116> 523 100<349.5 444>
VStem: 444 102<419.5 530> 467 102<164 246>
Fore
296 342 m 0xa8
 296 437 444 369 444 470 c 0
 444 503 420 523 380 523 c 0
 331 523 302 502 293 461 c 0
 216 100 l 1
 239 96 250 84 250 63 c 0
 250 40 239 0 171 0 c 2
 78 0 l 2
 38 0 22 11 22 40 c 0
 22 65 38 100 100 100 c 2
 116 100 l 1
 196 478 l 2
 214 563 299 623 400 623 c 0
 488 623 546 570 546 490 c 0x70
 546 441 530 405 489 365 c 1
 542 328 569 278 569 214 c 0
 569 156 529 -16 370 -16 c 0
 310 -16 272 18 272 74 c 0
 272 121 300 156 338 156 c 0
 359 156 375 143 375 125 c 2
 375 113 l 2
 375 94 383 84 399 84 c 0
 434 84 467 137 467 191 c 0
 467 258 420 294 342 303 c 0
 309 307 296 318 296 342 c 0xa8
EndSplineSet
EndChar
StartChar: ae
Encoding: 230 230 165
Width: 600
Flags: W
HStem: -16 100<111.5 192 418 482.5> 172 86<397 647> 197 89<207.5 263.5> 350 100<263.5 325.5 479.5 570>
VStem: 14 103<68 150.5> 558 107<270.5 337>
Fore
125 365 m 0xbc
 125 438 268 450 302 450 c 0
 349 450 380 433 406 394 c 1
 451 433 488 450 531 450 c 0
 609 450 665 384 665 290 c 0
 665 251 655 207 647 172 c 1
 397 172 l 1xdc
 400 109 418 84 459 84 c 0
 506 84 561 118 592 118 c 0
 613 118 628 102 628 80 c 0
 628 3 482 -16 437 -16 c 0
 399 -16 377 -8 346 16 c 1
 334 5 320 -1 305 -1 c 0
 290 -1 280 5 272 16 c 1
 230 -7 198 -16 156 -16 c 0
 67 -16 14 30 14 106 c 0
 14 156 31 195 64 221 c 0
 112 258 194 286 256 286 c 0
 271 286 289 284 315 281 c 1
 317 291 320 302 320 314 c 0
 319 336 304 350 282 350 c 0
 245 350 188 325 163 325 c 0
 141 325 125 342 125 365 c 0xbc
241 197 m 0xbc
 174 197 117 171 117 130 c 0
 117 101 140 84 177 84 c 0
 207 84 234 96 283 130 c 1
 295 189 l 1
 273 195 258 197 241 197 c 0xbc
417 258 m 1xdc
 557 258 l 1
 558 268 558 275 558 280 c 0
 558 323 539 350 507 350 c 0
 452 350 427 284 417 258 c 1xdc
EndSplineSet
KernsSLIFO: 89 13 0 0 87 31 0 0 86 24 0 0
EndChar
StartChar: ccedilla
Encoding: 231 231 166
Width: 600
Flags: W
HStem: -229 70<234 297.5> -16 100<296.5 426.5> 350 100<280.5 434>
VStem: 92 103<109 197> 318 72<-141.5 -89>
Fore
348 84 m 0
 505 84 499 140 544 140 c 0
 568 140 585 123 585 99 c 0
 585 76 551 -10 338 -16 c 1
 332 -42 l 1
 374 -50 390 -69 390 -109 c 0
 390 -174 332 -229 263 -229 c 0
 205 -229 153 -203 153 -174 c 0
 153 -152 174 -131 197 -131 c 0
 213 -131 239 -159 276 -159 c 0
 302 -159 318 -147 318 -128 c 0
 318 -109 302 -100 269 -100 c 0
 265 -100 259 -101 250 -102 c 1
 268 -14 l 1
 153 -2 92 62 92 156 c 0
 92 226 155 450 406 450 c 0
 462 450 508 440 543 420 c 1
 554 441 566 450 586 450 c 0
 609 450 626 436 626 415 c 0
 626 406 625 404 621 384 c 0
 605 307 l 2
 602 292 592 241 541 241 c 0
 504 241 500 264 500 289 c 0
 500 338 435 350 385 350 c 0
 226 350 195 215 195 179 c 0
 195 115 245 84 348 84 c 0
EndSplineSet
EndChar
StartChar: eth
Encoding: 240 240 175
Width: 600
Flags: W
HStem: -16 100<235.5 378.5> 350 93<293 412> 456 21G<260 271.5> 620 20G<296 319.5>
VStem: 83 104<116 229.5> 504 113<190.5 337>
Fore
331 551 m 1
 268 580 260 579 260 597 c 0
 260 619 284 640 308 640 c 0
 331 640 360 630 401 609 c 2
 426 596 l 1
 512 637 l 2
 525 643 537 646 547 646 c 0
 562 646 572 635 572 620 c 0
 572 605 561 592 542 583 c 2
 491 558 l 1
 609 462 617 362 617 312 c 0
 617 106 459 -16 298 -16 c 0
 173 -16 83 62 83 170 c 0
 83 286 204 443 382 443 c 0
 431 443 459 433 514 396 c 1
 486 446 445 490 404 518 c 1
 301 468 l 2
 280 457 276 456 267 456 c 0
 253 456 244 467 244 484 c 0
 244 503 249 509 274 522 c 2
 331 551 l 1
318 84 m 0
 402 84 504 143 504 238 c 0
 504 303 450 350 374 350 c 0
 278 350 187 271 187 188 c 0
 187 130 245 84 318 84 c 0
EndSplineSet
EndChar
StartChar: divide
Encoding: 247 247 182
Width: 600
Flags: W
HStem: 230 100<137.5 562>
Fore
101 270 m 0
 101 293 113 330 179 330 c 2
 562 330 l 2
 599 330 619 325 619 290 c 0
 619 266 603 230 541 230 c 2
 158 230 l 2
 117 230 101 241 101 270 c 0
335 160 m 0
 375 160 397 141 397 108 c 0
 397 63 357 28 306 28 c 0
 267 28 244 47 244 80 c 0
 244 125 284 160 335 160 c 0
413 532 m 0
 454 532 476 513 476 480 c 0
 476 435 436 400 385 400 c 0
 346 400 323 419 323 452 c 0
 323 496 363 532 413 532 c 0
EndSplineSet
EndChar
StartChar: oslash
Encoding: 248 248 183
Width: 600
Flags: W
HStem: -16 100<274 378.5> 350 100<312 414.5>
VStem: 83 102<155 245.5> 507 102<188 278.5>
Fore
634 402 m 2
 583 359 l 1
 600 329 609 297 609 260 c 0
 609 116 460 -16 297 -16 c 0
 251 -16 211 -6 174 14 c 1
 106 -44 l 2
 82 -65 71 -70 56 -70 c 0
 33 -70 17 -54 17 -32 c 0
 17 -13 25 -1 52 22 c 2
 111 72 l 1
 92 103 83 136 83 174 c 0
 83 317 232 450 392 450 c 0
 437 450 491 437 521 419 c 1
 580 468 l 2
 604 489 614 494 630 494 c 0
 653 494 669 478 669 456 c 0
 669 437 661 424 634 402 c 2
496 286 m 1
 266 91 l 1
 283 86 297 84 316 84 c 0
 418 84 507 157 507 241 c 0
 507 258 504 271 496 286 c 1
197 145 m 1
 430 342 l 1
 410 347 393 350 374 350 c 0
 274 350 185 276 185 192 c 0
 185 177 189 161 197 145 c 1
EndSplineSet
EndChar
StartChar: thorn
Encoding: 254 254 189
Width: 600
Flags: W
HStem: -205 100<5 52 14 219> 10 100<296 416.5> 350 100<324 484> 524 100<160 191>
VStem: 522 101<198 324>
Fore
113 564 m 0
 113 589 129 624 191 624 c 2
 307 624 l 1
 257 392 l 1
 315 434 361 450 423 450 c 0
 545 450 623 379 623 269 c 0
 623 127 490 10 329 10 c 0
 272 10 231 27 188 66 c 1
 152 -105 l 1
 210 -105 l 2
 243 -105 266 -110 266 -144 c 0
 266 -170 250 -205 188 -205 c 2
 14 -205 l 2
 -26 -205 -42 -194 -42 -165 c 0
 -42 -140 -26 -105 36 -105 c 2
 52 -105 l 1
 185 524 l 1
 169 524 l 2
 128 524 113 535 113 564 c 0
346 110 m 0
 487 110 522 218 522 252 c 0
 522 312 473 350 398 350 c 0
 250 350 221 237 221 208 c 0
 221 170 246 110 346 110 c 0
EndSplineSet
EndChar
StartChar: Aogonek
Encoding: 260 260 195
Width: 600
Flags: W
HStem: -208 78<440 500.5> 0 100<36.5 68 46 209 396 500> 158 100<212 450> 483 100<228.5 304>
VStem: 387 82<-157.5 -96>
Fore
486 -130 m 0
 515 -130 539 -108 562 -108 c 0
 581 -108 593 -121 593 -140 c 0
 593 -189 502 -208 464 -208 c 0
 416 -208 387 -180 387 -135 c 0
 387 -79 415 -44 500 0 c 1
 416 0 l 2
 376 0 360 11 360 40 c 0
 360 66 376 100 438 100 c 2
 461 100 l 1
 450 158 l 1
 212 158 l 1
 176 100 l 1
 199 100 l 2
 230 100 256 96 256 60 c 0
 256 36 240 0 178 0 c 2
 46 0 l 2
 5 0 -11 11 -11 40 c 0
 -11 66 5 100 68 100 c 1
 304 483 l 1
 241 483 l 2
 200 483 184 494 184 523 c 0
 184 545 195 583 262 583 c 2
 478 583 l 1
 575 100 l 1
 607 100 633 96 633 60 c 0
 633 33 618 16 578 -2 c 0
 515 -30 469 -78 469 -114 c 0
 469 -125 474 -130 486 -130 c 0
430 258 m 1
 392 450 l 1
 273 258 l 1
 430 258 l 1
EndSplineSet
EndChar
StartChar: aogonek
Encoding: 261 261 196
Width: 600
Flags: W
HStem: -208 76<388 450> -16 100<174.5 268.5> 196 92<233.5 362> 350 100<334 441>
VStem: 65 109<65 134> 335 81<-162.5 -82> 453 104<304 372>
Fore
435 -132 m 0
 465 -132 490 -108 515 -108 c 0
 533 -108 546 -120 546 -138 c 0
 546 -189 451 -208 412 -208 c 0
 364 -208 335 -183 335 -142 c 0
 335 -57 417 -14 442 0 c 1
 388 0 l 1
 393 23 l 1
 340 -2 278 -16 219 -16 c 0
 130 -16 65 32 65 98 c 0
 65 136 121 288 346 288 c 0
 378 288 408 285 447 278 c 1
 450 290 453 297 453 311 c 0
 453 338 426 350 369 350 c 0
 299 350 241 327 207 327 c 0
 185 327 169 343 169 366 c 0
 169 434 305 450 389 450 c 0
 493 450 557 407 557 337 c 0
 557 324 556 314 553 302 c 0
 510 100 l 1
 527 100 l 2
 560 100 583 95 583 61 c 0
 583 -4 416 -47 416 -117 c 0
 416 -127 423 -132 435 -132 c 0
320 196 m 0
 236 196 174 150 174 118 c 0
 174 99 203 84 241 84 c 0
 296 84 355 101 418 135 c 1
 428 185 l 1
 390 192 354 196 320 196 c 0
EndSplineSet
EndChar
StartChar: Dcroat
Encoding: 272 272 207
Width: 600
Flags: W
HStem: 0 100<59.5 387> 243 100<109 140 226 338> 483 100<159.5 440>
VStem: 520 102<268 433>
Fore
23 40 m 0
 23 60 38 100 96 100 c 1
 126 243 l 1
 119 243 l 2
 78 243 62 254 62 283 c 0
 62 308 78 343 140 343 c 2
 147 343 l 1
 177 483 l 1
 142 483 126 496 126 523 c 0
 126 546 138 583 204 583 c 2
 417 583 l 2
 539 583 622 497 622 369 c 0
 622 167 489 0 285 0 c 2
 80 0 l 2
 39 0 23 12 23 40 c 0
378 304 m 0
 378 278 362 243 300 243 c 2
 226 243 l 1
 196 100 l 1
 306 100 l 2
 347 100 472 105 506 261 c 2
 516 307 l 2
 519 321 520 335 520 350 c 0
 520 406 493 483 387 483 c 2
 277 483 l 1
 247 343 l 1
 321 343 l 2
 355 343 378 338 378 304 c 0
EndSplineSet
EndChar
StartChar: dcroat
Encoding: 273 273 208
Width: 600
Flags: W
HStem: -14 100<196.5 372.5> 0 100<547 578> 351 100<284.5 408> 410 100<634 665> 525 99<515 548>
VStem: 74 103<131.5 210>
Fore
470 565 m 0xac
 470 586 482 624 548 624 c 2
 664 624 l 1
 640 510 l 1
 655 510 l 2
 688 510 712 505 712 472 c 0
 712 445 696 410 634 410 c 2
 619 410 l 1
 553 100 l 1
 569 100 l 2
 600 100 625 96 625 60 c 0
 625 35 609 0 547 0 c 2
 431 0 l 1x5c
 439 35 l 1
 379 -1 336 -14 278 -14 c 0
 115 -14 74 95 74 168 c 0
 74 236 105 308 156 360 c 0
 217 422 288 451 378 451 c 0
 437 451 480 435 517 400 c 1
 543 525 l 1
 527 525 l 2
 486 525 470 535 470 565 c 0xac
481 244 m 0
 481 284 462 351 354 351 c 0
 215 351 177 227 177 193 c 0
 177 126 224 86 302 86 c 0xac
 443 86 481 208 481 244 c 0
EndSplineSet
EndChar
StartChar: Eogonek
Encoding: 280 280 215
Width: 600
Flags: W
HStem: -208 78<404 464.5> 0 100<60 464 69.5 116 80 471> 243 99<246 352> 483 100<170.5 652>
VStem: 351 82<-157.5 -91>
Fore
450 -130 m 0
 479 -130 503 -108 526 -108 c 0
 545 -108 557 -121 557 -140 c 0
 557 -189 466 -208 428 -208 c 0
 380 -208 351 -180 351 -135 c 0
 351 -79 379 -44 464 0 c 1
 80 0 l 2
 40 0 23 12 23 40 c 0
 23 66 38 100 101 100 c 2
 116 100 l 1
 197 483 l 1
 182 483 l 2
 141 483 125 494 125 523 c 0
 125 546 137 583 204 583 c 2
 652 583 l 1
 620 433 l 2
 617 418 608 366 556 366 c 0
 534 366 516 382 516 404 c 0
 516 426 526 462 531 483 c 1
 297 483 l 1
 267 342 l 1
 352 342 l 1
 354 358 365 416 417 416 c 0
 440 416 457 400 457 378 c 0
 457 370 457 369 453 349 c 0
 428 236 l 2
 425 222 416 170 365 170 c 0
 342 170 325 186 325 207 c 0
 325 213 328 233 331 243 c 1
 246 243 l 1
 216 100 l 1
 471 100 l 1
 483 152 l 2
 486 167 496 219 546 219 c 0
 569 219 587 203 587 182 c 0
 587 174 587 170 583 152 c 0
 550 0 l 1
 490 -27 433 -68 433 -114 c 0
 433 -125 438 -130 450 -130 c 0
EndSplineSet
EndChar
StartChar: eogonek
Encoding: 281 281 216
Width: 600
Flags: W
HStem: -208 76<315 377> -14 98<281 368.5> 172 88<178 587> 350 100<304 452>
VStem: 262 81<-162.5 -98>
Fore
362 -132 m 0
 392 -132 418 -108 442 -108 c 0
 460 -108 473 -120 473 -138 c 0
 473 -189 378 -208 339 -208 c 0
 291 -208 262 -183 262 -142 c 0
 262 -93 292 -48 346 -14 c 1
 322 -15 308 -16 294 -16 c 0
 158 -16 74 55 74 169 c 0
 74 318 221 450 387 450 c 0
 517 450 600 375 600 259 c 0
 600 228 592 199 587 172 c 1
 178 172 l 1
 189 112 237 84 325 84 c 0
 412 84 489 117 528 117 c 0
 551 117 566 101 566 79 c 0
 566 51 551 34 512 19 c 0
 422 -15 343 -79 343 -117 c 0
 343 -127 350 -132 362 -132 c 0
200 260 m 1
 495 260 l 1
 490 314 439 350 367 350 c 0
 293 350 228 315 200 260 c 1
EndSplineSet
EndChar
StartChar: gcommaaccent
Encoding: 291 291 226
Width: 600
Flags: W
HStem: -205 100<142.5 293> -14 100<208 333> 337 100<581 634.5> 351 100<288 391.5>
VStem: 73 103<114 243>
Fore
106 -165 m 0xe8
 106 -140 121 -105 184 -105 c 2
 293 -105 l 2
 350 -105 394 -72 405 -20 c 2
 417 35 l 1
 363 1 317 -14 265 -14 c 0
 151 -14 73 60 73 168 c 0
 73 318 211 451 365 451 c 0xd8
 418 451 463 434 495 401 c 1
 502 437 l 1
 619 437 l 2
 650 437 675 433 675 397 c 0
 675 372 659 337 597 337 c 2
 581 337 l 1
 505 -20 l 1
 483 -126 384 -205 274 -205 c 2
 163 -205 l 2
 122 -205 106 -194 106 -165 c 0xe8
345 351 m 0
 259 351 176 274 176 193 c 0
 176 130 223 86 289 86 c 0
 377 86 459 163 459 244 c 0
 459 307 412 351 345 351 c 0
537 655 m 0
 434 529 l 2
 421 513 406 504 391 504 c 0
 376 504 363 517 363 532 c 0
 363 544 369 552 383 570 c 0
 487 698 l 2
 500 714 514 722 529 722 c 0
 545 722 558 709 558 694 c 0
 558 678 547 667 537 655 c 0
EndSplineSet
EndChar
StartChar: Hbar
Encoding: 294 294 229
Width: 600
Flags: W
HStem: 0 100<6.5 148 15.5 54 27 179.5 311 453 322 368 332 484.5> 241 100<184 420> 340 100<89.5 127 519 560> 483 100<236 287 425 456>
Fore
598 400 m 0xb0
 598 376 582 340 519 340 c 1xb0
 468 100 l 1
 474 100 l 2
 505 100 531 97 531 59 c 0
 531 36 516 0 453 0 c 2
 332 0 l 2
 290 0 276 14 276 40 c 0
 276 66 291 100 353 100 c 2
 368 100 l 1
 398 241 l 1
 184 241 l 1xd0
 154 100 l 1
 169 100 l 2
 200 100 226 96 226 59 c 0
 226 36 211 0 148 0 c 2
 27 0 l 2
 -14 0 -29 12 -29 39 c 0
 -29 63 -17 100 48 100 c 2
 54 100 l 1
 105 340 l 1
 74 340 50 346 50 380 c 0
 50 406 65 440 127 440 c 1xb0
 136 483 l 1
 108 486 93 499 93 521 c 0
 93 544 105 583 171 583 c 2
 272 583 l 2
 302 583 328 580 328 544 c 0
 328 517 313 483 251 483 c 2
 236 483 l 1
 206 341 l 1
 420 341 l 1xd0
 450 483 l 1
 435 483 l 2
 402 483 378 488 378 524 c 0
 378 548 394 583 456 583 c 2
 557 583 l 2
 596 583 613 576 613 544 c 0
 613 508 585 486 550 483 c 1
 541 440 l 1
 579 440 598 434 598 400 c 0xb0
EndSplineSet
EndChar
StartChar: hbar
Encoding: 295 295 230
Width: 600
Flags: W
HStem: 0 100<13 50 23 166 315.5 449 326.5 364 337 480> 350 100<305.5 407> 524 100<114 373 145 389.5>
VStem: 405 102<298 362.5>
Fore
68 564 m 0
 68 589 83 624 145 624 c 2
 373 624 l 2
 406 624 430 619 430 584 c 0
 430 559 415 524 352 524 c 2
 240 524 l 1
 211 389 l 1
 260 430 309 450 361 450 c 0
 453 450 507 401 507 324 c 0
 507 311 506 298 503 284 c 2
 464 100 l 1
 470 100 l 2
 508 100 526 94 526 60 c 0
 526 34 511 0 449 0 c 2
 337 0 l 2
 294 0 279 14 279 40 c 0
 279 66 295 100 358 100 c 2
 364 100 l 1
 400 271 l 2
 403 284 405 294 405 302 c 0
 405 323 390 350 329 350 c 0
 282 350 258 338 189 283 c 1
 150 100 l 1
 156 100 l 2
 194 100 213 94 213 60 c 0
 213 34 197 0 135 0 c 2
 23 0 l 2
 -20 0 -34 15 -34 41 c 0
 -34 65 -18 100 44 100 c 2
 50 100 l 1
 140 524 l 1
 124 524 l 2
 86 524 68 530 68 564 c 0
EndSplineSet
EndChar
StartChar: Iogonek
Encoding: 302 302 237
Width: 600
Flags: W
HStem: -208 78<334 394.5> 0 100<129.5 394 140 272 150 394> 483 100<243 585>
VStem: 281 82<-157.5 -95.5>
Fore
380 -130 m 0
 409 -130 433 -108 456 -108 c 0
 475 -108 487 -121 487 -140 c 0
 487 -189 396 -208 358 -208 c 0
 310 -208 281 -180 281 -135 c 0
 281 -81 309 -44 394 0 c 1
 150 0 l 2
 109 0 93 11 93 40 c 0
 93 66 109 100 171 100 c 2
 272 100 l 1
 353 483 l 1
 252 483 l 2
 211 483 196 494 196 523 c 0
 196 549 212 583 274 583 c 2
 575 583 l 2
 609 583 632 578 632 544 c 0
 632 518 616 483 554 483 c 2
 453 483 l 1
 372 100 l 1
 472 100 l 2
 504 100 529 96 529 61 c 0
 529 33 514 16 475 -1 c 0
 412 -27 363 -77 363 -114 c 0
 363 -125 368 -130 380 -130 c 0
EndSplineSet
EndChar
StartChar: iogonek
Encoding: 303 303 238
Width: 600
Flags: W
HStem: -208 76<355 417> 0 100<119 272 129 409> 337 100<231.5 322> 603 20G<351 469>
VStem: 302 81<-162.5 -81>
Fore
402 -132 m 0
 432 -132 458 -108 482 -108 c 0
 500 -108 513 -120 513 -138 c 0
 513 -189 418 -208 379 -208 c 0
 331 -208 302 -183 302 -142 c 0
 302 -57 384 -14 409 0 c 1
 129 0 l 2
 88 0 72 11 72 40 c 0
 72 66 88 100 150 100 c 2
 272 100 l 1
 322 337 l 1
 244 337 l 2
 202 337 186 348 186 377 c 0
 186 400 198 437 265 437 c 2
 443 437 l 1
 372 100 l 1
 493 100 l 2
 526 100 550 95 550 61 c 0
 550 -6 383 -45 383 -117 c 0
 383 -127 390 -132 402 -132 c 0
469 623 m 1
 446 518 l 1
 328 518 l 1
 351 623 l 1
 469 623 l 1
EndSplineSet
EndChar
StartChar: dotlessi
Encoding: 305 305 240
Width: 600
Flags: W
HStem: 0 100<119 272 129 504> 337 100<223 322>
Fore
186 377 m 0
 186 400 198 437 265 437 c 2
 443 437 l 1
 372 100 l 1
 493 100 l 2
 524 100 550 96 550 60 c 0
 550 38 536 0 472 0 c 2
 129 0 l 2
 88 0 72 11 72 40 c 0
 72 66 88 100 150 100 c 2
 272 100 l 1
 322 337 l 1
 244 337 l 2
 202 337 186 348 186 377 c 0
EndSplineSet
EndChar
StartChar: IJ
Encoding: 306 306 241
Width: 600
Flags: W
HStem: -14 100<375.5 460.5> 0 100<38.5 178 49 91 59 209> 483 100<161 172 183 319 521 537 542 684.5>
Fore
359 544 m 0x60
 359 518 343 483 281 483 c 2
 272 483 l 1
 191 100 l 1
 199 100 l 2
 231 100 256 96 256 61 c 0
 256 36 240 0 178 0 c 2
 59 0 l 2
 18 0 2 11 2 40 c 0
 2 66 18 100 80 100 c 2
 91 100 l 1
 172 483 l 1
 161 483 l 2
 120 483 105 494 105 523 c 0
 105 549 121 583 183 583 c 2
 302 583 l 2
 336 583 359 578 359 544 c 0x60
726 543 m 0
 726 518 710 483 648 483 c 2
 637 483 l 1
 574 187 l 1
 539 0 519 -14 402 -14 c 0
 349 -14 278 20 278 92 c 0
 278 99 279 106 280 113 c 0
 301 213 l 2
 304 229 316 280 366 280 c 0
 389 280 406 264 406 243 c 0
 406 235 406 232 402 213 c 0
 381 117 l 1
 384 86 389 86 422 86 c 0xa0
 461 87 465 148 476 198 c 0
 537 483 l 1
 521 483 l 2
 480 483 464 494 464 523 c 0
 464 546 476 583 542 583 c 2
 669 583 l 2
 700 583 726 580 726 543 c 0
EndSplineSet
EndChar
StartChar: ij
Encoding: 307 307 242
Width: 600
Flags: W
HStem: -205 100<206.5 358> 0 100<66 189 76 381> 337 100<140 239 435 547> 518 105<268 363 530 627>
Fore
103 377 m 0
 103 400 115 437 182 437 c 2
 360 437 l 1
 289 100 l 1
 370 100 l 2
 401 100 427 96 427 60 c 0
 427 38 413 0 349 0 c 2
 76 0 l 2
 35 0 19 11 19 40 c 0
 19 66 35 100 97 100 c 2
 189 100 l 1
 239 337 l 1
 161 337 l 2
 119 337 103 348 103 377 c 0
386 623 m 1
 363 518 l 1
 245 518 l 1
 268 623 l 1
 386 623 l 1
170 -165 m 0
 170 -140 186 -105 248 -105 c 2
 358 -105 l 2
 416 -105 460 -72 471 -20 c 2
 547 337 l 1
 445 337 l 2
 404 337 388 348 388 377 c 0
 388 402 404 437 466 437 c 2
 668 437 l 1
 571 -20 l 1
 549 -125 449 -205 340 -205 c 2
 227 -205 l 2
 186 -205 170 -194 170 -165 c 0
650 623 m 1
 627 518 l 1
 508 518 l 1
 530 623 l 1
 650 623 l 1
EndSplineSet
EndChar
StartChar: kgreenlandic
Encoding: 312 312 247
Width: 600
Flags: W
HStem: 0 100<56 112 425 468.5> 337 100<135 168 476 542.5>
Fore
262 38 m 0
 262 59 272 74 287 87 c 1
 226 164 l 1
 191 0 l 1
 75 0 l 2
 37 0 18 13 18 38 c 0
 18 61 29 100 96 100 c 2
 112 100 l 1
 162 337 l 1
 146 337 l 2
 115 337 90 340 90 375 c 0
 90 398 102 437 168 437 c 2
 284 437 l 1
 252 287 l 1
 344 350 l 1
 338 360 335 369 335 379 c 0
 335 403 350 437 414 437 c 2
 526 437 l 2
 559 437 582 433 582 400 c 0
 582 374 567 337 504 337 c 2
 476 337 l 1
 317 227 l 1
 425 100 l 1
 458 100 l 2
 489 100 515 97 515 61 c 0
 515 37 500 0 437 0 c 2
 319 0 l 2
 281 0 262 13 262 38 c 0
EndSplineSet
EndChar
StartChar: Lslash
Encoding: 321 321 256
Width: 600
Flags: W
HStem: 0 100<79.5 571> 483 100<202 259 224 452.5>
Fore
494 543 m 0
 494 518 478 483 415 483 c 2
 359 483 l 1
 333 359 l 1
 431 411 l 2
 454 423 464 426 476 426 c 0
 496 426 513 408 513 388 c 0
 513 360 501 345 462 325 c 2
 308 244 l 1
 278 100 l 1
 492 100 l 1
 512 191 l 1
 521 236 542 258 576 258 c 0
 599 258 616 242 616 220 c 0
 616 213 615 207 612 191 c 0
 571 0 l 1
 100 0 l 2
 59 0 43 11 43 40 c 0
 43 66 59 100 121 100 c 2
 178 100 l 1
 199 203 l 1
 139 171 l 2
 120 161 105 156 94 156 c 0
 74 156 56 174 56 195 c 0
 56 223 68 238 107 258 c 2
 224 318 l 1
 259 483 l 1
 202 483 l 2
 161 483 145 494 145 523 c 0
 145 546 157 583 224 583 c 2
 437 583 l 2
 468 583 494 580 494 543 c 0
EndSplineSet
EndChar
StartChar: lslash
Encoding: 322 322 257
Width: 600
Flags: W
HStem: 0 100<119 272 129 503> 524 100<265.5 362>
Fore
229 564 m 0
 229 590 245 624 308 624 c 2
 483 624 l 1
 435 399 l 1
 474 419 l 1
 498 433 505 435 519 435 c 0
 539 435 557 417 557 395 c 0
 557 367 544 351 506 332 c 2
 410 283 l 1
 371 100 l 1
 493 100 l 2
 526 100 550 95 550 61 c 0
 550 37 534 0 472 0 c 2
 129 0 l 2
 89 0 72 12 72 40 c 0
 72 66 88 100 150 100 c 2
 272 100 l 1
 302 243 l 1
 281 232 243 209 220 209 c 0
 199 209 182 227 182 249 c 0
 182 276 195 293 233 312 c 0
 327 359 l 1
 362 524 l 1
 286 524 l 2
 245 524 229 535 229 564 c 0
EndSplineSet
EndChar
StartChar: napostrophe
Encoding: 329 329 264
Width: 600
Flags: W
HStem: 0 100<69 201 80 117 89 232 403 432 416 548.5> 337 100<149.5 194> 350 100<371 472>
VStem: 472 103<297.5 364.5>
Fore
115 377 m 0xd0
 115 402 131 437 194 437 c 2
 288 437 l 1xd0
 278 389 l 1
 336 435 373 450 428 450 c 0
 516 450 575 401 575 328 c 0
 575 312 573 298 570 282 c 0
 531 100 l 1
 566 100 583 87 583 60 c 0
 583 36 567 0 505 0 c 2
 416 0 l 2
 375 0 359 11 359 40 c 0
 359 60 374 100 432 100 c 1
 469 278 l 2
 471 287 472 294 472 301 c 0
 472 333 444 350 394 350 c 0xb0
 348 350 313 333 255 282 c 1
 217 100 l 1
 223 100 l 2
 256 100 279 94 279 60 c 0
 279 36 263 0 201 0 c 2
 89 0 l 2
 49 0 33 11 33 40 c 0
 33 65 49 100 111 100 c 2
 117 100 l 1
 167 337 l 1
 132 337 115 350 115 377 c 0xd0
EndSplineSet
EndChar
StartChar: Eng
Encoding: 330 330 265
Width: 600
Flags: W
HStem: -203 100<237 321.5> 0 100<24.5 54 39 201> 483 100<119 142 457 622.5>
Fore
163 -149 m 0
 163 -115 198 -89 223 -89 c 0
 237 -89 254 -103 291 -103 c 0
 337 -103 376 -67 388 -14 c 2
 391 2 l 1
 216 394 l 1
 154 100 l 1
 189 100 l 2
 222 100 246 94 246 65 c 0
 246 39 234 0 168 0 c 2
 39 0 l 2
 4 0 -19 9 -19 37 c 0
 -19 61 -5 100 54 100 c 1
 135 483 l 1
 120 483 l 2
 88 483 63 490 63 519 c 0
 63 567 96 583 142 583 c 2
 257 583 l 1
 431 191 l 1
 493 483 l 1
 458 483 l 2
 426 483 401 490 401 519 c 0
 401 567 434 583 480 583 c 2
 610 583 l 2
 640 583 667 577 667 547 c 0
 667 522 652 483 593 483 c 1
 488 -14 l 2
 465 -121 371 -203 272 -203 c 0
 202 -203 163 -183 163 -149 c 0
EndSplineSet
EndChar
StartChar: eng
Encoding: 331 331 266
Width: 600
Flags: W
HStem: -203 100<230.5 315.5> 0 100<46 175 190 196> 350 100<345 444.5>
VStem: 445 103<295.5 365.5>
Fore
6 37 m 0
 6 62 18 100 84 100 c 2
 90 100 l 1
 140 337 l 1
 107 338 89 351 89 375 c 0
 89 400 104 437 168 437 c 2
 262 437 l 1
 251 389 l 1
 309 435 346 450 401 450 c 0
 488 450 548 407 548 324 c 0
 548 311 547 297 544 282 c 2
 481 -14 l 2
 458 -121 365 -203 266 -203 c 0
 195 -203 156 -183 156 -149 c 0
 156 -115 191 -89 216 -89 c 0
 230 -89 247 -103 284 -103 c 0
 330 -103 370 -67 381 -14 c 2
 443 278 l 2
 444 286 445 292 445 299 c 0
 445 334 421 350 368 350 c 0
 322 350 287 333 229 282 c 1
 190 100 l 1
 196 100 l 2
 227 100 253 94 253 64 c 0
 253 38 241 0 175 0 c 2
 63 0 l 2
 29 0 6 9 6 37 c 0
EndSplineSet
EndChar
StartChar: OE
Encoding: 338 338 273
Width: 600
Flags: W
HStem: 0 100<191 612> 483 100<383 717>
VStem: 34 103<153.5 318>
Fore
418 243 m 1
 387 100 l 1
 534 100 l 1
 539 122 l 2
 542 138 552 188 603 188 c 0
 625 188 642 172 642 151 c 0
 642 144 641 137 638 122 c 2
 612 0 l 1
 259 0 l 2
 123 0 34 87 34 220 c 0
 34 416 194 583 383 583 c 2
 717 583 l 1
 682 418 l 2
 678 402 669 352 617 352 c 0
 596 352 578 369 578 389 c 0
 578 396 580 407 582 418 c 0
 596 483 l 1
 469 483 l 1
 439 342 l 1
 457 342 l 1
 467 378 489 397 519 397 c 0
 542 397 559 381 559 359 c 0
 559 352 558 350 554 331 c 0
 538 253 l 2
 534 238 522 187 473 187 c 0
 451 187 434 204 434 225 c 0
 434 229 435 236 436 243 c 1
 418 243 l 1
369 483 m 1
 179 480 137 303 137 248 c 0
 137 187 160 100 287 100 c 1
 369 483 l 1
EndSplineSet
EndChar
StartChar: oe
Encoding: 339 339 274
Width: 600
Flags: W
HStem: -16 100<127.5 219 406 489.5> 171 86<397 648> 349 101<201 292.5 486.5 571>
VStem: 28 103<102.5 219> 306 91<142 286.5> 559 107<257 337.5>
Fore
628 77 m 0
 628 -3 468 -16 434 -16 c 0
 378 -16 340 8 315 58 c 1
 270 10 218 -16 169 -16 c 0
 86 -16 28 53 28 152 c 0
 28 286 134 450 268 450 c 0
 317 450 356 423 382 370 c 1
 429 424 478 450 532 450 c 0
 610 450 666 384 666 291 c 0
 666 250 656 207 648 171 c 1
 397 171 l 1
 397 113 419 84 461 84 c 0
 518 84 560 117 590 117 c 0
 611 117 628 100 628 77 c 0
247 349 m 0
 189 349 131 261 131 175 c 0
 131 118 153 84 190 84 c 0
 248 84 306 172 306 258 c 0
 306 315 284 349 247 349 c 0
509 349 m 0
 464 349 438 302 418 257 c 1
 559 257 l 1
 559 263 l 2
 559 320 542 349 509 349 c 0
EndSplineSet
EndChar
StartChar: Scedilla
Encoding: 350 350 285
Width: 600
Flags: W
HStem: -229 66<234 300.5> 1 21G<100.5 120> 497 100<354.5 450.5>
VStem: 167 106<358.5 443> 314 72<-148.5 -95.5> 470 106<142 288>
Fore
273 411 m 0
 273 306 576 377 576 199 c 0
 576 85 479 0 335 -13 c 1
 329 -46 l 1
 369 -56 386 -76 386 -115 c 0
 386 -182 336 -229 265 -229 c 0
 203 -229 153 -204 153 -173 c 0
 153 -149 169 -133 191 -133 c 0
 220 -133 230 -163 280 -163 c 0
 301 -163 314 -153 314 -137 c 0
 314 -117 297 -106 268 -106 c 0
 262 -106 256 -107 244 -108 c 1
 265 -12 l 1
 230 -8 188 7 158 25 c 1
 137 6 128 1 112 1 c 0
 89 1 72 17 72 38 c 0
 72 44 73 55 76 67 c 0
 90 133 l 1
 100 178 120 199 155 199 c 0
 190 199 192 180 194 151 c 0
 197 115 254 86 319 86 c 0
 402 86 470 125 470 173 c 0
 470 250 310 225 223 281 c 0
 189 304 167 344 167 385 c 0
 167 501 284 597 425 597 c 0
 476 597 518 586 548 564 c 1
 564 589 575 597 594 597 c 0
 618 597 634 582 634 561 c 0
 634 554 634 549 630 531 c 0
 611 443 l 2
 608 428 595 376 547 376 c 0
 508 376 509 400 508 430 c 0
 508 470 466 497 404 497 c 0
 334 497 273 457 273 411 c 0
EndSplineSet
EndChar
StartChar: scedilla
Encoding: 351 351 286
Width: 600
Flags: W
HStem: -229 70<233.5 287> 1 21G<112 130.5> 281 169<487 566> 350 100<327 441>
VStem: 156 113<256.5 334> 309 72<-142.5 -89> 444 112<106.5 168.5>
Fore
516 281 m 0xee
 458 281 506 350 376 350 c 0
 321 350 269 331 269 312 c 0
 269 270 434 286 507 238 c 0
 538 219 556 187 556 150 c 0
 556 63 463 -5 329 -15 c 1
 323 -42 l 1
 365 -50 381 -69 381 -109 c 0
 381 -176 323 -229 251 -229 c 0
 216 -229 143 -211 143 -174 c 0
 143 -152 164 -131 187 -131 c 0
 203 -131 229 -159 267 -159 c 0
 293 -159 309 -147 309 -128 c 0
 309 -110 293 -100 263 -100 c 0
 257 -100 252 -100 240 -102 c 1
 259 -14 l 1
 214 -9 184 -1 159 13 c 1
 145 4 137 1 124 1 c 0
 100 1 83 16 83 39 c 0
 83 45 84 52 87 67 c 2
 94 100 l 2
 104 146 124 167 159 167 c 0
 185 167 198 153 201 123 c 1
 224 97 264 84 318 84 c 0
 386 84 444 106 444 131 c 0
 444 162 393 172 328 179 c 0
 206 192 156 224 156 289 c 0
 156 379 260 450 394 450 c 0xde
 442 450 482 442 517 424 c 1
 530 444 539 450 555 450 c 0
 577 450 592 436 592 414 c 0
 592 407 591 398 588 384 c 2
 580 347 l 2
 577 332 567 281 516 281 c 0xee
EndSplineSet
EndChar
StartChar: Tbar
Encoding: 358 358 293
Width: 600
Flags: W
HStem: 0 100<110 208 122 386.5> 177 100<143.5 246 325 412> 483 100<104 620>
Fore
103 213 m 0
 103 263 138 277 181 277 c 2
 246 277 l 1
 290 483 l 1
 183 483 l 1
 163 390 l 2
 155 355 141 324 99 324 c 0
 69 324 60 340 60 363 c 0
 60 371 61 380 63 390 c 2
 104 583 l 1
 620 583 l 1
 579 390 l 2
 571 352 557 324 515 324 c 0
 485 324 476 340 476 363 c 0
 476 371 477 381 479 390 c 2
 499 483 l 1
 390 483 l 1
 346 277 l 1
 412 277 l 2
 445 277 469 270 469 242 c 0
 469 216 457 177 391 177 c 2
 325 177 l 1
 308 100 l 1
 374 100 l 2
 405 100 431 94 431 64 c 0
 431 39 420 0 353 0 c 2
 122 0 l 2
 76 0 65 20 65 39 c 0
 65 65 77 100 143 100 c 2
 208 100 l 1
 225 177 l 1
 160 177 l 2
 127 177 103 185 103 213 c 0
EndSplineSet
EndChar
StartChar: tbar
Encoding: 359 359 294
Width: 600
Flags: W
HStem: -16 100<184 314> 177 100<55.5 91 212 260> 337 100<89.5 125 225 443.5> 571 20G<208 243.5>
Fore
484 402 m 0
 484 376 472 337 406 337 c 2
 225 337 l 1
 212 277 l 1
 248 277 l 2
 281 277 305 270 305 242 c 0
 305 216 293 177 227 177 c 2
 191 177 l 1
 183 141 l 2
 181 134 180 127 180 121 c 0
 180 96 197 84 257 84 c 0
 371 84 412 129 447 129 c 0
 471 129 486 112 486 89 c 0
 486 24 329 -16 234 -16 c 0
 134 -16 76 25 76 93 c 0
 76 102 77 112 79 122 c 2
 91 177 l 1
 56 177 l 2
 23 177 -1 185 -1 213 c 0
 -1 263 34 277 77 277 c 2
 112 277 l 1
 125 337 l 1
 90 337 l 2
 57 337 33 345 33 373 c 0
 33 423 68 437 111 437 c 2
 146 437 l 1
 164 525 l 2
 172 560 187 591 229 591 c 0
 258 591 268 577 268 554 c 0
 268 545 267 536 264 525 c 2
 246 437 l 1
 427 437 l 2
 460 437 484 430 484 402 c 0
EndSplineSet
EndChar
StartChar: Uogonek
Encoding: 370 370 305
Width: 600
Flags: W
HStem: -208 78<307 367.5> -14 100<243.5 354.5> 483 100<156 346.5 486 648 497 532 519 664>
VStem: 110 101<108.5 179> 254 82<-157.5 -100>
Fore
648 583 m 2
 680 583 705 579 705 544 c 0
 705 510 679 483 632 483 c 1
 573 205 l 1
 552 125 526 88 441 14 c 0
 355 -62 336 -86 336 -114 c 0
 336 -125 342 -130 353 -130 c 0
 382 -130 406 -108 429 -108 c 0
 448 -108 460 -121 460 -140 c 0
 460 -189 369 -208 331 -208 c 0
 283 -208 254 -180 254 -135 c 0
 254 -93 275 -57 313 -31 c 1
 351 -9 l 1
 329 -13 316 -14 298 -14 c 0
 189 -14 110 59 110 158 c 0
 110 173 111 188 115 205 c 0
 174 483 l 1
 138 483 123 495 123 523 c 0
 123 546 135 583 201 583 c 2
 331 583 l 2
 362 583 387 580 387 544 c 0
 387 518 372 483 309 483 c 2
 274 483 l 1
 213 196 l 1
 212 189 211 182 211 176 c 0
 211 124 257 86 319 86 c 0
 390 86 458 135 471 196 c 2
 532 483 l 1
 497 483 l 2
 456 483 441 494 441 523 c 0
 441 546 453 583 519 583 c 2
 648 583 l 2
EndSplineSet
EndChar
StartChar: uogonek
Encoding: 371 371 306
Width: 600
Flags: W
HStem: -208 76<395 457> -13 100<226 326> 338 99<140.5 172 437 482>
VStem: 123 103<73 140> 342 81<-162.5 -83.5>
Fore
442 -132 m 0
 472 -132 498 -108 522 -108 c 0
 540 -108 553 -120 553 -138 c 0
 553 -189 458 -208 419 -208 c 0
 371 -208 342 -183 342 -142 c 0
 342 -57 424 -14 449 0 c 1
 410 0 l 1
 420 48 l 1
 360 1 326 -13 270 -13 c 0
 182 -13 123 36 123 110 c 0
 123 127 125 140 128 156 c 0
 166 338 l 1
 150 338 l 2
 110 338 94 349 94 378 c 0
 94 403 109 437 172 437 c 2
 288 437 l 1
 229 159 l 1
 227 151 226 144 226 136 c 0
 226 105 253 87 301 87 c 0
 351 87 380 101 443 155 c 1
 482 338 l 1
 447 338 l 2
 406 338 390 349 390 377 c 0
 390 403 406 437 468 437 c 2
 603 437 l 1
 531 100 l 1
 566 100 583 87 583 61 c 0
 583 -5 423 -50 423 -117 c 0
 423 -127 430 -132 442 -132 c 0
EndSplineSet
EndChar
StartChar: longs
Encoding: 383 383 318
Width: 600
Flags: W
HStem: 0 100<131 220 140 469> 337 100<224 291> 523 100<465 587.5>
Fore
632 509 m 0
 608 509 566 523 494 523 c 0
 437 523 406 507 399 474 c 0
 373 348 345 226 320 100 c 1
 459 100 l 2
 492 100 516 95 516 61 c 0
 516 37 500 0 438 0 c 2
 140 0 l 2
 100 0 84 12 84 40 c 0
 84 66 100 100 162 100 c 2
 220 100 l 1
 270 337 l 1
 224 337 l 2
 182 337 166 348 166 377 c 0
 166 401 178 437 245 437 c 2
 291 437 l 1
 299 474 l 2
 319 566 405 623 525 623 c 0
 650 623 691 602 691 570 c 0
 691 539 662 509 632 509 c 0
EndSplineSet
EndChar
StartChar: florin
Encoding: 402 402 319
Width: 600
Flags: W
HStem: -123 100<103 187.5> 304 100<247 325 404 482> 538 100<501 583.5>
Fore
657 586 m 0
 657 561 633 524 597 524 c 0
 572 524 570 538 527 538 c 0
 487 538 446 501 436 456 c 2
 425 404 l 1
 482 404 l 2
 514 404 540 399 540 369 c 0
 540 320 506 304 461 304 c 2
 404 304 l 1
 353 66 l 2
 331 -41 237 -123 138 -123 c 0
 68 -123 29 -103 29 -69 c 0
 29 -35 63 -9 88 -9 c 0
 102 -9 119 -23 156 -23 c 0
 202 -23 242 13 253 66 c 2
 304 304 l 1
 247 304 l 2
 214 304 189 311 189 340 c 0
 189 388 221 404 268 404 c 2
 325 404 l 1
 337 459 l 2
 358 558 453 638 549 638 c 0
 618 638 657 619 657 586 c 0
EndSplineSet
EndChar
StartChar: uni01A9
Encoding: 425 425 320
Width: 600
Flags: W
HStem: 0 100<11 465> 483 100<135 589>
Fore
466 238 m 0
 495 238 505 224 505 201 c 0
 505 192 504 183 502 172 c 2
 465 0 l 1
 11 0 l 1
 32 100 l 1
 225 293 l 1
 114 486 l 1
 135 583 l 1
 589 583 l 1
 553 413 l 2
 545 376 529 347 489 347 c 0
 459 347 449 363 449 385 c 0
 449 394 451 403 453 413 c 2
 468 483 l 1
 243 483 l 1
 352 293 l 1
 160 100 l 1
 386 100 l 1
 402 172 l 2
 410 210 425 238 466 238 c 0
EndSplineSet
EndChar
StartChar: afii10058
Encoding: 1033 1033 384
Width: 600
Flags: W
HStem: 0 100<36 79 208.5 362 363 398> 240 100<413 455> 483 100<175.5 198 263 341>
VStem: 510 108<160 259.5>
Fore
618 200 m 0
 618 120 580 0 362 0 c 2
 223 0 l 18
 194 0 187 28 187 41 c 0
 187 62 209 100 244 100 c 2
 259 100 l 1
 341 483 l 1
 263 483 l 1
 188 130 l 2
 172 57 113 0 45 0 c 2
 9 0 l 2
 -65 0 -83 63 -83 101 c 0
 -83 138 -70 203 -15 203 c 0
 9 203 24 189 24 161 c 0
 24 145 18 127 18 116 c 0
 18 107 22 102 36 100 c 0
 60 100 84 113 90 139 c 2
 163 483 l 1
 134 486 120 498 120 520 c 0
 120 568 153 583 198 583 c 2
 448 583 l 2
 482 583 504 577 504 542 c 0
 504 531 496 485 445 485 c 1
 414 340 l 1
 496 340 618 319 618 200 c 0
510 189 m 0
 510 232 435 240 413 240 c 2
 393 240 l 1
 363 100 l 1
 398 100 l 2
 445 100 492 101 508 171 c 0
 509 178 510 184 510 189 c 0
EndSplineSet
EndChar
StartChar: afii10059
Encoding: 1034 1034 385
Width: 600
Flags: W
HStem: 0 100<-76.5 64 -67.5 -29 -56 97> 241 100<409 496.5> 483 100<153 204>
VStem: 507 107<152 230.5>
Fore
410 341 m 1
 583 341 614 260 614 201 c 0
 614 114 510 1 358 1 c 2
 222 1 l 2
 184 1 166 14 166 39 c 0
 166 87 201 101 243 101 c 2
 259 101 l 1
 289 242 l 1
 101 241 l 1
 71 100 l 1
 85 100 l 2
 121 100 142 92 142 61 c 0
 142 37 130 0 64 0 c 2
 -56 0 l 2
 -97 0 -113 12 -113 38 c 0
 -113 64 -98 100 -37 100 c 2
 -29 100 l 1
 53 483 l 1
 24 486 10 497 10 519 c 0
 10 571 45 583 86 583 c 2
 188 583 l 2
 220 583 244 578 244 544 c 0
 244 519 232 483 167 483 c 2
 153 483 l 1
 122 341 l 1
 311 342 l 1
 341 484 l 1
 325 484 l 2
 292 484 268 492 268 524 c 0
 268 547 280 584 346 584 c 2
 448 584 l 2
 484 584 505 576 505 544 c 0
 505 496 461 488 441 484 c 1
 410 341 l 1
394 101 m 2
 428 101 507 113 507 191 c 0
 507 233 431 241 409 241 c 2
 389 241 l 1
 359 101 l 1
 394 101 l 2
EndSplineSet
EndChar
StartChar: afii10060
Encoding: 1035 1035 386
Width: 600
Flags: W
HStem: 0 99<88.5 106> 279 100<330.5 428> 483 100<54 480>
Back
395 419 m 0
 373.548 419 355.256 430.587 355.256 454.862 c 0
 355.256 462.189 356.578 471.495 359 483 c 1
 295 483 l 1
 265 341 l 1
 300 366 338 379 379 379 c 0
 477 379 545 357 546 279 c 1
 543 211 523 161 513 100 c 1
 544.382 96.963 556.836 80.4641 556.836 61.6537 c 0
 556.836 41.5301 542.582 18.7612 522 7 c 0
 513 2 498 0 478 0 c 2
 376 0 l 2
 332.911 0 319.509 14.4345 319.509 41.0356 c 0
 319.509 79.405 350.945 100 397 100 c 2
 413 100 l 1
 443 241 l 1
 437 264 411 276 363 279 c 2
 351 279 l 2
 305 279 269 266 243 241 c 1
 213 100 l 1
 229 100 l 2
 250 100 264 97 270 91 c 2
 271 91 l 2
 281.376 82.3531 285.767 71.3436 285.767 59.995 c 0
 285.767 39.4282 271.347 17.7481 252 7 c 0
 243 2 228 0 208 0 c 2
 106 0 l 2
 84 0 69 3 62 9 c 4
 53.0073 18.892 48.9339 30.1363 48.9339 41.2788 c 0
 48.9339 67.0922 70.7955 92.3591 104 99 c 2
 105 99 l 1
 113 100 l 1
 195 483 l 1
 133 483 l 2
 128 462 122 447 114 439 c 1
 114 438 l 1
 100 424 85 417 69 417 c 0
 42.814 417 29.2213 431.482 29.2213 457.949 c 0
 29.2213 464.836 30.1416 472.534 32 481 c 1
 54 583 l 1
 480 583 l 1
 459 485 l 2
 454 463 449 448 442 441 c 2
 441 440 l 2
 427 426 412 419 395 419 c 0
EndSplineSet
Fore
229 100 m 2
 261 100 286 93 286 60 c 0
 286 36 270 0 208 0 c 2
 106 0 l 2
 71 0 49 8 49 41 c 0
 49 67 71 92 104 99 c 2
 105 99 l 1
 113 100 l 1
 195 483 l 1
 133 483 l 1
 129 468 119 417 69 417 c 0
 43 417 29 431 29 458 c 0
 29 465 30 473 32 481 c 2
 54 583 l 1
 480 583 l 1
 459 485 l 2
 455 468 446 419 395 419 c 0
 374 419 355 431 355 455 c 0
 355 462 357 471 359 483 c 1
 295 483 l 1
 265 341 l 1
 300 366 338 379 379 379 c 0
 477 379 546 357 546 279 c 0
 546 211 523 161 513 100 c 1
 544 97 557 80 557 62 c 0
 557 37 541 0 478 0 c 2
 376 0 l 2
 333 0 320 14 320 41 c 0
 320 79 351 100 397 100 c 2
 413 100 l 1
 443 241 l 1
 437 264 406 279 357 279 c 0
 304 279 269 266 243 241 c 1
 213 100 l 1
 229 100 l 2
EndSplineSet
EndChar
StartChar: afii10061
Encoding: 1036 1036 387
Width: 600
Flags: W
HStem: 0 100<14 60 24 205.5 470 512.5> 483 100<117 313.5 559 592> 623 21G<301 315>
Fore
559 61 m 0
 559 37 544 0 481 0 c 2
 371 0 l 1
 354 143 280 278 198 278 c 1
 160 100 l 1
 195 100 l 2
 228 100 252 95 252 61 c 0
 252 37 237 0 174 0 c 2
 24 0 l 2
 -8 0 -32 7 -32 39 c 0
 -32 64 -17 100 45 100 c 2
 60 100 l 1
 142 483 l 1
 127 483 l 2
 94 483 70 488 70 522 c 0
 70 549 86 583 148 583 c 2
 298 583 l 2
 329 583 354 580 354 544 c 0
 354 519 339 483 277 483 c 2
 242 483 l 1
 210 334 l 1
 421 487 l 1
 405 493 397 503 397 519 c 0
 397 545 413 583 476 583 c 2
 576 583 l 2
 608 583 632 580 632 544 c 0
 632 521 618 483 559 483 c 1
 350 330 l 1
 404 298 449 215 470 100 c 1
 502 100 l 2
 535 100 559 95 559 61 c 0
503 751 m 2
 345 639 l 2
 327 626 320 623 310 623 c 0
 292 623 280 635 280 653 c 0
 280 668 290 681 311 696 c 2
 469 807 l 2
 487 820 493 823 504 823 c 0
 522 823 534 811 534 794 c 0
 534 779 525 766 503 751 c 2
EndSplineSet
EndChar
StartChar: uni040D
Encoding: 1037 1037 388
Width: 600
Flags: W
HStem: 0 100<19 156 25 62 35 187 322.5 461 476 482> 483 100<244 295.5 433 464> 623 21G<451.5 467.5>
Fore
284 39 m 0
 284 65 299 100 361 100 c 2
 376 100 l 1
 424 326 l 1
 171 141 l 1
 162 100 l 1
 177 100 l 2
 210 100 234 95 234 61 c 0
 234 36 218 0 156 0 c 2
 35 0 l 2
 3 0 -21 5 -21 39 c 0
 -21 65 -6 100 56 100 c 2
 62 100 l 1
 144 483 l 1
 113 486 101 502 101 521 c 0
 101 547 116 583 179 583 c 2
 280 583 l 2
 311 583 336 580 336 544 c 0
 336 519 321 483 259 483 c 2
 244 483 l 1
 195 256 l 1
 449 441 l 1
 458 483 l 1
 443 483 l 2
 410 483 386 488 386 522 c 0
 386 549 402 583 464 583 c 2
 565 583 l 2
 597 583 621 580 621 544 c 0
 621 530 613 488 558 483 c 1
 476 100 l 1
 482 100 l 2
 513 100 539 97 539 61 c 0
 539 36 523 0 461 0 c 2
 340 0 l 2
 305 0 284 8 284 39 c 0
376 807 m 2
 486 696 l 1
 497 686 502 676 502 667 c 0
 502 644 479 623 456 623 c 0
 447 623 440 627 428 639 c 2
 318 751 l 1
 307 761 302 771 302 779 c 0
 302 802 324 823 348 823 c 0
 358 823 364 820 376 807 c 2
EndSplineSet
EndChar
StartChar: afii10062
Encoding: 1038 1038 389
Width: 600
Flags: W
HStem: 0 100<57 87> 483 100<515 543> 623 68<280.5 401>
VStem: 176 69<714 775>
Fore
527 583 m 2
 559 583 584 578 584 545 c 0
 584 511 557 484 515 483 c 1
 217 100 l 1
 250 98 262 81 262 62 c 0
 262 38 248 0 184 0 c 2
 73 0 l 2
 41 0 17 6 17 39 c 0
 17 73 45 100 87 100 c 1
 179 216 l 1
 71 483 l 1
 39 485 22 499 22 522 c 0
 22 558 52 583 100 583 c 2
 191 583 l 2
 222 583 248 580 248 544 c 0
 248 519 236 500 199 484 c 1
 255 312 l 1
 387 484 l 1
 366 494 358 508 358 523 c 0
 358 545 374 583 437 583 c 2
 527 583 l 2
529 780 m 0
 529 729 444 623 322 623 c 0
 239 623 176 678 176 750 c 0
 176 784 194 807 221 807 c 0
 238 807 245 798 245 775 c 2
 245 770 l 2
 245 722 280 691 336 691 c 0
 466 691 448 807 502 807 c 0
 519 807 529 797 529 780 c 0
EndSplineSet
EndChar
StartChar: afii10145
Encoding: 1039 1039 390
Width: 600
Flags: W
HStem: 0 100<56 203 163 377> 483 100<138 157 244 296.5 259 296.5 443 462 558 601.5 564 601.5>
Fore
518 50 m 2
 507 -2 461 4 442 0 c 2
 297 0 l 1
 276 -45 279 -65 277 -90 c 1
 264 -96 247 -99 230 -99 c 0
 214 -99 197 -96 183 -90 c 1
 195 -66 200 -35 203 0 c 1
 56 0 l 2
 35 4 19 3 12 9 c 2
 11 9 l 2
 3 18 -1 27 -1 39 c 0
 -1 42 -1 46 -0 49 c 1
 0 50 l 2
 6 79 26 95 59 100 c 2
 63 100 l 1
 144 483 l 1
 138 483 l 2
 116 483 102 486 96 492 c 2
 95 492 l 2
 86 501 82 511 82 522 c 0
 82 525 82 529 83 532 c 1
 83 533 l 2
 94 582 138 583 157 583 c 0
 159 583 l 2
 280 583 l 2
 313 583 337 577 337 544 c 0
 337 541 337 537 336 534 c 1
 336 533 l 2
 326 485 283 483 263 483 c 0
 262 483 260 483 259 483 c 2
 244 483 l 1
 163 100 l 1
 377 100 l 1
 458 483 l 1
 443 483 l 2
 421 483 407 486 401 492 c 2
 400 492 l 2
 391 501 387 511 387 522 c 0
 387 525 387 529 388 532 c 1
 388 533 l 2
 399 582 443 583 462 583 c 0
 464 583 l 2
 585 583 l 2
 618 583 642 577 642 544 c 0
 642 541 642 537 641 534 c 1
 641 533 l 2
 631 485 586 483 568 483 c 0
 566 483 565 483 564 483 c 2
 558 483 l 1
 477 100 l 1
 505 97 520 84 520 62 c 0
 520 59 519 56 519 53 c 0
 519 52 519 52 518 51 c 2
 518 50 l 2
EndSplineSet
EndChar
StartChar: afii10018
Encoding: 1041 1041 392
Width: 600
Flags: W
HStem: 0 100<25 336 31 77 41 397.5> 242 100<207 407> 483 100<133.5 636 165 636>
VStem: 466 104<145.5 219.5>
Fore
540 366 m 0
 506 366 500 395 500 402 c 0
 500 409 501 419 504 432 c 0
 514 483 l 1
 258 483 l 1
 228 342 l 1
 407 342 l 2
 529 342 570 252 570 187 c 0
 570 178 569 168 567 160 c 0
 546 64 454 0 336 0 c 2
 41 0 l 2
 9 0 -16 7 -16 39 c 0
 -16 65 -0 100 62 100 c 2
 77 100 l 1
 158 483 l 1
 143 483 l 2
 110 483 87 488 87 521 c 0
 87 547 102 583 165 583 c 2
 636 583 l 1
 604 432 l 2
 601 417 590 366 540 366 c 0
466 163 m 0
 466 232 409 242 342 242 c 2
 207 242 l 1
 177 100 l 1
 352 100 l 2
 443 100 466 128 466 163 c 0
EndSplineSet
EndChar
StartChar: afii10020
Encoding: 1043 1043 394
Width: 600
Flags: W
HStem: 0 100<34 80 44 290> 483 100<135 639 168 639>
Fore
543 366 m 0
 509 366 503 395 503 402 c 0
 503 409 504 419 507 432 c 0
 517 483 l 1
 261 483 l 1
 180 100 l 1
 280 100 l 2
 313 100 336 96 336 61 c 0
 336 37 321 0 259 0 c 2
 44 0 l 2
 12 0 -13 7 -13 39 c 0
 -13 65 3 100 65 100 c 2
 80 100 l 1
 161 483 l 1
 146 483 l 2
 113 483 90 488 90 522 c 0
 90 545 102 583 168 583 c 2
 639 583 l 1
 607 432 l 2
 604 417 593 366 543 366 c 0
EndSplineSet
EndChar
StartChar: afii10021
Encoding: 1044 1044 395
Width: 600
Flags: HW
HStem: 0 100<58 452> 483 100<248 574.5>
Fore
558 583 m 2
 591 583 614 579 614 544 c 0
 614 530 606 488 551 483 c 1
 469 100 l 1
 573 100 l 1
 536 -75 l 2
 532 -91 523 -141 472 -141 c 0
 451 -141 432 -127 432 -104 c 0
 432 -97 433 -88 436 -75 c 2
 452 0 l 1
 58 0 l 1
 42 -75 l 2
 39 -88 29 -141 -22 -141 c 0
 -46 -141 -62 -123 -62 -103 c 0
 -62 -96 -61 -88 -58 -75 c 2
 -21 100 l 1
 81 100 l 2
 113 100 140 139 146 169 c 2
 213 483 l 1
 182 486 170 502 170 521 c 0
 170 547 185 583 248 583 c 2
 558 583 l 2
212 100 m 1
 369 100 l 1
 451 483 l 1
 313 483 l 1
 244 160 l 2
 239 137 228 111 212 100 c 1
EndSplineSet
EndChar
StartChar: afii10024
Encoding: 1046 1046 397
Width: 600
Flags: W
HStem: 0 100<2.5 43 246 269 262 386 614 646> 483 100<332 439 450 463.5>
Fore
305 264 m 1
 223 264 141 153 100 0 c 1
 25 0 l 2
 -20 0 -31 20 -31 50 c 0
 -31 86 -6 100 43 100 c 1
 81 228 133 298 201 330 c 1
 123 483 l 1
 89 484 78 506 78 533 c 0
 78 567 99 583 148 583 c 2
 225 583 l 2
 264 583 284 565 284 534 c 0
 284 502 266 487 243 487 c 1
 319 334 l 1
 350 483 l 1
 314 483 301 501 301 533 c 0
 301 570 326 583 378 583 c 2
 439 583 l 2
 488 583 504 566 504 533 c 0
 504 498 477 483 450 483 c 1
 419 334 l 1
 548 487 l 1
 529 487 523 510 523 530 c 0
 523 568 566 583 603 583 c 2
 670 583 l 2
 709 583 726 563 726 533 c 0
 726 497 702 484 678 483 c 1
 536 321 l 1
 581 283 622 218 623 100 c 1
 669 100 690 83 690 50 c 0
 690 18 662 0 614 0 c 2
 524 0 l 1
 523 164 487 264 405 264 c 1
 369 100 l 1
 403 100 419 78 419 50 c 0
 419 14 393 0 345 0 c 2
 262 0 l 2
 217 0 206 23 206 50 c 0
 206 75 223 100 269 100 c 1
 305 264 l 1
EndSplineSet
EndChar
StartChar: afii10025
Encoding: 1047 1047 398
Width: 600
Flags: W
HStem: -14 100<238 343.5> 497 100<285 440>
VStem: 428 107<138.5 225.5> 462 106<423 494.5>
Fore
187 279 m 0xe0
 187 304 203 341 265 341 c 2
 307 341 l 2
 439 341 462 414 462 432 c 0
 462 470 421 497 364 497 c 0
 206 497 248 376 169 376 c 0
 137 376 130 404 130 412 c 0
 130 419 132 428 135 443 c 2
 153 531 l 2
 156 544 166 597 216 597 c 0
 236 597 244 589 248 564 c 1
 288 586 334 597 385 597 c 0
 495 597 568 537 568 452 c 0xd0
 568 396 534 324 483 298 c 1
 499 285 535 254 535 197 c 0
 535 80 422 -14 265 -14 c 0
 211 -14 160 -1 117 25 c 1
 96 5 88 1 72 1 c 0
 45 1 32 14 32 40 c 0
 32 48 33 57 35 67 c 2
 49 133 l 2
 52 150 61 199 113 199 c 0
 148 199 151 181 154 151 c 0
 156 115 213 86 279 86 c 0
 397 86 428 152 428 172 c 0
 428 199 397 240 303 240 c 2
 244 240 l 2
 210 240 187 246 187 279 c 0xe0
EndSplineSet
EndChar
StartChar: afii10026
Encoding: 1048 1048 399
Width: 600
Flags: W
HStem: 0 100<19 156 25 62 35 187 322.5 461 476 482> 483 100<244 295.5 433 464>
Fore
284 39 m 0
 284 65 299 100 361 100 c 2
 376 100 l 1
 424 326 l 1
 171 141 l 1
 162 100 l 1
 177 100 l 2
 210 100 234 95 234 61 c 0
 234 36 218 0 156 0 c 2
 35 0 l 2
 3 0 -21 5 -21 39 c 0
 -21 65 -6 100 56 100 c 2
 62 100 l 1
 144 483 l 1
 113 486 101 502 101 521 c 0
 101 547 116 583 179 583 c 2
 280 583 l 2
 311 583 336 580 336 544 c 0
 336 519 321 483 259 483 c 2
 244 483 l 1
 195 256 l 1
 449 441 l 1
 458 483 l 1
 443 483 l 2
 410 483 386 488 386 522 c 0
 386 549 402 583 464 583 c 2
 565 583 l 2
 597 583 621 580 621 544 c 0
 621 530 613 488 558 483 c 1
 476 100 l 1
 482 100 l 2
 513 100 539 97 539 61 c 0
 539 36 523 0 461 0 c 2
 340 0 l 2
 305 0 284 8 284 39 c 0
EndSplineSet
EndChar
StartChar: afii10028
Encoding: 1050 1050 401
Width: 600
Flags: W
HStem: 0 100<14 60 24 205.5 470 512.5> 483 100<117 313.5 559 592>
Fore
559 61 m 0
 559 37 544 0 481 0 c 2
 371 0 l 1
 354 143 280 278 198 278 c 1
 160 100 l 1
 195 100 l 2
 228 100 252 95 252 61 c 0
 252 37 237 0 174 0 c 2
 24 0 l 2
 -8 0 -32 7 -32 39 c 0
 -32 64 -17 100 45 100 c 2
 60 100 l 1
 142 483 l 1
 127 483 l 2
 94 483 70 488 70 522 c 0
 70 549 86 583 148 583 c 2
 298 583 l 2
 329 583 354 580 354 544 c 0
 354 519 339 483 277 483 c 2
 242 483 l 1
 210 334 l 1
 421 487 l 1
 405 493 397 503 397 519 c 0
 397 545 413 583 476 583 c 2
 576 583 l 2
 608 583 632 580 632 544 c 0
 632 521 618 483 559 483 c 1
 350 330 l 1
 404 298 449 215 470 100 c 1
 502 100 l 2
 535 100 559 95 559 61 c 0
EndSplineSet
EndChar
StartChar: afii10029
Encoding: 1051 1051 402
Width: 600
Flags: W
HStem: 0 100<59.5 133 320.5 459 328 374 338 490> 483 100<282 579.5>
Fore
84 166 m 0
 84 153 80 137 80 130 c 0
 80 109 99 100 120 100 c 0
 144 100 169 116 174 139 c 0
 247 483 l 1
 216 486 204 502 204 521 c 0
 204 547 219 583 282 583 c 2
 563 583 l 2
 596 583 619 579 619 544 c 0
 619 530 611 488 556 483 c 1
 474 100 l 1
 480 100 l 2
 511 100 537 97 537 61 c 0
 537 36 521 0 459 0 c 2
 338 0 l 2
 303 0 282 8 282 39 c 0
 282 65 297 100 359 100 c 2
 374 100 l 1
 456 483 l 1
 347 483 l 1
 272 130 l 2
 251 32 173 0 93 0 c 0
 26 0 -24 40 -24 102 c 0
 -24 140 -11 204 44 204 c 0
 76 204 84 174 84 166 c 0
EndSplineSet
EndChar
StartChar: afii10033
Encoding: 1055 1055 406
Width: 600
Flags: W
HStem: 0 100<19 156 25 62 35 187 322.5 461 476 482> 483 100<179 581>
Fore
284 39 m 0
 284 65 299 100 361 100 c 2
 376 100 l 1
 458 483 l 1
 244 483 l 1
 162 100 l 1
 177 100 l 2
 210 100 234 95 234 61 c 0
 234 36 218 0 156 0 c 2
 35 0 l 2
 3 0 -21 5 -21 39 c 0
 -21 65 -6 100 56 100 c 2
 62 100 l 1
 144 483 l 1
 113 486 101 502 101 521 c 0
 101 547 116 583 179 583 c 2
 565 583 l 2
 597 583 621 580 621 544 c 0
 621 530 613 488 558 483 c 1
 476 100 l 1
 482 100 l 2
 513 100 539 97 539 61 c 0
 539 36 523 0 461 0 c 2
 340 0 l 2
 305 0 284 8 284 39 c 0
EndSplineSet
EndChar
StartChar: afii10037
Encoding: 1059 1059 410
Width: 600
Flags: W
HStem: 0 100<57 87> 483 100<515 543>
Fore
527 583 m 2
 559 583 584 578 584 545 c 0
 584 511 557 484 515 483 c 1
 217 100 l 1
 250 98 262 81 262 62 c 0
 262 38 248 0 184 0 c 2
 73 0 l 2
 41 0 17 6 17 39 c 0
 17 73 45 100 87 100 c 1
 179 216 l 1
 71 483 l 1
 39 485 22 499 22 522 c 0
 22 558 52 583 100 583 c 2
 191 583 l 2
 222 583 248 580 248 544 c 0
 248 519 236 500 199 484 c 1
 255 312 l 1
 387 484 l 1
 366 494 358 508 358 523 c 0
 358 545 374 583 437 583 c 2
 527 583 l 2
EndSplineSet
EndChar
StartChar: afii10038
Encoding: 1060 1060 411
Width: 600
Flags: W
HStem: 0 100<114 246 124 457> 121 100<209 267 350 420> 362 100<250 323 407 464.5> 483 100<226 327 248 566>
VStem: 36 103<185 314> 535 104<271 403>
Fore
377 221 m 2
 463 221 535 232 535 310 c 0
 535 361 463 362 407 362 c 2
 402 362 l 1
 372 221 l 1
 377 221 l 2
606 545 m 0
 606 519 591 483 528 483 c 2
 427 483 l 1
 423 462 l 1
 506 462 639 462 639 344 c 0
 639 331 637 316 634 300 c 0
 596 121 442 121 350 121 c 1
 346 100 l 1
 447 100 l 2
 480 100 504 95 504 62 c 0
 504 36 488 0 426 0 c 2
 124 0 l 2
 91 0 67 8 67 39 c 0
 67 64 83 100 145 100 c 2
 246 100 l 1
 250 121 l 1
 168 121 36 121 36 249 c 0
 36 264 38 281 42 300 c 0
 77 462 231 462 323 462 c 1
 327 483 l 1
 226 483 l 2
 193 483 170 488 170 522 c 0
 170 545 182 583 248 583 c 2
 550 583 l 2
 582 583 606 579 606 545 c 0
297 362 m 2
 203 362 139 350 139 278 c 0
 139 222 211 221 267 221 c 2
 272 221 l 1
 302 362 l 1
 297 362 l 2
EndSplineSet
EndChar
StartChar: afii10040
Encoding: 1062 1062 413
Width: 600
Flags: W
HStem: 0 100<19 437> 483 100<108 275.5 413 580.5>
Fore
457 -141 m 0
 436 -141 417 -127 417 -104 c 0
 417 -97 418 -88 421 -75 c 2
 437 0 l 1
 35 0 l 2
 3 0 -21 3 -21 39 c 0
 -21 53 -13 95 42 100 c 1
 124 483 l 1
 118 483 l 2
 80 483 61 489 61 523 c 0
 61 547 77 583 139 583 c 2
 260 583 l 2
 291 583 316 579 316 546 c 0
 316 519 302 483 239 483 c 2
 224 483 l 1
 142 100 l 1
 356 100 l 1
 438 483 l 1
 423 483 l 2
 385 483 366 489 366 523 c 0
 366 546 382 583 444 583 c 2
 565 583 l 2
 596 583 621 579 621 546 c 0
 621 518 606 483 544 483 c 2
 538 483 l 1
 456 100 l 1
 558 100 l 1
 521 -75 l 2
 517 -91 508 -141 457 -141 c 0
EndSplineSet
EndChar
StartChar: afii10041
Encoding: 1063 1063 414
Width: 600
Flags: W
HStem: 0 100<254 392 408 414> 167 100<181.5 265.5> 483 100<190 241.5 364 395>
Fore
215 39 m 0
 215 65 231 100 293 100 c 2
 308 100 l 1
 327 196 l 1
 299 176 264 167 220 167 c 0
 143 167 49 179 49 273 c 0
 49 283 49 293 52 305 c 0
 90 483 l 1
 59 486 47 503 47 522 c 0
 47 547 63 583 125 583 c 2
 226 583 l 2
 257 583 283 580 283 544 c 0
 283 519 267 483 205 483 c 2
 190 483 l 1
 153 308 l 1
 161 277 202 267 242 267 c 0
 289 267 330 283 352 308 c 1
 389 483 l 1
 374 483 l 2
 341 483 318 488 318 522 c 0
 318 548 333 583 395 583 c 2
 496 583 l 2
 529 583 553 579 553 542 c 0
 553 529 544 488 489 483 c 1
 408 100 l 1
 414 100 l 2
 444 100 470 97 470 61 c 0
 470 35 454 0 392 0 c 2
 271 0 l 2
 237 0 215 7 215 39 c 0
EndSplineSet
EndChar
StartChar: afii10042
Encoding: 1064 1064 415
Width: 600
Flags: W
HStem: 0 100<-2 553> 483 100<85 135 323 373 559 609>
Fore
203 483 m 1
 121 100 l 1
 259 100 l 1
 341 483 l 1
 305 483 293 501 293 533 c 0
 293 568 324 583 373 583 c 2
 429 583 l 2
 474 583 495 566 495 533 c 0
 495 500 480 484 441 483 c 1
 359 100 l 1
 495 100 l 1
 577 483 l 1
 541 483 529 501 529 533 c 0
 529 568 560 583 609 583 c 2
 665 583 l 2
 710 583 731 566 731 533 c 0
 731 500 716 484 677 483 c 1
 595 100 l 1
 628 97 630 74 630 50 c 0
 630 18 604 0 553 0 c 2
 21 0 l 2
 -25 0 -34 17 -34 50 c 0
 -34 85 -10 100 21 100 c 1
 103 483 l 1
 67 483 55 501 55 533 c 0
 55 568 86 583 135 583 c 2
 191 583 l 2
 236 583 257 566 257 533 c 0
 257 500 242 484 203 483 c 1
EndSplineSet
EndChar
StartChar: afii10043
Encoding: 1065 1065 416
Width: 600
Flags: W
HStem: 0 100<-2 566> 483 100<85 135 323 373 559 609>
Fore
586 -141 m 0
 565 -141 546 -127 546 -104 c 0
 546 -97 547 -88 550 -75 c 2
 566 0 l 1
 21 0 l 2
 -25 0 -34 17 -34 50 c 0
 -34 85 -10 100 21 100 c 1
 103 483 l 1
 67 483 55 501 55 533 c 0
 55 568 86 583 135 583 c 2
 191 583 l 2
 236 583 257 566 257 533 c 0
 257 500 242 484 203 483 c 1
 121 100 l 1
 259 100 l 1
 341 483 l 1
 305 483 293 501 293 533 c 0
 293 568 324 583 373 583 c 2
 429 583 l 2
 474 583 495 566 495 533 c 0
 495 500 480 484 441 483 c 1
 359 100 l 1
 495 100 l 1
 577 483 l 1
 541 483 529 501 529 533 c 0
 529 568 560 583 609 583 c 2
 665 583 l 2
 710 583 731 566 731 533 c 0
 731 500 716 484 677 483 c 1
 595 100 l 1
 687 100 l 1
 650 -75 l 2
 646 -91 637 -141 586 -141 c 0
EndSplineSet
EndChar
StartChar: afii10044
Encoding: 1066 1066 417
Width: 600
Flags: W
HStem: 0 100<138 453.5 146.5 193 157 453.5> 283 100<332 451> 483 100<65 461>
VStem: 544 107<181.5 244>
Fore
60 324 m 0
 37 324 20 339 20 361 c 0
 20 368 21 377 24 390 c 2
 65 583 l 1
 444 583 l 2
 478 583 500 575 500 545 c 0
 500 518 485 483 423 483 c 2
 375 483 l 1
 353 383 l 1
 451 383 l 2
 544 383 591 366 624 317 c 0
 642 292 651 260 651 228 c 0
 651 215 650 202 647 189 c 0
 624 78 517 0 390 0 c 2
 157 0 l 2
 119 0 101 6 101 37 c 0
 101 64 115 100 178 100 c 2
 193 100 l 1
 275 483 l 1
 144 483 l 1
 124 390 l 2
 121 375 108 324 60 324 c 0
411 100 m 2
 492 100 544 150 544 213 c 0
 544 257 510 283 450 283 c 2
 332 283 l 1
 293 100 l 1
 411 100 l 2
EndSplineSet
EndChar
StartChar: afii10045
Encoding: 1067 1067 418
Width: 600
Flags: W
HStem: 0 100<27 278 442 467 447 590.5> 283 100<177 233> 483 100<217 254 648 695>
VStem: 326 106<181.5 285>
Fore
484 531 m 0
 484 573 509 583 553 583 c 2
 671 583 l 2
 719 583 727 563 727 533 c 0
 727 496 705 484 648 483 c 1
 567 100 l 1
 614 100 636 85 636 52 c 0
 636 25 619 0 561 0 c 2
 447 0 l 2
 404 0 384 16 384 46 c 0
 384 89 417 100 467 100 c 1
 548 483 l 1
 504 484 484 500 484 531 c 0
56 530 m 0
 56 560 70 583 126 583 c 2
 233 583 l 2
 275 583 288 566 288 539 c 0
 288 495 261 484 217 483 c 1
 196 383 l 1
 232 383 l 2
 352 383 432 344 432 226 c 0
 432 181 386 0 170 0 c 2
 27 0 l 2
 -20 0 -33 18 -33 47 c 0
 -33 77 -22 101 24 101 c 0
 28 101 32 100 36 100 c 1
 117 483 l 1
 73 484 56 500 56 530 c 0
194 100 m 2
 275 100 326 150 326 213 c 0
 326 257 293 283 233 283 c 2
 177 283 l 1
 138 100 l 1
 194 100 l 2
EndSplineSet
EndChar
StartChar: afii10046
Encoding: 1068 1068 419
Width: 600
Flags: W
HStem: 0 100<88.5 400.5 94 140 104 400.5> 283 100<279 399> 483 100<207 222 228 378.5>
VStem: 491 107<181.5 286.5>
Fore
417 544 m 0
 417 518 402 483 340 483 c 2
 322 483 l 1
 301 383 l 1
 399 383 l 2
 517 383 598 345 598 228 c 0
 598 215 597 202 594 189 c 0
 571 78 464 0 337 0 c 2
 104 0 l 2
 73 0 48 3 48 38 c 0
 48 65 63 100 125 100 c 2
 140 100 l 1
 222 483 l 1
 207 483 l 2
 175 483 150 486 150 520 c 0
 150 545 166 583 228 583 c 2
 361 583 l 2
 396 583 417 575 417 544 c 0
358 100 m 2
 439 100 491 150 491 213 c 0
 491 257 457 283 397 283 c 2
 279 283 l 1
 240 100 l 1
 358 100 l 2
EndSplineSet
EndChar
StartChar: afii10047
Encoding: 1069 1069 420
Width: 600
Flags: W
HStem: -14 100<136 305> 241 100<253 488> 497 100<315 438>
VStem: 489 102<355 443.5>
Fore
9 99 m 0
 9 135 44 159 70 159 c 0
 115 159 100 86 239 86 c 0
 355 86 444 147 469 241 c 1
 253 241 l 2
 220 241 196 247 196 280 c 0
 196 303 208 341 274 341 c 2
 488 341 l 1
 489 347 489 352 489 358 c 0
 489 440 434 497 347 497 c 0
 283 497 211 469 190 420 c 0
 180 393 166 367 129 367 c 0
 108 367 89 382 89 404 c 0
 89 412 90 421 93 433 c 0
 111 517 l 2
 115 533 124 583 175 583 c 0
 192 583 203 577 212 559 c 1
 223 563 l 2
 284 586 320 597 372 597 c 0
 504 597 591 507 591 380 c 0
 591 359 589 337 584 315 c 2
 570 249 l 2
 538 97 390 -14 220 -14 c 0
 52 -14 9 73 9 99 c 0
EndSplineSet
EndChar
StartChar: afii10048
Encoding: 1070 1070 421
Width: 600
Flags: W
HStem: -14 100<365.5 529> 0 100<16.5 39 22 162.5> 241 100<169 280> 483 100<221 261> 497 100<460 621>
VStem: 258 96<143 230> 634 97<354 431>
Fore
79 525 m 0x76
 79 574 115 583 156 583 c 2
 238 583 l 2
 284 583 298 566 298 539 c 0
 298 491 268 484 221 483 c 1x76
 191 341 l 1
 280 341 l 1
 332 486 408 597 559 597 c 0
 683 597 731 488 731 374 c 0
 731 345 728 315 722 287 c 0
 686 114 581 -14 429 -14 c 0xae
 302 -14 258 79 258 207 c 0
 258 218 258 229 259 241 c 1
 169 241 l 1
 139 100 l 1
 186 100 203 83 203 53 c 0
 203 11 170 0 126 0 c 2
 22 0 l 2
 -20 0 -33 17 -33 44 c 0
 -33 89 -6 100 39 100 c 1
 121 483 l 1
 94 484 79 502 79 525 c 0x76
451 86 m 0xae
 607 86 634 327 634 381 c 0
 634 450 609 497 538 497 c 0
 382 497 354 256 354 204 c 0
 354 134 380 86 451 86 c 0xae
EndSplineSet
EndChar
StartChar: afii10049
Encoding: 1071 1071 422
Width: 600
Flags: W
HStem: 0 100<10.5 61 335 501 507 522> 222 100<337 454> 483 100<324 641>
Fore
295 37 m 0
 295 61 306 100 372 100 c 2
 407 100 l 1
 433 222 l 1
 337 222 l 1
 292 207 177 97 106 0 c 1
 27 0 l 2
 -6 0 -29 8 -29 38 c 0
 -29 62 -18 100 48 100 c 2
 61 100 l 1
 118 167 164 213 220 254 c 1
 167 287 141 326 141 374 c 0
 141 384 142 394 144 405 c 0
 166 510 272 583 402 583 c 2
 625 583 l 2
 657 583 681 580 681 546 c 0
 681 519 667 483 604 483 c 2
 589 483 l 1
 507 100 l 1
 522 100 l 2
 554 100 579 97 579 63 c 0
 579 38 563 0 501 0 c 2
 351 0 l 2
 319 0 295 7 295 37 c 0
377 483 m 2
 271 483 250 413 250 395 c 0
 250 352 301 322 378 322 c 2
 454 322 l 1
 489 483 l 1
 377 483 l 2
EndSplineSet
EndChar
StartChar: afii10066
Encoding: 1073 1073 424
Width: 600
Flags: W
HStem: -14 100<174 355.5> 351 100<236 414.5> 500 68<328 464> 621 20G<501.5 547>
VStem: 29 102<107 208> 434 103<225.5 306.5>
Fore
530 641 m 0
 564 641 570 612 570 605 c 0
 570 598 569 589 566 575 c 2
 550 500 l 1
 444 500 l 2
 302 500 219 493 173 401 c 1
 223 435 273 451 333 451 c 0
 496 451 537 343 537 270 c 0
 537 199 475 -14 236 -14 c 0
 112 -14 29 47 29 167 c 0
 29 187 32 210 37 234 c 0
 101 534 204 568 452 568 c 2
 464 568 l 1
 468 582 473 641 530 641 c 0
434 244 m 0
 434 290 409 351 311 351 c 0
 161 351 131 225 131 191 c 0
 131 128 178 86 255 86 c 0
 397 86 434 207 434 244 c 0
EndSplineSet
EndChar
StartChar: afii10067
Encoding: 1074 1074 425
Width: 600
Flags: HW
HStem: 0 100<102 131 116 321> 180 100<248 294.5> 337 100<165 377>
VStem: 409 102<125 181>
Fore
343 279 m 0
 420 279 436 291 436 313 c 0
 436 339 387 336 282 337 c 1
 269 280 l 1
 298 280 322 279 343 279 c 0
271 100 m 0
 371 100 409 108 409 142 c 0
 409 173 341 180 248 180 c 1
 231 100 l 1
 245 100 259 100 271 100 c 0
511 163 m 0
 511 97 480 0 304 0 c 2
 116 0 l 2
 77 0 59 13 59 37 c 0
 59 62 73 100 131 100 c 1
 182 337 l 1
 148 337 130 350 130 375 c 0
 130 398 141 437 209 437 c 2
 377 437 l 2
 417 437 542 434 542 345 c 0
 542 318 528 250 464 226 c 1
 496 216 511 199 511 163 c 0
EndSplineSet
EndChar
StartChar: afii10068
Encoding: 1075 1075 426
Width: 600
Flags: W
HStem: -0 100<100 129 114 246> 337 100<163 207 175 319.5>
Fore
453 244 m 0
 432 244 413 258 413 280 c 0
 413 296 419 321 422 336 c 1
 422 336 359 337 280 337 c 1
 229 100 l 1
 263 100 281 87 281 62 c 0
 281 27 255 -0 212 -0 c 2
 114 0 l 2
 75 0 57 13 57 37 c 0
 57 62 71 100 129 100 c 1
 180 337 l 1
 146 337 128 350 128 375 c 0
 128 401 143 437 207 437 c 2
 544 437 l 1
 517 310 l 2
 514 295 504 244 453 244 c 0
EndSplineSet
EndChar
StartChar: afii10069
Encoding: 1076 1076 427
Width: 600
Flags: W
HStem: 0 100<99 424> 337 100<181 568>
Fore
235 100 m 1
 388 100 l 1
 438 336 l 1
 298 337 l 1
 256 143 l 1
 253 128 245 106 235 100 c 1
29 -92 m 0
 20 -92 -11 -87 -11 -58 c 0
 -11 -51 -10 -41 -7 -26 c 0
 20 100 l 1
 119 100 l 2
 135 100 152 126 156 143 c 0
 198 337 l 1
 164 337 146 351 146 376 c 0
 146 402 162 437 225 437 c 2
 555 437 l 2
 593 437 611 424 611 399 c 0
 611 374 597 337 539 337 c 1
 488 100 l 1
 545 100 l 1
 518 -26 l 2
 515 -43 505 -92 454 -92 c 0
 432 -92 415 -77 415 -55 c 0
 415 -38 421 -14 424 0 c 1
 99 0 l 1
 93 -26 l 1
 84 -70 61 -92 29 -92 c 0
EndSplineSet
EndChar
StartChar: afii10072
Encoding: 1078 1078 429
Width: 600
Flags: W
HStem: 0 99<439.5 481> 336 101<85 101 127 253> 340 97<503 565>
Fore
200 437 m 2xc0
 258 437 268 413 268 377 c 0
 268 357 264 336 242 336 c 1xc0
 310 288 l 1
 321 337 l 1
 320 337 l 0
 298 337 285 363 285 387 c 0
 285 419 308 437 346 437 c 2
 415 437 l 2
 453 437 471 417 471 387 c 0
 471 358 451 337 425 337 c 1
 407 258 l 1
 510 340 l 1
 496 340 491 362 491 381 c 0
 491 428 521 437 565 437 c 2
 632 437 l 2xa0
 678 437 696 420 696 389 c 0
 696 368 688 337 642 337 c 0
 639 337 l 1
 485 218 l 1
 537 200 564 166 588 100 c 1
 626 100 652 89 652 47 c 0
 652 13 633 0 584 0 c 2
 481 0 l 2
 443 0 425 13 425 37 c 0
 425 49 430 99 449 99 c 0
 450 99 l 1
 438 135 417 149 388 164 c 1
 375 100 l 1
 376 100 l 0
 392 100 410 75 410 52 c 0
 410 10 382 0 346 0 c 2
 281 0 l 2
 237 0 227 21 227 50 c 0
 227 79 250 100 270 100 c 1
 283 164 l 1
 247 150 209 131 189 87 c 1
 195 78 198 70 198 61 c 0
 198 37 183 0 120 0 c 2
 34 0 l 2
 -12 0 -18 26 -18 50 c 0
 -18 86 8 100 57 100 c 1
 96 162 169 234 240 237 c 1
 101 336 l 1
 69 336 59 351 59 386 c 0
 59 420 79 437 127 437 c 2
 200 437 l 2xc0
EndSplineSet
EndChar
StartChar: afii10073
Encoding: 1079 1079 430
Width: 600
Flags: W
HStem: -16 100<243.5 336.5> 178 100<251 332.5> 350 100<321 421>
Fore
206 217 m 0
 206 241 221 278 281 278 c 2
 316 278 l 2
 416 278 434 309 434 317 c 0
 434 334 391 350 342 350 c 0
 300 350 265 341 233 321 c 1
 226 312 l 2
 209 290 194 281 173 281 c 0
 151 281 133 294 133 317 c 0
 133 338 142 368 145 384 c 0
 154 430 174 450 206 450 c 0
 221 450 228 443 232 424 c 1
 275 442 318 450 367 450 c 0
 475 450 545 403 545 336 c 0
 545 298 525 259 492 235 c 1
 490 225 l 1
 514 209 527 179 527 147 c 0
 527 140 526 132 525 125 c 0
 507 43 401 -16 272 -16 c 0
 215 -16 166 -6 130 13 c 1
 117 4 108 1 95 1 c 0
 71 1 54 16 54 38 c 0
 54 45 55 53 58 67 c 2
 65 100 l 2
 68 116 81 167 130 167 c 0
 156 167 169 153 172 123 c 1
 196 97 235 84 289 84 c 0
 315 84 416 94 416 132 c 0
 416 158 365 178 300 178 c 2
 258 178 l 2
 224 178 206 192 206 217 c 0
EndSplineSet
EndChar
StartChar: afii10074
Encoding: 1080 1080 431
Width: 600
Flags: HW
HStem: -0 100<38 67 52 184 353 382 367 499> 336 100<416 450> 337 99<218 247>
Fore
290 399 m 0xa0
 290 375 276 337 218 337 c 1xa0
 192 214 l 1
 430 325 l 1
 433 336 l 1
 399 336 381 349 381 374 c 0
 381 409 407 437 450 437 c 2xc0
 549 437 l 2
 586 437 605 424 605 400 c 0
 605 375 591 337 533 337 c 1
 482 100 l 1
 516 100 534 87 534 62 c 0
 534 27 508 -0 465 -0 c 2
 367 0 l 2
 328 0 310 13 310 37 c 0
 310 61 324 100 382 100 c 1
 409 224 l 1
 170 113 l 1
 167 100 l 1
 201 100 219 87 219 62 c 0
 219 27 193 -0 150 -0 c 2
 52 0 l 2
 13 0 -5 13 -5 37 c 0
 -5 61 9 100 67 100 c 1
 118 337 l 1
 84 337 66 351 66 376 c 0
 66 400 81 437 141 437 c 2
 233 437 l 2
 272 436 290 423 290 399 c 0xa0
EndSplineSet
EndChar
StartChar: afii10076
Encoding: 1082 1082 433
Width: 600
Flags: W
HStem: 0 100<56 112 425 468.5> 337 100<135 168 476 542.5>
Fore
262 38 m 0
 262 59 272 74 287 87 c 1
 226 164 l 1
 191 0 l 1
 75 0 l 2
 37 0 18 13 18 38 c 0
 18 61 29 100 96 100 c 2
 112 100 l 1
 162 337 l 1
 146 337 l 2
 115 337 90 340 90 375 c 0
 90 398 102 437 168 437 c 2
 284 437 l 1
 252 287 l 1
 344 350 l 1
 338 360 335 369 335 379 c 0
 335 403 350 437 414 437 c 2
 526 437 l 2
 559 437 582 433 582 400 c 0
 582 374 567 337 504 337 c 2
 476 337 l 1
 317 227 l 1
 425 100 l 1
 458 100 l 2
 489 100 515 97 515 61 c 0
 515 37 500 0 437 0 c 2
 319 0 l 2
 281 0 262 13 262 38 c 0
EndSplineSet
EndChar
StartChar: afii10077
Encoding: 1083 1083 434
Width: 600
Flags: W
HStem: -0 100<367 396 381 513> 0 87<55 126.5> 337 100<176 576>
VStem: -20 100<46.5 112.5>
Fore
-20 81 m 0x70
 -20 129 -5 201 51 201 c 0
 80 201 90 185 90 162 c 0
 90 137 80 117 80 108 c 0
 80 94 92 87 106 87 c 0x70
 122 87 141 97 145 114 c 0
 193 337 l 1
 159 337 141 351 141 376 c 0
 141 402 157 437 220 437 c 2
 563 437 l 2
 600 437 619 424 619 400 c 0
 619 375 605 337 547 337 c 1
 496 100 l 1
 530 100 548 87 548 62 c 0
 548 27 522 -0 479 -0 c 2
 381 0 l 2
 342 0 324 13 324 37 c 0
 324 61 338 100 396 100 c 1
 447 336 l 1
 293 337 l 1
 242 100 l 1xb0
 228 30 167 0 86 0 c 0
 24 0 -20 12 -20 81 c 0x70
EndSplineSet
EndChar
StartChar: afii10078
Encoding: 1084 1084 435
Width: 600
Flags: W
HStem: 0 100<8 143 17 57 28 174.5 442.5 577 451.5 491 461 608.5> 337 100<88.5 305 120 305 487 689>
Fore
42 375 m 0
 42 401 57 437 120 437 c 2
 305 437 l 1
 350 243 l 1
 487 437 l 1
 670 437 l 2
 708 437 726 424 726 401 c 0
 726 374 711 337 649 337 c 2
 642 337 l 1
 591 100 l 1
 598 100 l 2
 636 100 655 87 655 63 c 0
 655 37 640 0 577 0 c 2
 461 0 l 2
 424 0 406 13 406 38 c 0
 406 64 421 100 482 100 c 2
 491 100 l 1
 542 337 l 1
 524 337 l 1
 357 100 l 1
 291 100 l 1
 226 337 l 1
 208 337 l 1
 157 100 l 1
 164 100 l 2
 202 100 221 87 221 63 c 0
 221 37 206 0 143 0 c 2
 28 0 l 2
 -12 0 -30 13 -30 38 c 0
 -30 66 -15 100 49 100 c 2
 57 100 l 1
 108 337 l 1
 99 337 l 2
 61 337 42 350 42 375 c 0
EndSplineSet
EndChar
StartChar: afii10079
Encoding: 1085 1085 436
Width: 600
Flags: W
HStem: -0 100<66 95 80 212 381 410 395 527> 336 100<444 478> 337 99<246 275>
Fore
318 399 m 0xa0
 318 375 304 337 246 337 c 1xa0
 230 263 l 1
 445 263 l 1
 461 336 l 1
 427 336 409 349 409 374 c 0
 409 409 435 436 478 436 c 0xc0
 487 436 l 0
 577 437 l 2
 614 437 633 424 633 400 c 0
 633 375 619 337 561 337 c 1
 510 100 l 1
 544 100 562 87 562 62 c 0
 562 27 536 -0 493 -0 c 2
 395 0 l 2
 356 0 338 13 338 37 c 0
 338 61 352 100 410 100 c 1
 424 162 l 1
 209 162 l 1
 195 100 l 1
 229 100 247 87 247 62 c 0
 247 27 221 -0 178 -0 c 2
 80 0 l 2
 41 0 23 13 23 37 c 0
 23 61 37 100 95 100 c 1
 146 337 l 1
 112 337 94 351 94 376 c 0
 94 400 109 437 169 437 c 2
 173 437 l 1
 261 436 l 2
 300 435 318 423 318 399 c 0xa0
EndSplineSet
EndChar
StartChar: afii10081
Encoding: 1087 1087 438
Width: 600
Flags: W
HStem: 0 100<38 67 52 184 347.5 465 482 499> 337 100<101 562>
Fore
310 37 m 0
 310 61 324 100 382 100 c 1
 433 336 l 1
 218 337 l 1
 167 100 l 1
 201 100 219 87 219 62 c 0
 219 27 193 -0 150 -0 c 2
 52 0 l 2
 13 0 -5 13 -5 37 c 0
 -5 61 9 100 67 100 c 1
 118 337 l 1
 84 337 66 351 66 376 c 0
 66 402 82 437 145 437 c 2
 549 437 l 2
 586 437 605 424 605 400 c 0
 605 375 591 337 533 337 c 1
 482 100 l 1
 516 100 534 87 534 62 c 0
 534 27 508 -0 465 -0 c 2
 367 0 l 2
 328 0 310 13 310 37 c 0
EndSplineSet
EndChar
StartChar: afii10084
Encoding: 1090 1090 441
Width: 600
Flags: W
HStem: 1 100<159.5 277 294 310.5> 418 20G<78 554>
Fore
121 39 m 0
 121 76 150 101 194 101 c 1
 244 337 l 1
 156 337 l 1
 150 303 143 245 87 245 c 0
 66 245 46 259 46 281 c 0
 46 288 48 297 51 311 c 0
 78 438 l 1
 554 438 l 1
 527 311 l 2
 524 297 515 245 463 245 c 0
 442 245 423 259 423 281 c 0
 423 297 429 322 432 337 c 1
 344 337 l 1
 294 101 l 1
 327 101 346 88 346 65 c 0
 346 42 333 1 277 1 c 2
 179 1 l 2
 140 1 121 14 121 39 c 0
EndSplineSet
EndChar
StartChar: afii10086
Encoding: 1092 1092 443
Width: 600
Flags: W
HStem: -205 100<133 180 143 348.5> 10 100<160 229 323 464.5> 350 100<186 277 440 501> 548 100<293 324>
VStem: -41 102<130 242> 539 102<235.5 323.5>
Fore
390 110 m 2
 517 110 539 221 539 250 c 0
 539 299 505 350 441 350 c 2
 377 350 l 1
 326 110 l 1
 323 110 l 0
 390 110 l 2
246 587 m 0
 246 613 262 648 324 648 c 2
 440 648 l 1
 398 450 l 1
 395 450 l 0
 440 450 l 2
 562 450 641 376 641 271 c 0
 641 206 581 10 348 10 c 2
 302 10 l 1
 304 10 l 1
 280 -105 l 1
 338 -105 l 2
 371 -105 395 -109 395 -143 c 0
 395 -167 380 -205 317 -205 c 2
 143 -205 l 2
 110 -205 86 -199 86 -166 c 0
 86 -139 102 -105 164 -105 c 2
 180 -105 l 1
 204 10 l 1
 206 10 l 0
 160 10 l 2
 38 10 -41 80 -41 180 c 0
 -41 194 -39 209 -36 224 c 0
 -9 353 116 450 256 450 c 2
 301 450 l 0
 298 450 l 1
 319 548 l 1
 303 548 l 2
 271 548 246 551 246 587 c 0
213 350 m 2
 149 350 61 288 61 196 c 0
 61 144 91 110 162 110 c 2
 229 110 l 0
 226 110 l 1
 277 350 l 1
 213 350 l 2
EndSplineSet
EndChar
StartChar: afii10088
Encoding: 1094 1094 445
Width: 600
Flags: W
HStem: 0 100<40 76> 337 100<109.5 248 407.5 424 450 558.5>
Fore
597 399 m 0
 597 362 568 337 524 337 c 1
 474 100 l 1
 568 100 l 1
 541 -26 l 2
 538 -41 528 -92 477 -92 c 0
 456 -92 437 -78 437 -56 c 0
 437 -40 443 -15 446 0 c 1
 59 0 l 2
 21 0 3 13 3 38 c 0
 3 62 18 100 76 100 c 1
 126 337 l 1
 93 337 74 350 74 373 c 0
 74 401 89 436 152 437 c 2
 241 437 l 2
 280 437 299 424 299 399 c 0
 299 362 270 337 226 337 c 1
 176 101 l 1
 374 100 l 1
 424 337 l 1
 391 337 372 350 372 373 c 0
 372 399 387 436 450 437 c 2
 539 437 l 2
 578 437 597 424 597 399 c 0
EndSplineSet
EndChar
StartChar: afii10089
Encoding: 1095 1095 446
Width: 600
Flags: W
HStem: -0 100<307 329 314 445.5> 123 101<206 284.5> 336 100<362.5 397> 337 99<199 228.5>
Fore
272 398 m 0xd0
 272 375 258 337 199 337 c 1xd0
 181 252 l 1
 189 233 226 224 264 224 c 0
 305 224 334 235 362 256 c 1
 379 336 l 1
 346 336 328 349 328 373 c 0
 328 410 355 436 397 436 c 0xe0
 406 436 l 0
 496 437 l 2
 534 437 552 424 552 399 c 0
 552 375 537 337 479 337 c 1
 429 100 l 1
 462 100 481 87 481 64 c 0
 481 41 468 -0 412 -0 c 2
 314 0 l 2
 275 0 256 13 256 38 c 0
 256 75 285 100 329 100 c 1
 339 147 l 1
 306 129 282 123 242 123 c 0
 170 123 78 145 78 226 c 0
 78 234 79 243 81 252 c 2
 99 337 l 1
 66 337 48 350 48 374 c 0
 48 399 63 437 123 437 c 2
 127 437 l 1
 215 436 l 2
 253 435 272 423 272 398 c 0xd0
EndSplineSet
EndChar
StartChar: afii10090
Encoding: 1096 1096 447
Width: 600
Flags: W
HStem: 0 100<4 28 372 512 612 628.5> 337 100<62 78 177 199 306 322 421 447.5 546 562 661 687>
Fore
485 397 m 0
 485 375 473 337 422 337 c 1
 372 100 l 1
 512 100 l 1
 562 337 l 1
 530 337 515 349 515 371 c 0
 515 397 526 437 588 437 c 2
 661 437 l 2
 701 437 724 421 724 395 c 0
 724 370 712 337 662 337 c 1
 612 100 l 1
 645 100 663 87 663 63 c 0
 663 36 648 0 584 0 c 2
 24 0 l 2
 -14 0 -32 13 -32 38 c 0
 -32 64 -20 100 28 100 c 1
 78 337 l 1
 46 337 31 349 31 371 c 0
 31 397 42 437 104 437 c 2
 177 437 l 2
 218 437 246 423 246 396 c 0
 246 362 220 337 178 337 c 1
 128 101 l 1
 272 100 l 1
 322 337 l 1
 290 337 275 349 275 371 c 0
 275 397 286 437 348 437 c 2
 421 437 l 2
 461 437 485 424 485 397 c 0
EndSplineSet
EndChar
StartChar: afii10091
Encoding: 1097 1097 448
Width: 600
Flags: W
HStem: 0 100<4 556> 337 100<62 177 178 199 306 421 422 447.5 546 562 588 687>
Fore
724 395 m 0
 724 370 712 337 662 337 c 1
 612 100 l 1
 677 100 l 1
 650 -26 l 2
 647 -41 637 -92 586 -92 c 0
 564 -92 546 -77 546 -57 c 0
 546 -40 553 -14 556 0 c 1
 24 0 l 2
 -14 0 -32 13 -32 38 c 0
 -32 64 -20 100 28 100 c 1
 78 337 l 1
 46 337 31 349 31 371 c 0
 31 397 42 437 104 437 c 2
 177 437 l 2
 218 437 246 423 246 396 c 0
 246 362 220 337 178 337 c 1
 128 101 l 1
 272 100 l 1
 322 337 l 1
 290 337 275 349 275 371 c 0
 275 397 286 437 348 437 c 2
 421 437 l 2
 461 437 485 424 485 397 c 0
 485 375 473 337 422 337 c 1
 372 100 l 1
 512 100 l 1
 562 337 l 1
 530 337 515 349 515 371 c 0
 515 397 526 437 588 437 c 2
 661 437 l 2
 701 437 724 421 724 395 c 0
EndSplineSet
EndChar
StartChar: afii10092
Encoding: 1098 1098 449
Width: 600
Flags: W
HStem: 0 100<176 205 190 471.5> 180 100<344 445> 337 100<89 391>
VStem: 483 102<126 198>
Fore
98 245 m 0
 89 245 58 251 58 280 c 0
 58 287 59 297 62 311 c 2
 89 437 l 1
 371 437 l 2
 411 437 429 425 429 401 c 0
 429 377 414 337 356 337 c 1
 344 280 l 1
 546 280 585 234 585 162 c 0
 585 95 555 0 388 0 c 2
 190 0 l 2
 151 0 133 13 133 37 c 0
 133 62 147 100 205 100 c 1
 256 337 l 1
 168 337 l 1
 159 296 151 245 98 245 c 0
355 100 m 2
 446 100 483 108 483 144 c 0
 483 179 426 180 345 180 c 2
 322 180 l 1
 305 100 l 1
 323 100 355 100 355 100 c 2
EndSplineSet
EndChar
StartChar: afii10093
Encoding: 1099 1099 450
Width: 600
Flags: W
HStem: 0 100<5 34 19 278.5 440.5 549 575 592> 180 100<151 265.5> 336 100<509 552>
Fore
403 37 m 0
 403 61 417 100 475 100 c 1
 526 336 l 1
 492 336 474 349 474 374 c 0
 474 399 489 436 552 436 c 2
 642 437 l 2
 679 437 698 424 698 400 c 0
 698 375 684 337 626 337 c 1
 575 100 l 1
 609 100 627 87 627 62 c 0
 627 37 612 0 549 0 c 2
 460 0 l 2
 421 0 403 13 403 37 c 0
258 401 m 0
 258 375 243 337 185 337 c 1
 173 280 l 1
 358 280 419 264 419 188 c 0
 419 108 370 0 187 0 c 2
 19 0 l 2
 -20 0 -38 13 -38 37 c 0
 -38 61 -24 100 34 100 c 1
 85 337 l 1
 51 337 33 351 33 376 c 0
 33 399 45 437 112 437 c 2
 200 437 l 2
 240 437 258 425 258 401 c 0
174 100 m 2
 274 100 312 107 312 143 c 0
 312 180 244 180 151 180 c 1
 134 100 l 1
 148 100 174 100 174 100 c 2
EndSplineSet
EndChar
StartChar: afii10094
Encoding: 1100 1100 451
Width: 600
Flags: W
HStem: 0 100<115 144 129 389.5> 180 100<261 374.5> 337 100<178 195 222 330>
Fore
368 401 m 0
 368 377 353 337 295 337 c 1
 282 280 l 1
 467 280 529 264 529 190 c 0
 529 111 482 0 297 0 c 2
 129 0 l 2
 90 0 72 13 72 37 c 0
 72 62 86 100 144 100 c 1
 195 337 l 1
 161 337 143 350 143 375 c 0
 143 398 154 437 222 437 c 2
 310 437 l 2
 350 437 368 425 368 401 c 0
284 100 m 2
 384 100 422 107 422 143 c 0
 422 180 354 180 261 180 c 1
 244 100 l 1
 258 100 284 100 284 100 c 2
EndSplineSet
EndChar
StartChar: afii10095
Encoding: 1101 1101 452
Width: 600
Flags: W
HStem: -16 100<187 347> 157 100<252 468> 350 100<248.5 434>
Fore
90 140 m 0
 130 140 111 84 263 84 c 0
 354 84 415 108 446 157 c 1
 252 157 l 2
 218 157 200 171 200 196 c 0
 200 220 215 257 275 257 c 2
 468 257 l 1
 459 317 414 350 340 350 c 0
 157 350 223 241 137 241 c 0
 103 241 96 269 96 277 c 0
 96 284 98 293 101 307 c 0
 117 384 l 1
 127 430 146 450 179 450 c 0
 200 450 209 441 211 420 c 1
 254 440 304 450 361 450 c 0
 507 450 571 360 571 261 c 0
 571 100 445 -16 249 -16 c 0
 126 -16 28 21 28 80 c 0
 28 105 54 140 90 140 c 0
EndSplineSet
EndChar
StartChar: afii10096
Encoding: 1102 1102 453
Width: 600
Flags: W
HStem: -16 100<338 513.5> -0 100<17 39 23 155.5> 337 100<72.5 112> 350 100<418 559.5>
VStem: 571 102<211.5 329.5>
Fore
261 399 m 0x68
 261 374 247 337 189 337 c 1x68
 172 258 l 1
 244 258 l 1
 289 369 369 450 501 450 c 0
 618 450 673 378 673 281 c 0
 673 214 628 -16 399 -16 c 0x98
 277 -16 234 56 227 157 c 1
 151 157 l 1
 139 100 l 1
 172 100 190 87 190 63 c 0
 190 26 163 -0 121 -0 c 2
 23 0 l 2
 -16 0 -34 13 -34 37 c 0
 -34 75 -5 100 39 100 c 1
 89 337 l 1
 56 337 38 350 38 374 c 0
 38 399 53 437 112 437 c 2
 116 437 l 1
 204 436 l 2
 243 435 261 423 261 399 c 0x68
420 84 m 0x98
 512 84 571 160 571 263 c 0
 571 314 547 350 479 350 c 0
 357 350 326 235 326 170 c 0
 326 119 351 84 420 84 c 0x98
EndSplineSet
EndChar
StartChar: afii10097
Encoding: 1103 1103 454
Width: 600
Flags: W
HStem: 0 100<54.5 126 339.5 362 347 478.5> 157 100<325 374> 337 100<324 534>
Fore
15 39 m 0
 15 62 27 100 93 100 c 2
 126 100 l 1
 210 167 l 1
 151 178 128 201 128 248 c 0
 128 328 171 433 360 437 c 2
 528 437 l 2
 567 437 585 424 585 400 c 0
 585 362 556 337 512 337 c 1
 462 100 l 1
 495 100 513 87 513 63 c 0
 513 38 502 0 435 0 c 2
 347 0 l 2
 307 0 288 12 288 37 c 0
 288 75 317 100 362 100 c 1
 374 157 l 1
 346 157 l 1
 258 87 l 1
 265 78 268 70 268 61 c 0
 268 37 253 0 190 0 c 2
 72 0 l 2
 37 0 15 6 15 39 c 0
372 337 m 0
 276 337 235 330 235 293 c 0
 235 259 287 257 363 257 c 2
 395 257 l 1
 412 337 l 1
 398 337 384 337 372 337 c 0
EndSplineSet
EndChar
StartChar: afii10099
Encoding: 1106 1106 457
Width: 600
Flags: W
HStem: -185 100<191 290> 0 100<25.5 154 33 70 42 187.5> 302 100<310.5 429> 444 58<92 155 243 412> 524 100<132 165>
Fore
87 563 m 0
 87 589 99 624 165 624 c 2
 281 624 l 1
 255 502 l 1
 412 502 l 2
 427 502 434 492 434 480 c 0
 434 464 421 444 400 444 c 2
 243 444 l 1
 222 341 l 1
 270 382 320 402 372 402 c 0
 486 402 515 341 515 272 c 0
 515 253 514 243 513 236 c 2
 461 0 l 2
 440 -98 349 -185 231 -185 c 2
 192 -185 l 2
 153 -185 136 -172 136 -148 c 0
 136 -100 169 -85 213 -85 c 2
 249 -85 l 2
 303 -85 349 -57 361 -1 c 10
 411 223 l 18
 413 234 414 243 414 251 c 0
 414 278 396 302 339 302 c 0
 282 302 244 271 199 235 c 1
 170 100 l 1
 176 100 l 2
 211 100 233 92 233 61 c 0
 233 35 221 0 154 0 c 2
 42 0 l 2
 9 0 -14 8 -14 39 c 0
 -14 66 2 100 64 100 c 2
 70 100 l 1
 144 444 l 1
 92 444 l 2
 78 444 72 454 72 466 c 0
 72 482 84 502 104 502 c 2
 155 502 l 1
 160 524 l 1
 144 524 l 2
 110 524 87 530 87 563 c 0
EndSplineSet
EndChar
StartChar: afii10100
Encoding: 1107 1107 458
Width: 600
Flags: W
HStem: -0 100<100 129 114 246> 337 100<163 207 175 319.5>
Fore
453 244 m 0
 432 244 413 258 413 280 c 0
 413 296 419 321 422 336 c 1
 422 336 359 337 280 337 c 1
 229 100 l 1
 263 100 281 87 281 62 c 0
 281 27 255 -0 212 -0 c 2
 114 0 l 2
 75 0 57 13 57 37 c 0
 57 62 71 100 129 100 c 1
 180 337 l 1
 146 337 128 350 128 375 c 0
 128 401 143 437 207 437 c 2
 544 437 l 1
 517 310 l 2
 514 295 504 244 453 244 c 0
468 605 m 2
 310 493 l 2
 292 480 285 477 275 477 c 0
 257 477 245 489 245 507 c 0
 245 522 255 535 276 550 c 2
 434 661 l 2
 452 674 458 677 469 677 c 0
 487 677 499 665 499 648 c 0
 499 633 490 620 468 605 c 2
EndSplineSet
EndChar
StartChar: afii10101
Encoding: 1108 1108 459
Width: 600
Flags: W
HStem: -16 100<164.5 368.5> 157 100<138 351> 350 100<221.5 375.5>
Fore
442 289 m 0
 440 330 396 350 326 350 c 0
 246 350 190 312 158 257 c 1
 351 257 l 2
 387 257 404 244 404 220 c 0
 404 196 390 157 332 157 c 2
 138 157 l 1
 148 108 198 84 289 84 c 0
 448 84 440 140 486 140 c 0
 509 140 526 123 526 100 c 0
 526 7 324 -16 261 -16 c 0
 68 -16 33 85 33 157 c 0
 33 227 96 450 347 450 c 0
 404 450 450 440 485 420 c 1
 495 441 508 450 529 450 c 0
 554 450 567 438 567 412 c 0
 567 404 565 395 563 384 c 2
 546 307 l 2
 543 290 533 241 482 241 c 0
 447 241 442 261 442 289 c 0
EndSplineSet
EndChar
StartChar: afii10106
Encoding: 1113 1113 464
Width: 600
Flags: W
HStem: -1 99<412 504.5> -1 87<23.5 100> -1 100<282.5 317> 178 100<433 524.5> 336 100<141.5 187>
Fore
643 183 m 0x58
 643 105 597 -1 412 -1 c 2x98
 302 -1 l 2
 263 -1 244 11 244 37 c 0
 244 72 267 96 310 99 c 2
 317 99 l 1
 367 335 l 1
 259 336 l 1
 209 99 l 2x38
 195 32 140 -1 53 -1 c 0
 -6 -1 -59 24 -59 70 c 0
 -59 75 -58 80 -57 85 c 2
 -46 139 l 2
 -37 178 -16 200 15 200 c 0
 40 200 56 187 56 169 c 0
 56 166 l 10
 52 139 l 2
 50 128 47 116 47 106 c 0
 47 96 52 86 75 86 c 0
 125 86 114 144 159 336 c 1
 124 336 107 349 107 373 c 0
 107 410 139 436 187 436 c 2
 482 435 l 2
 520 435 539 421 539 395 c 0
 539 347 500 338 466 335 c 1
 454 278 l 1
 595 278 643 260 643 183 c 0x58
416 98 m 1
 500 98 536 105 536 141 c 0
 536 176 468 178 433 178 c 1
 416 98 l 1
EndSplineSet
EndChar
StartChar: afii10107
Encoding: 1114 1114 465
Width: 600
Flags: W
HStem: 0 100<-27.5 90 -8 124.5 250.5 381 385 428.5> 180 100<402 493.5> 337 100<39.5 186>
Fore
612 185 m 0
 612 111 566 0 381 0 c 2
 270 0 l 2
 231 0 212 12 212 38 c 0
 212 70 234 96 278 100 c 2
 285 100 l 1
 302 180 l 1
 124 180 l 1
 107 100 l 1
 142 100 160 87 160 66 c 0
 160 29 133 -0 90 -0 c 2
 -8 0 l 2
 -47 0 -66 12 -66 38 c 0
 -66 70 -44 96 -0 100 c 2
 7 100 l 1
 57 337 l 1
 22 337 5 350 5 374 c 0
 5 409 34 437 80 437 c 2
 172 437 l 2
 211 436 230 423 230 398 c 0
 230 374 215 337 157 337 c 1
 145 281 l 1
 323 281 l 1
 335 336 l 1
 300 336 283 348 283 372 c 0
 283 384 293 437 350 437 c 2
 451 437 l 2
 489 437 508 424 508 398 c 0
 508 349 469 340 435 337 c 1
 423 280 l 1
 564 280 612 262 612 185 c 0
385 100 m 1
 472 100 505 108 505 143 c 0
 505 178 437 180 402 180 c 1
 385 100 l 1
EndSplineSet
EndChar
StartChar: afii10108
Encoding: 1115 1115 466
Width: 600
Flags: W
HStem: 0 100<7 135 12.5 50 23 166.5 321.5 449 337 480> 302 100<291 410.5> 444 58<72 135 223 392> 524 100<106 145>
Fore
124 524 m 2
 88 524 67 532 67 564 c 0
 67 588 83 624 145 624 c 2
 261 624 l 1
 235 502 l 1
 392 502 l 2
 407 502 414 492 414 480 c 0
 414 464 401 444 380 444 c 2
 223 444 l 1
 202 341 l 1
 250 382 301 402 352 402 c 0
 469 402 499 331 499 276 c 0
 499 263 497 250 494 237 c 2
 464 100 l 1
 470 100 l 2
 506 100 527 92 527 60 c 0
 527 35 511 0 449 0 c 2
 337 0 l 2
 306 0 280 5 280 41 c 0
 286 94 326 100 358 100 c 2
 364 100 l 1
 391 223 l 2
 393 234 394 243 394 251 c 0
 394 278 378 302 321 302 c 0
 261 302 222 269 180 235 c 1
 150 100 l 1
 156 100 l 2
 189 100 213 94 213 59 c 0
 213 35 198 0 135 0 c 2
 23 0 l 2
 -9 0 -33 7 -33 41 c 0
 -33 63 -19 100 44 100 c 2
 50 100 l 1
 124 444 l 1
 72 444 l 2
 58 444 52 454 52 466 c 0
 52 482 64 502 84 502 c 2
 135 502 l 1
 140 524 l 1
 124 524 l 2
EndSplineSet
EndChar
StartChar: afii10109
Encoding: 1116 1116 467
Width: 600
Flags: W
HStem: 0 100<56 112 425 468.5> 337 100<135 168 476 542.5>
Fore
262 38 m 0
 262 59 272 74 287 87 c 1
 226 164 l 1
 191 0 l 1
 75 0 l 2
 37 0 18 13 18 38 c 0
 18 61 29 100 96 100 c 2
 112 100 l 1
 162 337 l 1
 146 337 l 2
 115 337 90 340 90 375 c 0
 90 398 102 437 168 437 c 2
 284 437 l 1
 252 287 l 1
 344 350 l 1
 338 360 335 369 335 379 c 0
 335 403 350 437 414 437 c 2
 526 437 l 2
 559 437 582 433 582 400 c 0
 582 374 567 337 504 337 c 2
 476 337 l 1
 317 227 l 1
 425 100 l 1
 458 100 l 2
 489 100 515 97 515 61 c 0
 515 37 500 0 437 0 c 2
 319 0 l 2
 281 0 262 13 262 38 c 0
475 605 m 2
 317 493 l 2
 299 480 292 477 282 477 c 0
 264 477 252 489 252 507 c 0
 252 522 262 535 283 550 c 2
 441 661 l 2
 459 674 465 677 476 677 c 0
 494 677 506 665 506 648 c 0
 506 633 497 620 475 605 c 2
EndSplineSet
EndChar
StartChar: uni045D
Encoding: 1117 1117 468
Width: 600
Flags: W
HStem: -0 100<38 67 52 184 353 382 367 499> 336 100<416 450> 337 99<218 247>
Fore
290 399 m 0xa0
 290 375 276 337 218 337 c 1xa0
 192 214 l 1
 430 325 l 1
 433 336 l 1
 399 336 381 349 381 374 c 0
 381 409 407 436 450 436 c 0xc0
 459 436 l 0
 549 437 l 2
 586 437 605 424 605 400 c 0
 605 375 591 337 533 337 c 1
 482 100 l 1
 516 100 534 87 534 62 c 0
 534 27 508 -0 465 -0 c 2
 367 0 l 2
 328 0 310 13 310 37 c 0
 310 61 324 100 382 100 c 1
 409 224 l 1
 170 113 l 1
 167 100 l 1
 201 100 219 87 219 62 c 0
 219 27 193 -0 150 -0 c 2
 52 0 l 2
 13 0 -5 13 -5 37 c 0
 -5 61 9 100 67 100 c 1
 118 337 l 1
 84 337 66 351 66 376 c 0
 66 400 81 437 141 437 c 2
 145 437 l 1
 233 436 l 2
 272 435 290 423 290 399 c 0xa0
350 661 m 2
 460 550 l 1
 471 540 476 530 476 521 c 0
 476 498 453 477 430 477 c 0
 421 477 414 481 402 493 c 2
 292 605 l 1
 281 615 276 625 276 633 c 0
 276 656 298 677 322 677 c 0
 332 677 338 674 350 661 c 2
EndSplineSet
EndChar
StartChar: afii10193
Encoding: 1119 1119 470
Width: 600
Flags: W
HStem: 0 100<312 510.5> 337 100<111.5 129 146 263.5 426.5 578.5>
Fore
302 399 m 0
 302 387 296 342 236 337 c 2
 229 337 l 1
 179 101 l 1
 393 100 l 1
 444 337 l 1
 409 337 391 349 391 372 c 0
 391 399 405 437 461 437 c 2
 559 437 l 2
 598 437 617 425 617 399 c 0
 617 387 611 342 551 337 c 2
 544 337 l 1
 493 100 l 1
 528 100 545 88 545 64 c 0
 545 61 545 57 544 53 c 1
 544 50 l 1
 537 17 511 0 466 0 c 2
 312 0 l 1
 291 -45 295 -65 293 -90 c 1
 279 -96 262 -99 246 -99 c 0
 229 -99 212 -96 199 -90 c 1
 210 -66 215 -35 218 0 c 1
 62 0 l 2
 24 0 5 12 5 38 c 0
 5 75 32 97 78 100 c 1
 129 337 l 1
 94 337 76 349 76 372 c 0
 76 399 90 437 146 437 c 2
 244 437 l 2
 283 437 302 425 302 399 c 0
EndSplineSet
EndChar
StartChar: uni048C
Encoding: 1164 1164 471
Width: 600
Flags: W
HStem: 0 100<88.5 400.5 94 140 104 400.5> 283 100<279 399> 483 100<207 222 228 378.5>
VStem: 491 107<181.5 286.5>
Fore
417 544 m 0
 417 518 402 483 340 483 c 2
 322 483 l 1
 301 383 l 1
 399 383 l 2
 517 383 598 345 598 228 c 0
 598 215 597 202 594 189 c 0
 571 78 464 0 337 0 c 2
 104 0 l 2
 73 0 48 3 48 38 c 0
 48 65 63 100 125 100 c 2
 140 100 l 1
 222 483 l 1
 207 483 l 2
 175 483 150 486 150 520 c 0
 150 545 166 583 228 583 c 2
 361 583 l 2
 396 583 417 575 417 544 c 0
358 100 m 2
 439 100 491 150 491 213 c 0
 491 257 457 283 397 283 c 2
 279 283 l 1
 240 100 l 1
 358 100 l 2
EndSplineSet
EndChar
StartChar: uni048D
Encoding: 1165 1165 472
Width: 600
Flags: W
HStem: 0 100<115 144 129 389.5> 180 100<261 374.5> 337 100<178 195 222 330>
Fore
368 401 m 0
 368 377 353 337 295 337 c 1
 282 280 l 1
 467 280 529 264 529 190 c 0
 529 111 482 0 297 0 c 2
 129 0 l 2
 90 0 72 13 72 37 c 0
 72 62 86 100 144 100 c 1
 195 337 l 1
 161 337 143 350 143 375 c 0
 143 398 154 437 222 437 c 2
 310 437 l 2
 350 437 368 425 368 401 c 0
284 100 m 0
 384 100 422 107 422 143 c 0
 422 180 354 180 261 180 c 1
 244 100 l 1
 258 100 272 100 284 100 c 0
EndSplineSet
EndChar
StartChar: afii10050
Encoding: 1168 1168 475
Width: 600
Flags: W
HStem: 0 100<13 59 23 269> 483 100<116 518 147 597>
Fore
69 522 m 0
 69 547 85 583 147 583 c 2
 518 583 l 1
 529 632 533 700 593 700 c 0
 617 700 633 682 633 662 c 0
 633 655 632 647 629 634 c 0
 597 483 l 1
 241 483 l 1
 159 100 l 1
 259 100 l 2
 298 100 316 94 316 61 c 0
 316 35 300 0 238 0 c 2
 23 0 l 2
 -9 0 -33 7 -33 38 c 0
 -33 65 -18 100 44 100 c 2
 59 100 l 1
 141 483 l 1
 126 483 l 2
 93 483 69 488 69 522 c 0
EndSplineSet
EndChar
StartChar: afii10098
Encoding: 1169 1169 476
Width: 600
Flags: W
HStem: -0 100<95 124 109 241> 337 100<158 202 170.5 314.5>
Fore
123 376 m 0
 123 402 139 437 202 437 c 2
 439 437 l 1
 447 478 456 529 508 529 c 0
 529 529 549 515 549 493 c 0
 549 486 547 477 544 463 c 0
 517 336 l 1
 517 336 354 337 275 337 c 1
 224 100 l 1
 258 100 276 87 276 62 c 0
 276 27 250 -0 207 -0 c 2
 109 0 l 2
 70 0 52 13 52 37 c 0
 52 62 66 100 124 100 c 1
 175 337 l 1
 141 337 123 351 123 376 c 0
EndSplineSet
EndChar
StartChar: uni0492
Encoding: 1170 1170 477
Width: 600
Flags: W
HStem: 0 97<33.5 78 43 280.5> 295 97<93 126 216 332> 468 97<132 620>
Fore
49 334 m 0
 49 357 60 392 126 392 c 2
 140 392 l 1
 156 468 l 1
 141 468 l 2
 112 468 87 471 87 508 c 0
 87 532 102 565 162 565 c 2
 620 565 l 1
 588 418 l 2
 584 402 575 356 525 356 c 0
 502 356 487 371 487 389 c 0
 487 395 489 404 491 418 c 2
 501 468 l 1
 253 468 l 1
 237 392 l 1
 332 392 l 2
 372 392 388 386 388 355 c 0
 388 333 373 295 312 295 c 2
 216 295 l 1
 174 97 l 1
 271 97 l 2
 301 97 326 94 326 59 c 0
 326 35 311 0 250 0 c 2
 43 0 l 2
 10 0 -13 6 -13 41 c 0
 -13 63 3 97 64 97 c 2
 78 97 l 1
 120 295 l 1
 104 295 l 2
 74 295 49 301 49 334 c 0
EndSplineSet
EndChar
StartChar: uni0493
Encoding: 1171 1171 478
Width: 600
Flags: W
HStem: 0 97<91.5 203 222 238.5> 184 97<244 278> 326 97<157.5 527>
Fore
55 36 m 0
 55 61 69 97 125 97 c 1
 144 185 l 1
 110 186 94 198 94 222 c 0
 94 246 108 281 164 281 c 2
 165 281 l 1
 174 326 l 1
 141 326 124 340 124 364 c 0
 124 386 136 423 202 423 c 2
 527 423 l 1
 501 299 l 2
 486 240 451 236 439 236 c 0
 405 236 399 265 399 272 c 0
 399 279 401 287 404 299 c 2
 409 326 l 1
 271 326 l 1
 262 281 l 1
 261 281 l 1
 295 281 312 269 312 243 c 0
 312 208 285 184 244 184 c 0
 241 184 l 1
 222 97 l 1
 255 97 272 85 272 60 c 0
 272 37 258 -0 203 -0 c 2
 110 0 l 2
 73 0 55 12 55 36 c 0
EndSplineSet
EndChar
StartChar: uni0494
Encoding: 1172 1172 479
Width: 600
Flags: W
HStem: 0 100<34 80 44 290> 483 100<135 639 168 639>
Fore
543 366 m 0
 509 366 503 395 503 402 c 0
 503 409 504 419 507 432 c 0
 517 483 l 1
 261 483 l 1
 180 100 l 1
 280 100 l 2
 313 100 336 96 336 61 c 0
 336 37 321 0 259 0 c 2
 44 0 l 2
 12 0 -13 7 -13 39 c 0
 -13 65 3 100 65 100 c 2
 80 100 l 1
 161 483 l 1
 146 483 l 2
 113 483 90 488 90 522 c 0
 90 545 102 583 168 583 c 2
 639 583 l 1
 607 432 l 2
 604 417 593 366 543 366 c 0
EndSplineSet
EndChar
StartChar: uni0495
Encoding: 1173 1173 480
Width: 600
Flags: W
HStem: -0 100<100 129 114 246> 337 100<163 207 175 319.5>
Fore
453 244 m 0
 432 244 413 258 413 280 c 0
 413 296 419 321 422 336 c 1
 422 336 359 337 280 337 c 1
 229 100 l 1
 263 100 281 87 281 62 c 0
 281 27 255 -0 212 -0 c 2
 114 0 l 2
 75 0 57 13 57 37 c 0
 57 62 71 100 129 100 c 1
 180 337 l 1
 146 337 128 350 128 375 c 0
 128 401 143 437 207 437 c 2
 544 437 l 1
 517 310 l 2
 514 295 504 244 453 244 c 0
EndSplineSet
EndChar
StartChar: uni0496
Encoding: 1174 1174 481
Width: 600
Flags: W
HStem: 0 100<2.5 43 246 269 262 386> 483 100<332 439 450 463.5>
VStem: 524 99<0 159>
Fore
599 -141 m 0
 578 -141 559 -127 559 -104 c 0
 559 -97 560 -88 563 -75 c 2
 579 0 l 1
 524 0 l 1
 523 164 487 264 405 264 c 1
 369 100 l 1
 403 100 419 78 419 50 c 0
 419 14 393 0 345 0 c 2
 262 0 l 2
 217 0 206 23 206 50 c 0
 206 75 223 100 269 100 c 1
 305 264 l 1
 223 264 141 153 100 0 c 1
 25 0 l 2
 -20 0 -31 20 -31 50 c 0
 -31 86 -6 100 43 100 c 1
 81 228 133 298 201 330 c 1
 123 483 l 1
 89 484 78 506 78 533 c 0
 78 567 99 583 148 583 c 2
 225 583 l 2
 264 583 284 565 284 534 c 0
 284 502 266 487 243 487 c 1
 319 334 l 1
 350 483 l 1
 314 483 301 501 301 533 c 0
 301 570 326 583 378 583 c 2
 439 583 l 2
 488 583 504 566 504 533 c 0
 504 498 477 483 450 483 c 1
 419 334 l 1
 548 487 l 1
 529 487 523 510 523 530 c 0
 523 568 566 583 603 583 c 2
 670 583 l 2
 709 583 726 563 726 533 c 0
 726 497 702 484 678 483 c 1
 536 321 l 1
 581 283 623 218 623 100 c 1
 669 100 690 83 690 50 c 0
 690 22 660 -103 645 -120 c 0
 632 -133 615 -141 599 -141 c 0
EndSplineSet
EndChar
StartChar: uni0497
Encoding: 1175 1175 482
Width: 600
Flags: W
HStem: 0 100<11 57 260 270 281 376> 336 101<85 200 242 253> 340 97<503 565>
Fore
588 100 m 1xa0
 639 100 652 80 652 47 c 0
 652 12 636 -26 636 -26 c 0
 633 -41 623 -92 572 -92 c 0
 538 -92 532 -63 532 -56 c 0
 532 -49 533 -40 536 -26 c 2
 541 0 l 1
 481 0 l 2
 443 0 425 13 425 37 c 0
 425 49 430 99 449 99 c 0
 450 99 l 1
 438 135 417 149 388 164 c 1
 375 100 l 1
 376 100 l 0
 392 100 410 75 410 52 c 0
 410 10 382 0 346 0 c 2
 281 0 l 2
 237 0 227 21 227 50 c 0
 227 79 250 100 270 100 c 1
 283 164 l 1
 247 150 209 131 189 87 c 1
 195 78 198 70 198 61 c 0
 198 37 183 0 120 0 c 2
 34 0 l 2
 -12 0 -18 26 -18 50 c 0
 -18 86 8 100 57 100 c 1
 96 162 169 234 240 237 c 1
 101 336 l 1
 69 336 59 351 59 386 c 0
 59 420 79 437 127 437 c 2
 200 437 l 2
 258 437 268 413 268 377 c 0
 268 357 264 336 242 336 c 1xc0
 310 288 l 1
 321 337 l 1
 320 337 l 0
 298 337 285 363 285 387 c 0
 285 419 308 437 346 437 c 2
 415 437 l 2
 453 437 471 417 471 387 c 0
 471 358 451 337 425 337 c 1
 407 258 l 1
 510 340 l 1
 496 340 491 362 491 381 c 0
 491 428 521 437 565 437 c 2
 632 437 l 2
 678 437 696 420 696 389 c 0
 696 368 688 337 642 337 c 0
 639 337 l 1
 485 218 l 1
 537 200 563 166 588 100 c 1xa0
EndSplineSet
EndChar
StartChar: uni0498
Encoding: 1176 1176 483
Width: 600
Flags: W
HStem: -14 100<238 343.5> 497 100<285 440>
VStem: 428 107<138.5 225.5> 462 106<423 494.5>
Fore
187 279 m 0xe0
 187 304 203 341 265 341 c 2
 307 341 l 2
 439 341 462 414 462 432 c 0
 462 470 421 497 364 497 c 0
 206 497 248 376 169 376 c 0
 137 376 130 404 130 412 c 0
 130 419 132 428 135 443 c 0
 153 531 l 2
 156 544 166 597 216 597 c 0
 236 597 244 589 248 564 c 1
 288 586 334 597 385 597 c 0
 495 597 568 537 568 452 c 0xd0
 568 396 534 324 483 298 c 1
 499 285 535 254 535 197 c 0
 535 80 422 -14 265 -14 c 0
 211 -14 160 -1 117 25 c 1
 96 5 88 1 72 1 c 0
 45 1 32 14 32 40 c 0
 32 48 33 57 35 67 c 0
 49 133 l 2
 52 150 61 199 113 199 c 0
 148 199 151 181 154 151 c 0
 156 115 213 86 279 86 c 0
 397 86 428 152 428 172 c 0
 428 199 397 240 303 240 c 2
 244 240 l 2
 210 240 187 246 187 279 c 0xe0
EndSplineSet
EndChar
StartChar: uni0499
Encoding: 1177 1177 484
Width: 600
Flags: W
HStem: -16 100<243.5 336.5> 178 100<251 332.5> 350 100<321 421>
Fore
206 217 m 0
 206 241 221 278 281 278 c 2
 316 278 l 2
 416 278 434 309 434 317 c 0
 434 334 391 350 342 350 c 0
 300 350 265 341 233 321 c 1
 226 312 l 2
 209 290 194 281 173 281 c 0
 151 281 133 294 133 317 c 0
 133 338 142 368 145 384 c 0
 154 430 174 450 206 450 c 0
 221 450 228 443 232 424 c 1
 275 442 318 450 367 450 c 0
 475 450 545 403 545 336 c 0
 545 298 525 259 492 235 c 1
 490 225 l 1
 514 209 527 179 527 147 c 0
 527 140 526 132 525 125 c 0
 507 43 401 -16 272 -16 c 0
 215 -16 166 -6 130 13 c 1
 117 4 108 1 95 1 c 0
 71 1 54 16 54 38 c 0
 54 45 55 53 58 67 c 2
 65 100 l 2
 68 116 81 167 130 167 c 0
 156 167 169 153 172 123 c 1
 196 97 235 84 289 84 c 0
 315 84 416 94 416 132 c 0
 416 158 365 178 300 178 c 2
 258 178 l 2
 224 178 206 192 206 217 c 0
EndSplineSet
EndChar
StartChar: uni049A
Encoding: 1178 1178 485
Width: 600
Flags: W
HStem: 0 97<12.5 57 23 199> 468 97<113 304.5 542 573.5>
Fore
453 -136 m 0
 432 -136 414 -122 414 -101 c 0
 414 -94 415 -85 418 -73 c 2
 433 0 l 1
 360 0 l 1
 343 139 271 270 192 270 c 1
 155 97 l 1
 189 97 l 2
 219 97 244 94 244 57 c 0
 244 36 229 0 169 0 c 2
 23 0 l 2
 -9 0 -32 5 -32 40 c 0
 -32 61 -18 97 43 97 c 2
 57 97 l 1
 138 468 l 1
 123 468 l 2
 92 468 69 472 69 506 c 0
 69 531 83 565 143 565 c 2
 290 565 l 2
 319 565 343 560 343 527 c 0
 343 502 329 468 268 468 c 2
 234 468 l 1
 203 324 l 1
 408 472 l 1
 393 478 385 487 385 501 c 0
 385 527 400 565 461 565 c 2
 558 565 l 2
 589 565 613 562 613 528 c 0
 613 505 598 468 542 468 c 1
 339 319 l 1
 391 290 435 208 456 97 c 1
 487 97 l 2
 520 97 541 91 541 56 c 2
 541 48 l 1
 515 -73 l 2
 512 -87 503 -136 453 -136 c 0
EndSplineSet
EndChar
StartChar: uni049B
Encoding: 1179 1179 486
Width: 600
Flags: W
HStem: 0 97<55 108> 326 97<130.5 162 461 524.5>
Fore
422 -89 m 0
 390 -89 382 -63 382 -55 c 0
 382 -48 384 -39 387 -24 c 2
 391 0 l 1
 309 0 l 2
 273 0 254 12 254 36 c 0
 254 63 269 76 277 84 c 1
 219 159 l 1
 185 0 l 1
 73 0 l 2
 37 0 18 12 18 36 c 0
 18 60 29 97 93 97 c 2
 108 97 l 1
 156 326 l 1
 141 326 l 2
 108 326 87 332 87 366 c 0
 87 388 99 423 162 423 c 2
 275 423 l 1
 244 277 l 1
 332 339 l 1
 327 349 324 356 324 363 c 0
 324 386 336 423 401 423 c 2
 508 423 l 2
 541 423 564 419 564 386 c 0
 564 363 553 326 488 326 c 2
 461 326 l 1
 307 220 l 1
 412 97 l 1
 443 97 l 2
 475 97 500 94 500 57 c 0
 500 54 500 51 499 48 c 2
 484 -24 l 2
 480 -38 472 -89 422 -89 c 0
EndSplineSet
EndChar
StartChar: uni049C
Encoding: 1180 1180 487
Width: 600
Flags: W
HStem: 0 100<14 60 24 205.5 470 512.5> 483 100<117 313.5 559 592>
Fore
559 61 m 0
 559 37 544 0 481 0 c 2
 371 0 l 1
 354 143 280 278 198 278 c 1
 160 100 l 1
 195 100 l 2
 228 100 252 95 252 61 c 0
 252 37 237 0 174 0 c 2
 24 0 l 2
 -8 0 -32 7 -32 39 c 0
 -32 64 -17 100 45 100 c 2
 60 100 l 1
 142 483 l 1
 127 483 l 2
 94 483 70 488 70 522 c 0
 70 549 86 583 148 583 c 2
 298 583 l 2
 329 583 354 580 354 544 c 0
 354 519 339 483 277 483 c 2
 242 483 l 1
 210 334 l 1
 421 487 l 1
 405 493 397 503 397 519 c 0
 397 545 413 583 476 583 c 2
 576 583 l 2
 608 583 632 580 632 544 c 0
 632 521 618 483 559 483 c 1
 350 330 l 1
 404 298 449 215 470 100 c 1
 502 100 l 2
 535 100 559 95 559 61 c 0
EndSplineSet
EndChar
StartChar: uni049D
Encoding: 1181 1181 488
Width: 600
Flags: W
HStem: 0 100<56 112 425 468.5> 337 100<135 168 476 542.5>
Fore
262 38 m 0
 262 59 272 74 287 87 c 1
 226 164 l 1
 191 0 l 1
 75 0 l 2
 37 0 18 13 18 38 c 0
 18 61 29 100 96 100 c 2
 112 100 l 1
 162 337 l 1
 146 337 l 2
 115 337 90 340 90 375 c 0
 90 398 102 437 168 437 c 2
 284 437 l 1
 252 287 l 1
 344 350 l 1
 338 360 335 369 335 379 c 0
 335 403 350 437 414 437 c 2
 526 437 l 2
 559 437 582 433 582 400 c 0
 582 374 567 337 504 337 c 2
 476 337 l 1
 317 227 l 1
 425 100 l 1
 458 100 l 2
 489 100 515 97 515 61 c 0
 515 37 500 0 437 0 c 2
 319 0 l 2
 281 0 262 13 262 38 c 0
EndSplineSet
EndChar
StartChar: uni049E
Encoding: 1182 1182 489
Width: 600
Flags: W
HStem: 0 100<14 60 24 205.5 470 512.5> 483 100<117 313.5 559 592>
Fore
559 61 m 0
 559 37 544 0 481 0 c 2
 371 0 l 1
 354 143 280 278 198 278 c 1
 160 100 l 1
 195 100 l 2
 228 100 252 95 252 61 c 0
 252 37 237 0 174 0 c 2
 24 0 l 2
 -8 0 -32 7 -32 39 c 0
 -32 64 -17 100 45 100 c 2
 60 100 l 1
 142 483 l 1
 127 483 l 2
 94 483 70 488 70 522 c 0
 70 549 86 583 148 583 c 2
 298 583 l 2
 329 583 354 580 354 544 c 0
 354 519 339 483 277 483 c 2
 242 483 l 1
 210 334 l 1
 421 487 l 1
 405 493 397 503 397 519 c 0
 397 545 413 583 476 583 c 2
 576 583 l 2
 608 583 632 580 632 544 c 0
 632 521 618 483 559 483 c 1
 350 330 l 1
 404 298 449 215 470 100 c 1
 502 100 l 2
 535 100 559 95 559 61 c 0
EndSplineSet
EndChar
StartChar: uni049F
Encoding: 1183 1183 490
Width: 600
Flags: W
HStem: 0 100<56 112 425 468.5> 337 100<135 168 476 542.5>
Fore
262 38 m 0
 262 59 272 74 287 87 c 1
 226 164 l 1
 191 0 l 1
 75 0 l 2
 37 0 18 13 18 38 c 0
 18 61 29 100 96 100 c 2
 112 100 l 1
 162 337 l 1
 146 337 l 2
 115 337 90 340 90 375 c 0
 90 398 102 437 168 437 c 2
 284 437 l 1
 252 287 l 1
 344 350 l 1
 338 360 335 369 335 379 c 0
 335 403 350 437 414 437 c 2
 526 437 l 2
 559 437 582 433 582 400 c 0
 582 374 567 337 504 337 c 2
 476 337 l 1
 317 227 l 1
 425 100 l 1
 458 100 l 2
 489 100 515 97 515 61 c 0
 515 37 500 0 437 0 c 2
 319 0 l 2
 281 0 262 13 262 38 c 0
EndSplineSet
EndChar
StartChar: uni04A0
Encoding: 1184 1184 491
Width: 600
Flags: W
HStem: 0 100<14 60 24 205.5 470 512.5> 483 100<117 313.5 559 592>
Fore
559 61 m 0
 559 37 544 0 481 0 c 2
 371 0 l 1
 354 143 280 278 198 278 c 1
 160 100 l 1
 195 100 l 2
 228 100 252 95 252 61 c 0
 252 37 237 0 174 0 c 2
 24 0 l 2
 -8 0 -32 7 -32 39 c 0
 -32 64 -17 100 45 100 c 2
 60 100 l 1
 142 483 l 1
 127 483 l 2
 94 483 70 488 70 522 c 0
 70 549 86 583 148 583 c 2
 298 583 l 2
 329 583 354 580 354 544 c 0
 354 519 339 483 277 483 c 2
 242 483 l 1
 210 334 l 1
 421 487 l 1
 405 493 397 503 397 519 c 0
 397 545 413 583 476 583 c 2
 576 583 l 2
 608 583 632 580 632 544 c 0
 632 521 618 483 559 483 c 1
 350 330 l 1
 404 298 449 215 470 100 c 1
 502 100 l 2
 535 100 559 95 559 61 c 0
EndSplineSet
EndChar
StartChar: uni04A1
Encoding: 1185 1185 492
Width: 600
Flags: W
HStem: 0 100<56 112 425 468.5> 337 100<135 168 476 542.5>
Fore
262 38 m 0
 262 59 272 74 287 87 c 1
 226 164 l 1
 191 0 l 1
 75 0 l 2
 37 0 18 13 18 38 c 0
 18 61 29 100 96 100 c 2
 112 100 l 1
 162 337 l 1
 146 337 l 2
 115 337 90 340 90 375 c 0
 90 398 102 437 168 437 c 2
 284 437 l 1
 252 287 l 1
 344 350 l 1
 338 360 335 369 335 379 c 0
 335 403 350 437 414 437 c 2
 526 437 l 2
 559 437 582 433 582 400 c 0
 582 374 567 337 504 337 c 2
 476 337 l 1
 317 227 l 1
 425 100 l 1
 458 100 l 2
 489 100 515 97 515 61 c 0
 515 37 500 0 437 0 c 2
 319 0 l 2
 281 0 262 13 262 38 c 0
EndSplineSet
EndChar
StartChar: uni04A2
Encoding: 1186 1186 493
Width: 600
Flags: W
HStem: 0 100<68 209 79 116 88 240 373.5 430> 241 100<246 481> 483 100<297 349 485 518>
Fore
536 100 m 2
 569 100 592 95 592 60 c 0
 592 38 561 -104 546 -120 c 0
 533 -133 516 -141 500 -141 c 0
 479 -141 460 -127 460 -104 c 0
 460 -97 461 -88 464 -75 c 2
 480 0 l 1
 394 0 l 2
 353 0 337 11 337 40 c 0
 337 64 353 100 415 100 c 2
 430 100 l 1
 460 241 l 1
 246 241 l 1
 216 100 l 1
 230 100 l 2
 262 100 287 96 287 60 c 0
 287 36 271 0 209 0 c 2
 88 0 l 2
 48 0 32 11 32 40 c 0
 32 65 48 100 110 100 c 2
 116 100 l 1
 197 483 l 1
 169 485 155 498 155 523 c 0
 155 546 167 583 233 583 c 2
 333 583 l 2
 365 583 390 579 390 544 c 0
 390 518 374 483 312 483 c 2
 297 483 l 1
 267 341 l 1
 481 341 l 1
 511 483 l 1
 496 483 l 2
 463 483 440 488 440 523 c 0
 440 546 452 583 518 583 c 2
 618 583 l 2
 650 583 675 579 675 544 c 0
 675 511 649 486 611 483 c 1
 530 100 l 1
 536 100 l 2
EndSplineSet
EndChar
StartChar: uni04A3
Encoding: 1187 1187 494
Width: 600
Flags: W
HStem: 0 100<66 95 80 212 375.5 410> 336 100<444 478> 337 100<129 169 561 595.5>
Fore
633 400 m 0xa0
 633 375 619 337 561 337 c 1
 510 100 l 1
 544 100 562 87 562 62 c 0
 560 38 544 -52 526 -72 c 0
 514 -84 497 -92 481 -92 c 0
 447 -92 441 -63 441 -56 c 0
 441 -49 442 -40 445 -26 c 2
 450 0 l 1
 395 0 l 2
 356 0 338 13 338 37 c 0
 338 61 352 100 410 100 c 1
 424 162 l 1
 209 162 l 1
 195 100 l 1
 229 100 247 87 247 62 c 0
 247 27 221 -0 178 -0 c 2
 80 0 l 2
 41 0 23 13 23 37 c 0
 23 61 37 100 95 100 c 1
 146 337 l 1
 112 337 94 351 94 376 c 0
 94 400 109 437 169 437 c 2
 173 437 l 1xa0
 261 436 l 2xc0
 300 435 318 423 318 399 c 0
 318 375 304 337 246 337 c 1xa0
 230 263 l 1
 445 263 l 1
 461 336 l 1
 427 336 409 349 409 374 c 0
 409 409 435 436 478 436 c 0
 487 436 l 2xc0
 577 437 l 2
 614 437 633 424 633 400 c 0xa0
EndSplineSet
EndChar
StartChar: uni04A5
Encoding: 1189 1189 496
Width: 600
Flags: W
HStem: -0 100<66 95 80 212 381 410 395 527> 336 100<444 478> 337 99<246 275>
Fore
318 399 m 0xa0
 318 375 304 337 246 337 c 1xa0
 230 263 l 1
 445 263 l 1
 461 336 l 1
 427 336 409 349 409 374 c 0
 409 409 435 436 478 436 c 0xc0
 487 436 l 0
 577 437 l 2
 614 437 633 424 633 400 c 0
 633 375 619 337 561 337 c 1
 510 100 l 1
 544 100 562 87 562 62 c 0
 562 27 536 -0 493 -0 c 2
 395 0 l 2
 356 0 338 13 338 37 c 0
 338 61 352 100 410 100 c 1
 424 162 l 1
 209 162 l 1
 195 100 l 1
 229 100 247 87 247 62 c 0
 247 27 221 -0 178 -0 c 2
 80 0 l 2
 41 0 23 13 23 37 c 0
 23 61 37 100 95 100 c 1
 146 337 l 1
 112 337 94 351 94 376 c 0
 94 400 109 437 169 437 c 2
 173 437 l 1
 261 436 l 2
 300 435 318 423 318 399 c 0xa0
EndSplineSet
EndChar
StartChar: uni04A6
Encoding: 1190 1190 497
Width: 600
Flags: W
HStem: 0 100<19 156 25 62 35 187 322.5 461 476 482> 483 100<179 581>
Fore
284 39 m 0
 284 65 299 100 361 100 c 2
 376 100 l 1
 458 483 l 1
 244 483 l 1
 162 100 l 1
 177 100 l 2
 210 100 234 95 234 61 c 0
 234 36 218 0 156 0 c 2
 35 0 l 2
 3 0 -21 5 -21 39 c 0
 -21 65 -6 100 56 100 c 2
 62 100 l 1
 144 483 l 1
 113 486 101 502 101 521 c 0
 101 547 116 583 179 583 c 2
 565 583 l 2
 597 583 621 580 621 544 c 0
 621 530 613 488 558 483 c 1
 476 100 l 1
 482 100 l 2
 513 100 539 97 539 61 c 0
 539 36 523 0 461 0 c 2
 340 0 l 2
 305 0 284 8 284 39 c 0
EndSplineSet
EndChar
StartChar: uni04A7
Encoding: 1191 1191 498
Width: 600
Flags: W
HStem: 0 100<38 67 52 184 347.5 465 482 499> 337 100<101 562>
Fore
310 37 m 0
 310 61 324 100 382 100 c 1
 433 336 l 1
 218 337 l 1
 167 100 l 1
 201 100 219 87 219 62 c 0
 219 27 193 -0 150 -0 c 2
 52 0 l 2
 13 0 -5 13 -5 37 c 0
 -5 61 9 100 67 100 c 1
 118 337 l 1
 84 337 66 351 66 376 c 0
 66 402 82 437 145 437 c 2
 549 437 l 2
 586 437 605 424 605 400 c 0
 605 375 591 337 533 337 c 1
 482 100 l 1
 516 100 534 87 534 62 c 0
 534 27 508 -0 465 -0 c 2
 367 0 l 2
 328 0 310 13 310 37 c 0
EndSplineSet
EndChar
StartChar: uni04AC
Encoding: 1196 1196 503
Width: 600
Flags: W
HStem: 0 100<164 380 175 270 184 380> 483 100<166 682>
Fore
436 100 m 2
 469 100 493 95 493 61 c 0
 493 40 461 -104 446 -120 c 0
 433 -133 416 -141 400 -141 c 0
 379 -141 360 -127 360 -104 c 0
 360 -97 361 -88 364 -75 c 2
 380 0 l 1
 184 0 l 2
 144 0 128 12 128 40 c 0
 128 66 144 100 206 100 c 2
 270 100 l 1
 352 483 l 1
 245 483 l 1
 225 390 l 2
 222 378 213 324 161 324 c 0
 139 324 121 341 121 361 c 0
 121 368 122 378 125 390 c 2
 166 583 l 1
 682 583 l 1
 641 390 l 2
 638 376 629 324 577 324 c 0
 554 324 537 340 537 361 c 0
 537 368 538 377 541 390 c 2
 561 483 l 1
 452 483 l 1
 370 100 l 1
 436 100 l 2
EndSplineSet
EndChar
StartChar: uni04AD
Encoding: 1197 1197 504
Width: 600
Flags: W
HStem: 0 100<159.5 194> 417 20G<78 554>
Fore
463 244 m 0
 429 244 423 273 423 280 c 0
 423 287 424 296 427 310 c 2
 432 336 l 1
 344 336 l 1
 294 101 l 1
 327 101 346 88 346 65 c 0
 346 60 345 56 344 51 c 2
 328 -26 l 2
 325 -41 315 -92 264 -92 c 0
 230 -92 224 -63 224 -56 c 0
 224 -49 225 -40 228 -26 c 2
 233 0 l 1
 179 0 l 2
 140 0 121 13 121 38 c 0
 121 75 150 100 194 100 c 1
 244 336 l 1
 156 336 l 1
 151 310 l 2
 148 295 138 244 87 244 c 0
 66 244 46 258 46 280 c 0
 46 287 48 296 51 310 c 2
 78 437 l 1
 554 437 l 1
 527 310 l 2
 524 296 515 244 463 244 c 0
EndSplineSet
EndChar
StartChar: uni04AE
Encoding: 1198 1198 505
Width: 600
Flags: W
HStem: 0 97<168.5 264 178 434> 468 97<174 205 598 633>
Fore
673 527 m 0
 673 506 659 468 601 468 c 2
 598 468 l 1
 389 237 l 1
 361 97 l 1
 423 97 l 2
 454 97 479 94 479 59 c 0
 479 38 465 0 403 0 c 2
 178 0 l 2
 140 0 123 12 123 39 c 0
 123 61 137 97 200 97 c 2
 264 97 l 1
 293 237 l 1
 182 468 l 1
 177 468 l 2
 146 468 129 482 129 507 c 0
 129 528 143 565 205 565 c 2
 293 565 l 2
 323 565 347 562 347 527 c 0
 347 501 330 480 298 468 c 1
 363 337 l 1
 482 468 l 1
 460 477 453 487 453 507 c 0
 453 529 464 565 528 565 c 2
 618 565 l 2
 648 565 673 562 673 527 c 0
EndSplineSet
EndChar
StartChar: uni04AF
Encoding: 1199 1199 506
Width: 600
Flags: W
HStem: -146 100<143.5 241 154 416> 337 100<149.5 181 586 623.5>
Fore
663 398 m 0
 663 376 648 337 589 337 c 2
 586 337 l 1
 371 99 l 1
 341 -46 l 1
 406 -46 l 2
 439 -46 463 -51 463 -85 c 0
 463 -109 447 -146 385 -146 c 2
 154 -146 l 2
 113 -146 97 -134 97 -106 c 0
 97 -80 112 -46 175 -46 c 2
 241 -46 l 1
 271 99 l 1
 157 337 l 1
 151 337 l 2
 120 337 103 351 103 377 c 0
 103 402 118 437 181 437 c 2
 271 437 l 2
 304 437 327 432 327 398 c 0
 327 371 310 350 277 337 c 1
 343 202 l 1
 466 337 l 1
 444 346 436 357 436 377 c 0
 436 403 452 437 514 437 c 2
 607 437 l 2
 640 437 663 432 663 398 c 0
EndSplineSet
EndChar
StartChar: uni04B0
Encoding: 1200 1200 507
Width: 600
Flags: W
HStem: 0 100<164.5 437> 145 100<185 302 381 497> 483 100<180.5 212 617 654.5>
Fore
128 40 m 0
 128 66 143 100 206 100 c 2
 272 100 l 1
 281 145 l 1
 185 145 l 2
 144 145 128 157 128 185 c 0
 128 210 143 245 206 245 c 2
 302 245 l 1
 188 483 l 1
 182 483 l 2
 151 483 134 497 134 523 c 0
 134 548 149 583 212 583 c 2
 302 583 l 2
 335 583 358 578 358 544 c 0
 358 517 341 496 308 483 c 1
 374 348 l 1
 497 483 l 1
 475 492 467 503 467 523 c 0
 467 549 483 583 545 583 c 2
 638 583 l 2
 671 583 694 578 694 544 c 0
 694 522 679 483 620 483 c 2
 617 483 l 1
 402 245 l 1
 497 245 l 2
 530 245 554 240 554 206 c 0
 554 182 538 145 476 145 c 2
 381 145 l 1
 372 100 l 1
 437 100 l 2
 470 100 494 95 494 61 c 0
 494 37 478 0 416 0 c 2
 185 0 l 2
 144 0 128 12 128 40 c 0
EndSplineSet
EndChar
StartChar: uni04B1
Encoding: 1201 1201 508
Width: 600
Flags: W
HStem: -146 100<133.5 406> -1 100<154 271 350 466> 337 100<149.5 181 586 623.5>
Fore
97 -106 m 0
 97 -80 112 -46 175 -46 c 2
 241 -46 l 1
 250 -1 l 1
 154 -1 l 2
 113 -1 97 11 97 39 c 0
 97 64 112 99 175 99 c 2
 271 99 l 1
 157 337 l 1
 151 337 l 2
 120 337 103 351 103 377 c 0
 103 402 118 437 181 437 c 2
 271 437 l 2
 304 437 327 432 327 398 c 0
 327 371 310 350 277 337 c 1
 343 202 l 1
 466 337 l 1
 444 346 436 357 436 377 c 0
 436 403 452 437 514 437 c 2
 607 437 l 2
 640 437 663 432 663 398 c 0
 663 376 648 337 589 337 c 2
 586 337 l 1
 371 99 l 1
 466 99 l 2
 499 99 523 94 523 60 c 0
 523 36 507 -1 445 -1 c 2
 350 -1 l 1
 341 -46 l 1
 406 -46 l 2
 439 -46 463 -51 463 -85 c 0
 463 -109 447 -146 385 -146 c 2
 154 -146 l 2
 113 -146 97 -134 97 -106 c 0
EndSplineSet
EndChar
StartChar: uni04B2
Encoding: 1202 1202 509
Width: 600
Flags: W
HStem: 0 97<66.5 86 74 226> 468 97<604 633.5>
Fore
493 -136 m 0
 471 -136 454 -122 454 -100 c 0
 454 -93 455 -85 457 -73 c 2
 473 0 l 1
 400 0 l 2
 361 0 345 11 345 39 c 0
 345 68 366 93 411 97 c 1
 336 213 l 1
 211 97 l 1
 241 97 257 84 257 57 c 0
 257 36 243 0 180 0 c 2
 74 0 l 2
 34 0 19 11 19 39 c 0
 19 73 47 97 86 97 c 1
 290 290 l 1
 172 468 l 1
 141 469 127 482 127 507 c 0
 127 532 142 565 202 565 c 2
 291 565 l 2
 322 565 346 562 346 527 c 0
 346 501 332 484 298 469 c 1
 367 363 l 1
 480 469 l 1
 457 482 453 488 453 507 c 0
 453 529 464 565 528 565 c 2
 615 565 l 2
 652 565 670 559 670 527 c 0
 670 492 642 469 604 468 c 1
 414 288 l 1
 535 97 l 1
 567 97 582 84 582 57 c 2
 555 -73 l 2
 552 -88 540 -136 493 -136 c 0
EndSplineSet
EndChar
StartChar: uni04B3
Encoding: 1203 1203 510
Width: 600
Flags: W
HStem: -20 20G<388 463>
Fore
492 -89 m 0
 460 -89 452 -63 452 -55 c 0
 452 -48 454 -39 457 -24 c 2
 463 0 l 1
 388 0 l 2
 348 0 332 11 332 39 c 0
 332 65 353 89 381 97 c 1
 322 156 l 1
 239 97 l 1
 260 86 267 78 267 60 c 0
 267 34 252 0 191 0 c 2
 84 0 l 2
 45 0 29 11 29 39 c 0
 29 51 36 92 93 97 c 1
 260 221 l 1
 158 326 l 1
 129 329 116 342 116 365 c 0
 116 389 131 423 192 423 c 2
 282 423 l 2
 312 423 336 420 336 384 c 0
 336 365 322 345 299 332 c 1
 349 283 l 1
 418 332 l 1
 406 343 401 352 401 364 c 0
 401 389 416 423 477 423 c 2
 566 423 l 2
 598 423 621 418 621 386 c 0
 621 353 596 330 558 326 c 1
 408 220 l 1
 528 97 l 1
 557 97 572 84 572 57 c 2
 554 -24 l 2
 552 -34 545 -89 492 -89 c 0
EndSplineSet
EndChar
StartChar: uni04B4
Encoding: 1204 1204 511
Width: 600
Flags: W
HStem: 0 97<18.5 423> 468 97<105.5 268.5 400 564.5>
Fore
443 -136 m 0
 422 -136 404 -122 404 -101 c 0
 404 -94 405 -85 408 -73 c 2
 423 0 l 1
 34 0 l 2
 3 0 -20 3 -20 36 c 0
 -20 88 27 96 40 97 c 1
 120 468 l 1
 115 468 l 2
 76 468 59 474 59 507 c 0
 59 532 75 565 136 565 c 2
 252 565 l 2
 285 565 307 559 307 525 c 0
 307 504 292 468 232 468 c 2
 218 468 l 1
 138 97 l 1
 345 97 l 1
 425 468 l 1
 411 468 l 2
 370 468 355 474 355 506 c 0
 355 530 370 565 430 565 c 2
 549 565 l 2
 580 565 602 559 602 526 c 0
 602 501 587 468 527 468 c 2
 521 468 l 1
 442 97 l 1
 541 97 l 1
 505 -73 l 2
 502 -87 493 -136 443 -136 c 0
EndSplineSet
EndChar
StartChar: uni04B5
Encoding: 1205 1205 512
Width: 600
Flags: W
HStem: 0 97<39 74> 326 97<106 241.5 395 411 436 541>
Fore
578 387 m 0
 578 353 552 326 508 326 c 1
 460 97 l 1
 550 97 l 1
 524 -24 l 2
 520 -40 512 -89 462 -89 c 0
 430 -89 422 -62 422 -54 c 0
 422 -47 424 -38 427 -24 c 2
 433 0 l 1
 57 0 l 2
 21 0 3 12 3 37 c 0
 3 63 17 97 74 97 c 1
 122 326 l 1
 90 326 72 340 72 362 c 0
 72 389 86 422 147 423 c 2
 234 423 l 2
 272 423 291 410 291 385 c 0
 291 354 264 326 219 326 c 1
 170 98 l 1
 363 97 l 1
 411 326 l 1
 379 326 361 340 361 362 c 0
 361 388 375 422 436 423 c 2
 522 423 l 2
 560 423 578 411 578 387 c 0
EndSplineSet
EndChar
StartChar: uni04B6
Encoding: 1206 1206 513
Width: 600
Flags: W
HStem: 0 100<254.5 308> 167 100<181.5 265.5> 483 100<190 241.5 364 395>
Fore
414 100 m 2
 445 100 470 97 470 60 c 0
 470 50 441 -102 425 -120 c 0
 412 -133 395 -141 379 -141 c 0
 358 -141 339 -127 339 -104 c 0
 339 -97 340 -88 343 -75 c 2
 359 0 l 1
 271 0 l 2
 238 0 215 6 215 40 c 0
 215 66 231 100 293 100 c 2
 308 100 l 1
 327 196 l 1
 299 176 264 167 220 167 c 0
 143 167 49 179 49 273 c 0
 49 283 50 293 52 305 c 2
 90 483 l 1
 63 486 47 499 47 520 c 0
 47 544 59 583 125 583 c 2
 226 583 l 2
 257 583 283 580 283 542 c 0
 283 521 269 483 205 483 c 2
 190 483 l 1
 153 308 l 1
 161 277 202 267 242 267 c 0
 289 267 330 283 352 308 c 1
 389 483 l 1
 374 483 l 2
 341 483 318 488 318 522 c 0
 318 549 333 583 395 583 c 2
 496 583 l 2
 529 583 553 579 553 542 c 0
 553 529 544 488 489 483 c 1
 408 100 l 1
 414 100 l 2
EndSplineSet
EndChar
StartChar: uni04B7
Encoding: 1207 1207 514
Width: 600
Flags: W
HStem: 0 100<294.5 329> 123 101<206 284.5> 336 100<362.5 397> 337 100<82.5 123 479 515>
Fore
552 399 m 0xd0
 552 375 537 337 479 337 c 1
 429 100 l 1
 462 100 481 87 481 64 c 0
 481 59 480 55 479 50 c 2
 463 -26 l 2
 460 -41 450 -92 399 -92 c 0
 365 -92 359 -63 359 -56 c 0
 359 -49 360 -40 363 -26 c 2
 368 0 l 1
 314 0 l 2
 275 0 256 13 256 38 c 0
 256 75 285 100 329 100 c 1
 339 147 l 1
 306 129 282 123 242 123 c 0
 170 123 78 145 78 226 c 0
 78 234 79 243 81 252 c 2
 99 337 l 1
 66 337 48 350 48 374 c 0
 48 399 63 437 123 437 c 2
 127 437 l 1xd0
 215 436 l 2xe0
 253 435 272 423 272 398 c 0
 272 375 258 337 199 337 c 1xd0
 181 252 l 1
 189 233 226 224 264 224 c 0
 305 224 334 235 362 256 c 1
 379 336 l 1
 346 336 328 349 328 373 c 0
 328 410 355 436 397 436 c 0
 406 436 l 2xe0
 496 437 l 2
 534 437 552 424 552 399 c 0xd0
EndSplineSet
EndChar
StartChar: uni04B8
Encoding: 1208 1208 515
Width: 600
Flags: W
HStem: 0 97<243 380 395 401> 162 97<176 257> 468 97<185 234.5 352 381>
Fore
209 42 m 0
 209 64 224 97 283 97 c 2
 298 97 l 1
 316 191 l 1
 290 170 257 162 213 162 c 0
 139 162 47 174 47 265 c 0
 47 274 48 284 50 295 c 2
 87 468 l 1
 61 470 45 483 45 504 c 0
 45 528 60 565 121 565 c 2
 219 565 l 2
 250 565 274 560 274 525 c 0
 274 501 259 468 198 468 c 2
 185 468 l 1
 148 298 l 1
 156 268 195 259 234 259 c 0
 280 259 319 274 341 298 c 1
 378 468 l 1
 363 468 l 2
 331 468 308 473 308 507 c 0
 308 531 323 565 381 565 c 2
 480 565 l 2
 511 565 536 562 536 525 c 0
 536 512 526 471 474 468 c 1
 395 97 l 1
 401 97 l 2
 431 97 455 94 455 60 c 0
 455 34 440 0 380 0 c 2
 263 0 l 2
 223 0 209 7 209 42 c 0
EndSplineSet
EndChar
StartChar: uni04B9
Encoding: 1209 1209 516
Width: 600
Flags: W
HStem: -0 97<290.5 319 304 431> 119 99<199.5 276> 326 97<80 117 464 498.5>
Fore
264 386 m 0
 264 363 250 326 193 326 c 1
 175 244 l 1
 183 226 219 218 257 218 c 0
 295 218 324 228 350 248 c 1
 367 326 l 1
 335 326 317 338 317 361 c 0
 317 384 331 422 385 422 c 0
 394 422 l 2
 480 423 l 2
 517 423 535 410 535 385 c 0
 535 349 504 326 464 326 c 1
 415 97 l 1
 447 97 466 85 466 62 c 0
 466 39 453 -0 397 -0 c 2
 304 0 l 2
 266 0 248 12 248 36 c 0
 248 59 262 97 319 97 c 1
 329 143 l 1
 296 125 273 119 234 119 c 0
 165 119 75 141 75 219 c 0
 75 227 76 235 78 244 c 2
 97 326 l 1
 63 326 45 340 45 363 c 0
 45 399 74 423 117 423 c 0
 123 423 l 2
 208 422 l 2
 244 420 264 409 264 386 c 0
EndSplineSet
EndChar
